<svg xmlns="http://www.w3.org/2000/svg" width="550" height="705" fill="none" viewBox="0 0 550 705"><g clip-path="url(#a)"><path fill="#fff" d="M549.01 0H.01l.17 450.31a93.55 93.55 0 0 0 36.44 74.25l.81.64L274.74 705l237.23-180.07a94.43 94.43 0 0 0 37.21-74.85z"/><path fill="#E8151E" d="m411.43 139.49-61.08 62.55v426.48l61.08-46.36zM472.62 535.68l29.39-22.3c19.22-14.58 31.67-36.21 31.66-60.28l-.16-438.67-60.89 62.35zM167.77 604.89V389.02l-61.08 62.55v107.04zM289.79 674.49V264.06l-61.08 62.56v324.44l46.01 34.87z"/><path fill="#282A6F" d="M549.01 0H.01l.17 450.31a93.53 93.53 0 0 0 35.38 73.37c.35.28.69.57 1.05.84l.81.64 237.31 179.8 237.24-180.03a94.43 94.43 0 0 0 37.21-74.85zM355.54 79.54 79.73 362.1l-.11-282.42zM502.01 511.8 274.72 684.31 48.21 512.68l484.32-496 .16 433.39a77.873 77.873 0 0 1-30.68 61.73"/><path fill="#fff" d="m33.63 32.8 6.19-19.05 6.2 19.05 20.03-.01-16.2 11.78 6.2 19.06-16.22-11.77-16.2 11.78 6.18-19.06L13.6 32.81zM233.19 32.73l6.18-19.06 6.2 19.05h20.04L249.4 44.5l6.2 19.05-16.21-11.77-16.2 11.78 6.18-19.05-16.21-11.77zM33.78 434.77l6.19-19.06 6.2 19.05H66.2L50 446.54l6.2 19.05-16.22-11.77-16.2 11.78 6.18-19.05-16.21-11.77zM33.71 234.34l6.18-19.06 6.2 19.05 20.04-.01-16.21 11.79 6.2 19.05-16.21-11.77-16.21 11.78 6.19-19.06-16.21-11.77zM173.38 306.85l6.19-19.06 6.2 19.05h20.03l-16.2 11.78 6.2 19.05-16.22-11.77-16.2 11.78 6.18-19.05-16.21-11.77zM307.6 172.44l6.18-19.05 6.2 19.05 20.03-.01-16.2 11.78 6.2 19.06-16.21-11.77-16.21 11.78 6.18-19.06-16.21-11.77zM432.74 32.65l6.19-19.05 6.2 19.05 20.03-.01-16.2 11.78 6.2 19.06-16.22-11.77-16.2 11.78 6.18-19.06-16.21-11.77z"/><path fill="#000" d="M189.25 220.57a16.6 16.6 0 0 0-1.13-4.11c-4.25-9.75-8.78-7.91-11.47-21.21a66 66 0 0 0-1.75-7.33c-.49-1.4-1.45-4.23-1.21-6.48.49-4.69 2-10 2.69-14.76v-.17a4.31 4.31 0 0 0 3.11-3.21c.2-1.5-.21-2.08-3.75-3l-.12-.14c-2.11-3.84-5.59-5.17-9.49-5.93a10 10 0 0 0-3.93.18 5.6 5.6 0 0 1-3.35-.61c-2-1.11-6.33-5.38-7.58-3.49a9.065 9.065 0 0 0-.78 8.34c2 4.74 5.15 6 1.83 11.54-2 3.31-6 8.22-6.94 12.58a24 24 0 0 1-6.85-6.62 18.2 18.2 0 0 0-2.77-4.83v14.21c1.77 2.27 3.81 4.8 5.66 7-1.81-1.19-3.89-2.64-5.66-3.88v11.56c1.42 1 3.53 2.24 5 3a21 21 0 0 0 4.27 1.92 34.07 34.07 0 0 0 9.92 21.37c-.94 3.81-1.87 8.45-1.33 10.51 1.83 6.95 8 12.44 8.54 16.54.25 1.83-1.76 2.71-3.25 3.92l-.67.44 22 .43.33-.44a2.75 2.75 0 0 0 .23-2.07c-1.74-10.91-1.91-12.49 4.12-19.06a17.35 17.35 0 0 0 3.88-7.54 2.77 2.77 0 0 0 2.538-1.892c.118-.357.163-.734.132-1.108a16.1 16.1 0 0 0-2.22-5.66m-17.48 32.9c-.25 1.39-1.06 2.13-2.17 3.29a14.84 14.84 0 0 0-.06-6.38c-.37-1.77-1.74-6.52-1.63-7.5.14-1.2 4.19 8.72 3.86 10.59"/><path fill="#7E4F3A" d="M143.21 257.16a7.085 7.085 0 0 1-6.61-4.377 7.1 7.1 0 0 1-.54-2.733v-91.9a8.9 8.9 0 0 1 .94-4l1.32-2a76.3 76.3 0 0 1-16-.06l1.19 2a9.05 9.05 0 0 1 1 4.08v91.84a7.09 7.09 0 0 1-4.384 6.583 7.1 7.1 0 0 1-2.726.537l-19.9.79a1.101 1.101 0 0 0 0 2.2l81.92-.22 2-2z"/><path fill="#006A3F" d="M130.39 152.84c23.71 0 42.93-14.618 42.93-32.65s-19.22-32.65-42.93-32.65-42.93 14.618-42.93 32.65 19.22 32.65 42.93 32.65"/><path fill="#E8151E" d="M117.3 132.1a3.082 3.082 0 0 0-2.38.05 3.22 3.22 0 0 0-1.64 4.19 3.1 3.1 0 0 0 1.73 1.65c.361.135.744.203 1.13.2.466.001.926-.098 1.35-.29a3.14 3.14 0 0 0-.19-5.8M135.49 128.78a3.17 3.17 0 0 0 2.48-.09 3.14 3.14 0 0 0 1.7-1.75 3.15 3.15 0 0 0-.06-2.44 3.1 3.1 0 0 0-1.74-1.63 3.25 3.25 0 0 0-2.47.07 3.19 3.19 0 0 0-1.64 4.19 3.086 3.086 0 0 0 1.73 1.65M156.07 119.61a3.17 3.17 0 0 0 2.48-.09 3.14 3.14 0 0 0 1.644-1.75 3.14 3.14 0 0 0-.074-2.4 3.27 3.27 0 0 0-1.82-1.7 3 3 0 0 0-2.35 0 3.267 3.267 0 0 0-1.61 4.26 3.13 3.13 0 0 0 1.73 1.68M104.44 119.26a3.082 3.082 0 0 0-2.38.05 3.22 3.22 0 0 0-1.64 4.19 3.1 3.1 0 0 0 1.73 1.65c.362.132.745.199 1.13.2.466.001.926-.098 1.35-.29a3.14 3.14 0 0 0 1.844-2.963 3.15 3.15 0 0 0-2.034-2.837M126.76 111.68a3.07 3.07 0 0 0-1.74-1.63 3.25 3.25 0 0 0-2.47.07 3.19 3.19 0 0 0-1.64 4.19 3.1 3.1 0 0 0 1.73 1.65 3.17 3.17 0 0 0 2.48-.09 3.14 3.14 0 0 0 1.7-1.75 3.15 3.15 0 0 0-.06-2.44M148.35 141.62c.357.139.737.21 1.12.21a3.2 3.2 0 0 0 1.35-.3 3.148 3.148 0 0 0 1.64-4.19 3.06 3.06 0 0 0-1.74-1.62 3.21 3.21 0 0 0-4.11 4.25 3.06 3.06 0 0 0 1.74 1.65"/></g><defs><clipPath id="a"><path fill="#fff" d="M0 0h549.18v705H0z"/></clipPath></defs></svg>