<?xml version="1.0" encoding="UTF-8"?>
<svg xmlns="http://www.w3.org/2000/svg" xmlns:xlink="http://www.w3.org/1999/xlink" width="1000px" height="949px" viewBox="0 0 500 475" version="1.1">
<g id="surface1">
<path style=" stroke:none;fill-rule:nonzero;fill:rgb(100%,100%,100%);fill-opacity:1;" d="M 260.902344 54.304688 C 260.902344 54.304688 270.222656 32.367188 276.125 30.972656 C 276.125 30.972656 273.496094 48.546875 260.902344 54.304688 M 229.5 54.304688 C 229.5 54.304688 238.847656 32.367188 244.730469 30.972656 C 244.730469 30.972656 242.101562 48.546875 229.5 54.304688 M 216.445312 48.863281 L 213.949219 46.523438 L 208.679688 51.664062 C 208.523438 50.878906 205.882812 50.265625 205.882812 50.265625 C 208.523438 49.480469 217.230469 44.34375 217.230469 44.34375 C 216.621094 46.679688 216.445312 48.863281 216.445312 48.863281 M 302.699219 21.789062 C 302.699219 21.789062 292.929688 22.25 286.71875 30.660156 C 286.71875 30.660156 285.757812 23.660156 278.765625 22.09375 C 278.765625 22.09375 269.128906 19.132812 255.460938 33.304688 C 255.460938 33.304688 256.089844 22.09375 244.105469 21.789062 C 244.105469 21.789062 235.261719 21.476562 222.820312 34.695312 C 222.820312 34.695312 223.132812 22.5625 210.234375 21.9375 C 210.234375 21.9375 198.101562 20.542969 190.175781 33.925781 C 190.175781 33.925781 186.769531 42.628906 194.996094 44.964844 C 194.996094 44.964844 183.800781 51.1875 182.871094 58.660156 C 182.871094 58.660156 182.871094 62.703125 185.996094 63.480469 C 185.996094 63.480469 189.09375 64.738281 192.035156 59.757812 C 192.035156 59.757812 199.8125 64.261719 204.484375 63.644531 C 204.484375 63.644531 211.015625 63.175781 217.535156 54.777344 C 217.535156 54.777344 220.1875 63.175781 228.726562 63.644531 C 228.726562 63.644531 237.59375 64.105469 248.148438 50.5625 C 248.148438 50.5625 248.296875 59.757812 257.640625 63.335938 C 257.640625 63.335938 270.695312 67.375 284.996094 42.011719 C 284.996094 42.011719 287.011719 44.652344 289.511719 44.8125 C 289.511719 44.8125 278.464844 51.1875 277.367188 58.816406 C 277.367188 58.816406 276.90625 63.175781 281.414062 63.480469 C 281.414062 63.480469 283.753906 64.421875 286.550781 59.589844 C 286.550781 59.589844 296.960938 66.128906 302.246094 62.550781 C 302.246094 62.550781 312.820312 58.5 312.820312 50.105469 L 308.445312 46.371094 L 303.480469 51.503906 L 300.386719 50.105469 C 300.386719 50.105469 318.105469 44.046875 317.167969 34.070312 C 317.167969 34.070312 317.773438 21.789062 302.699219 21.789062 "/>
<path style=" stroke:none;fill-rule:nonzero;fill:rgb(100%,100%,100%);fill-opacity:1;" d="M 290.417969 2.449219 C 290.417969 2.449219 387.398438 -16.644531 388.21875 51.820312 C 388.21875 51.820312 419.316406 86.667969 428.433594 110.742188 C 428.433594 110.742188 428.855469 107.414062 430.082031 102.027344 C 430.082031 102.027344 426.363281 95.378906 414.335938 90.40625 C 414.335938 90.40625 406.480469 79.199219 409.363281 64.261719 C 409.363281 64.261719 409.363281 38.957031 391.117188 26.503906 C 391.117188 26.503906 430.914062 28.574219 447.898438 64.261719 C 447.898438 64.261719 455.386719 85.015625 440.449219 102.4375 C 440.449219 102.4375 442.941406 116.121094 437.144531 133.972656 C 437.144531 133.972656 447.101562 167.578125 445.832031 185.414062 C 445.832031 185.414062 446.667969 182.109375 449.566406 179.191406 C 449.566406 179.191406 441.691406 172.144531 439.628906 161.769531 C 439.628906 161.769531 437.144531 145.167969 445.011719 132.726562 C 445.011719 132.726562 455.386719 113.21875 458.679688 91.640625 C 458.679688 91.640625 512.144531 158.039062 459.933594 181.6875 C 459.933594 181.6875 450.8125 206.988281 445.429688 216.542969 C 445.429688 216.542969 445.429688 239.773438 436.726562 271.71875 C 436.726562 271.71875 445.011719 263.007812 447.101562 262.183594 C 447.101562 262.183594 437.554688 239.773438 456.613281 216.128906 C 456.613281 216.128906 483.964844 187.496094 497.648438 179.191406 C 497.648438 179.191406 515.472656 282.921875 454.53125 269.648438 C 454.53125 269.648438 435.066406 292.882812 427.609375 299.101562 C 427.609375 299.101562 419.316406 321.523438 403.148438 347.238281 C 403.148438 347.238281 411.851562 347.640625 417.253906 341.015625 C 417.253906 341.015625 410.601562 311.972656 446.667969 299.101562 C 446.667969 299.101562 473.199219 289.972656 490.203125 272.554688 C 490.203125 272.554688 485.625 375.035156 425.117188 350.96875 C 425.117188 350.96875 417.253906 358.027344 392.777344 362.582031 C 392.777344 362.582031 379.933594 381.917969 363.351562 397.269531 C 363.351562 397.269531 368.953125 398.671875 376.203125 394.929688 C 376.203125 394.929688 395.367188 338.085938 461.03125 377.390625 C 461.03125 377.390625 446.292969 381.121094 424.097656 402.417969 C 424.097656 402.417969 400.96875 420.65625 378.542969 405.214844 C 378.542969 405.214844 360.550781 409.433594 348.859375 408.960938 C 348.859375 408.960938 323.988281 431.460938 320.671875 433.125 L 308.640625 415.273438 C 308.640625 415.273438 321.5 411.136719 344.289062 389.976562 C 344.289062 389.976562 343.464844 388.730469 345.121094 384.988281 C 345.121094 384.988281 342.640625 384.988281 338.480469 376.285156 C 338.480469 376.285156 331.433594 376.285156 317.746094 389.976562 C 317.746094 389.976562 289.996094 414.453125 266.367188 401.597656 C 266.367188 401.597656 280.46875 404.078125 297.050781 370.898438 C 297.050781 370.898438 320.671875 338.109375 345.542969 364.664062 C 345.542969 364.664062 345.542969 370.0625 348.015625 372.953125 C 348.015625 372.953125 349.691406 365.914062 350.925781 364.25 C 350.925781 364.25 328.949219 343.523438 343.886719 322.34375 C 343.886719 322.34375 357.546875 313.214844 355.066406 285.414062 C 355.066406 285.414062 372.894531 292.050781 382.828125 325.25 C 382.828125 325.25 388.21875 354.285156 361.285156 365.914062 L 360.042969 372.546875 C 360.042969 372.546875 379.511719 349.726562 389.878906 333.546875 C 389.878906 333.546875 389.472656 309.054688 390.308594 304.078125 C 390.308594 304.078125 358.390625 284.175781 378.277344 257.621094 C 378.277344 257.621094 387.816406 241.015625 382.425781 213.214844 C 382.425781 213.214844 436.726562 253.878906 402.320312 302.417969 C 402.320312 302.417969 403.148438 311.972656 403.566406 313.214844 C 403.566406 313.214844 417.253906 285 420.136719 265.496094 C 420.136719 265.496094 417.253906 249.328125 406.878906 220.683594 C 406.878906 220.683594 373.3125 203.675781 393.203125 169.648438 C 393.203125 169.648438 399.832031 147.660156 392.777344 127.335938 C 392.777344 127.335938 453.714844 167.578125 418.054688 220.273438 L 426.78125 237.699219 C 426.78125 237.699219 444.59375 175.890625 415.167969 113.632812 C 415.167969 113.632812 378.277344 85.015625 357.976562 88.746094 C 357.976562 88.746094 324.824219 92.054688 306.996094 68.832031 C 306.996094 68.832031 320.246094 75.472656 340.574219 63.84375 C 340.574219 63.84375 372.082031 45.175781 389.050781 83.757812 C 389.050781 83.757812 404.398438 93.71875 407.292969 93.71875 C 407.292969 93.71875 389.878906 65.09375 379.933594 56.792969 C 379.933594 56.792969 356.320312 60.105469 336.832031 33.96875 C 336.832031 33.96875 314.023438 10.734375 290.417969 2.449219 "/>
<path style=" stroke:none;fill-rule:nonzero;fill:rgb(100%,100%,100%);fill-opacity:1;" d="M 209.671875 2.449219 C 209.671875 2.449219 112.671875 -16.644531 111.859375 51.820312 C 111.859375 51.820312 80.769531 86.667969 71.648438 110.742188 C 71.648438 110.742188 71.238281 107.414062 69.988281 102.027344 C 69.988281 102.027344 73.722656 95.378906 85.742188 90.40625 C 85.742188 90.40625 93.597656 79.199219 90.695312 64.261719 C 90.695312 64.261719 90.695312 38.957031 108.953125 26.503906 C 108.953125 26.503906 69.15625 28.574219 52.175781 64.261719 C 52.175781 64.261719 44.691406 85.015625 59.628906 102.4375 C 59.628906 102.4375 57.132812 116.121094 62.933594 133.972656 C 62.933594 133.972656 52.988281 167.578125 54.238281 185.414062 C 54.238281 185.414062 53.402344 182.109375 50.515625 179.191406 C 50.515625 179.191406 58.386719 172.144531 60.460938 161.769531 C 60.460938 161.769531 62.933594 145.167969 55.070312 132.726562 C 55.070312 132.726562 44.691406 113.21875 41.390625 91.640625 C 41.390625 91.640625 -12.070312 158.039062 40.140625 181.6875 C 40.140625 181.6875 49.273438 206.988281 54.644531 216.542969 C 54.644531 216.542969 54.644531 239.773438 63.351562 271.71875 C 63.351562 271.71875 55.070312 263.007812 52.988281 262.183594 C 52.988281 262.183594 62.523438 239.773438 43.464844 216.128906 C 43.464844 216.128906 16.109375 187.496094 2.429688 179.191406 C 2.429688 179.191406 -15.394531 282.921875 45.535156 269.648438 C 45.535156 269.648438 65.003906 292.882812 72.460938 299.101562 C 72.460938 299.101562 80.769531 321.523438 96.929688 347.238281 C 96.929688 347.238281 88.234375 347.640625 82.832031 341.015625 C 82.832031 341.015625 89.464844 311.972656 53.402344 299.101562 C 53.402344 299.101562 26.882812 289.972656 9.867188 272.554688 C 9.867188 272.554688 14.453125 375.035156 74.964844 350.96875 C 74.964844 350.96875 82.832031 358.027344 107.289062 362.582031 C 107.289062 362.582031 120.144531 381.917969 136.722656 397.269531 C 136.722656 397.269531 131.125 398.671875 123.863281 394.929688 C 123.863281 394.929688 104.710938 338.085938 39.050781 377.390625 C 39.050781 377.390625 53.78125 381.121094 75.972656 402.417969 C 75.972656 402.417969 99.105469 420.65625 121.539062 405.214844 C 121.539062 405.214844 139.53125 409.433594 151.210938 408.960938 C 151.210938 408.960938 176.078125 431.460938 179.410156 433.125 L 191.4375 415.273438 C 191.4375 415.273438 178.578125 411.136719 155.777344 389.976562 C 155.777344 389.976562 156.625 388.730469 154.964844 384.988281 C 154.964844 384.988281 157.4375 384.988281 161.585938 376.285156 C 161.585938 376.285156 168.648438 376.285156 182.328125 389.976562 C 182.328125 389.976562 210.085938 414.453125 233.707031 401.597656 C 233.707031 401.597656 219.609375 404.078125 203.023438 370.898438 C 203.023438 370.898438 179.410156 338.109375 154.523438 364.664062 C 154.523438 364.664062 154.523438 370.0625 152.050781 372.953125 C 152.050781 372.953125 150.382812 365.914062 149.152344 364.25 C 149.152344 364.25 171.121094 343.523438 156.199219 322.34375 C 156.199219 322.34375 142.53125 313.214844 145.007812 285.414062 C 145.007812 285.414062 127.175781 292.050781 117.242188 325.25 C 117.242188 325.25 111.859375 354.285156 138.792969 365.914062 L 140.035156 372.546875 C 140.035156 372.546875 120.558594 349.726562 110.191406 333.546875 C 110.191406 333.546875 110.597656 309.054688 109.777344 304.078125 C 109.777344 304.078125 141.6875 284.175781 121.796875 257.621094 C 121.796875 257.621094 112.269531 241.015625 117.652344 213.214844 C 117.652344 213.214844 63.351562 253.878906 97.761719 302.417969 C 97.761719 302.417969 96.929688 311.972656 96.511719 313.214844 C 96.511719 313.214844 82.832031 285 79.949219 265.496094 C 79.949219 265.496094 82.832031 249.328125 93.195312 220.683594 C 93.195312 220.683594 126.757812 203.675781 106.875 169.648438 C 106.875 169.648438 100.238281 147.660156 107.289062 127.335938 C 107.289062 127.335938 46.367188 167.578125 82.015625 220.273438 L 73.292969 237.699219 C 73.292969 237.699219 55.484375 175.890625 84.902344 113.632812 C 84.902344 113.632812 121.796875 85.015625 142.097656 88.746094 C 142.097656 88.746094 175.261719 92.054688 193.085938 68.832031 C 193.085938 68.832031 179.835938 75.472656 159.503906 63.84375 C 159.503906 63.84375 127.996094 45.175781 111.035156 83.757812 C 111.035156 83.757812 95.675781 93.71875 92.789062 93.71875 C 92.789062 93.71875 110.191406 65.09375 120.148438 56.792969 C 120.148438 56.792969 143.765625 60.105469 163.238281 33.96875 C 163.238281 33.96875 186.050781 10.734375 209.671875 2.449219 "/>
<path style=" stroke:none;fill-rule:nonzero;fill:rgb(100%,100%,100%);fill-opacity:1;" d="M 64.777344 57.210938 C 64.777344 57.210938 78.039062 110.3125 114.515625 126.503906 C 114.515625 126.503906 114.085938 113.632812 113.691406 109.488281 L 116.589844 109.070312 C 116.589844 109.070312 121.132812 94.976562 129.019531 87.496094 C 129.019531 87.496094 129.429688 104.503906 131.5 107.824219 C 131.5 107.824219 160.515625 103.261719 189.53125 90.828125 C 189.53125 90.828125 224.777344 76.714844 251.292969 77.542969 C 251.292969 77.542969 272.425781 75.472656 312.214844 91.234375 C 312.214844 91.234375 350.339844 104.503906 354.078125 105.335938 C 354.078125 105.335938 357.40625 94.976562 356.144531 88.324219 C 356.144531 88.324219 367.753906 100.363281 368.164062 107.824219 C 368.164062 107.824219 381.851562 109.488281 386.835938 109.070312 L 386.402344 116.125 C 386.402344 116.125 406.296875 104.09375 419.984375 57.210938 C 419.984375 57.210938 439.457031 129.410156 384.34375 160.523438 L 383.90625 162.1875 C 383.90625 162.1875 411.265625 161.347656 443.601562 182.09375 C 443.601562 182.09375 409.609375 176.289062 382.6875 186.660156 C 382.6875 186.660156 390.871094 300.628906 250.035156 404.496094 C 250.035156 404.496094 162.585938 335.621094 135.859375 267.773438 C 135.859375 267.773438 117.207031 221.738281 116.589844 167.574219 C 116.589844 167.574219 47.78125 152.847656 64.777344 57.210938 "/>
<path style=" stroke:none;fill-rule:nonzero;fill:rgb(0%,40.784314%,71.764706%);fill-opacity:1;" d="M 341.582031 370.835938 C 341.582031 370.835938 342.378906 382.257812 350.617188 384.097656 L 351.898438 382.148438 C 351.898438 382.148438 343.84375 377.308594 343.203125 369.859375 Z M 341.582031 370.835938 "/>
<path style=" stroke:none;fill-rule:nonzero;fill:rgb(0%,40.784314%,71.764706%);fill-opacity:1;" d="M 317.539062 385.394531 C 317.539062 385.394531 327.148438 374.046875 343.519531 370.835938 C 343.519531 370.835938 343.339844 357.175781 323.167969 358.125 C 323.167969 358.125 306.832031 357.484375 297.835938 376.917969 C 297.835938 376.917969 286.484375 398.941406 277.8125 401.257812 C 277.8125 401.257812 295.480469 404.527344 317.539062 385.394531 "/>
<path style=" stroke:none;fill-rule:nonzero;fill:rgb(0%,40.784314%,71.764706%);fill-opacity:1;" d="M 460.859375 101.074219 C 460.859375 101.074219 458.949219 113.496094 444.839844 142.15625 C 444.839844 142.15625 437.15625 163.511719 453.527344 177.601562 C 453.527344 177.601562 440.769531 208.367188 438.011719 207.691406 C 438.011719 207.691406 435.769531 225.046875 438.269531 222.871094 C 438.269531 222.871094 448.785156 204.382812 456.796875 178.601562 C 456.796875 178.601562 505.085938 165.859375 460.859375 101.074219 "/>
<path style=" stroke:none;fill-rule:nonzero;fill:rgb(100%,100%,100%);fill-opacity:1;" d="M 464.5625 125.761719 C 464.5625 125.761719 466.824219 157.523438 458.066406 169.632812 C 456.046875 172.417969 456.71875 168.417969 456.71875 168.417969 C 456.71875 168.417969 462.753906 157.207031 464.5625 125.761719 "/>
<path style=" stroke:none;fill-rule:nonzero;fill:rgb(0%,40.784314%,71.764706%);fill-opacity:1;" d="M 396.566406 303.246094 C 396.566406 303.246094 432.867188 268.3125 387.933594 223.175781 C 387.933594 223.175781 390.605469 242.464844 379.257812 263.570312 C 379.257812 263.570312 364.660156 284.691406 396.566406 303.246094 "/>
<path style=" stroke:none;fill-rule:nonzero;fill:rgb(100%,100%,100%);fill-opacity:1;" d="M 395.558594 260.484375 C 395.558594 260.484375 389.6875 294.640625 393.839844 296.074219 C 397.398438 297.339844 394.609375 294.179688 394.609375 294.179688 C 394.609375 294.179688 393.550781 289.90625 395.558594 260.484375 "/>
<path style=" stroke:none;fill-rule:nonzero;fill:rgb(0%,40.784314%,71.764706%);fill-opacity:1;" d="M 398.246094 296.316406 L 401.554688 335.621094 L 393.433594 347.1875 L 394.023438 292.515625 Z M 398.246094 296.316406 "/>
<path style=" stroke:none;fill-rule:nonzero;fill:rgb(0%,40.784314%,71.764706%);fill-opacity:1;" d="M 414.246094 219.636719 C 414.246094 219.636719 449.042969 180.882812 399.15625 137.476562 C 399.15625 137.476562 403.375 157.238281 393.308594 179.875 C 393.308594 179.875 379.878906 202.746094 414.246094 219.636719 "/>
<path style=" stroke:none;fill-rule:nonzero;fill:rgb(100%,100%,100%);fill-opacity:1;" d="M 409.921875 175.507812 C 409.921875 175.507812 406.488281 211.21875 410.878906 212.414062 C 414.671875 213.464844 411.535156 210.398438 411.535156 210.398438 C 411.535156 210.398438 410.070312 206.050781 409.921875 175.507812 "/>
<path style=" stroke:none;fill-rule:nonzero;fill:rgb(0%,40.784314%,71.764706%);fill-opacity:1;" d="M 410.878906 212.417969 L 430.546875 255.222656 L 427.65625 271.890625 L 409.277344 215.027344 Z M 410.878906 212.417969 "/>
<path style=" stroke:none;fill-rule:nonzero;fill:rgb(0%,40.784314%,71.764706%);fill-opacity:1;" d="M 379.792969 87.972656 C 379.792969 87.972656 404.09375 98.191406 421.460938 114.445312 L 417.796875 103.113281 C 417.796875 103.113281 384.027344 87.703125 380.871094 81.9375 Z M 379.792969 87.972656 "/>
<path style=" stroke:none;fill-rule:nonzero;fill:rgb(0%,40.784314%,71.764706%);fill-opacity:1;" d="M 356.6875 84.875 C 356.6875 84.875 370.167969 83.203125 385.226562 90.320312 C 385.226562 90.320312 389.648438 78.347656 372.3125 67.285156 C 372.3125 67.285156 358.84375 57.238281 343.519531 66.847656 C 343.519531 66.847656 325.191406 77.09375 316.992188 73.789062 C 316.992188 73.789062 330.515625 86.636719 356.6875 84.875 "/>
<path style=" stroke:none;fill-rule:nonzero;fill:rgb(0%,40.784314%,71.764706%);fill-opacity:1;" d="M 359.46875 291.734375 C 359.46875 291.734375 361.210938 312.515625 346.644531 325.472656 C 346.644531 325.472656 338.367188 334.601562 346.09375 351.351562 C 346.09375 351.351562 352.925781 360.742188 356.046875 364.9375 C 356.046875 364.9375 388.082031 352.59375 377.929688 321.328125 C 377.929688 321.328125 369.4375 297.292969 359.46875 291.734375 "/>
<path style=" stroke:none;fill-rule:nonzero;fill:rgb(100%,100%,100%);fill-opacity:1;" d="M 363.792969 320.105469 C 363.792969 320.105469 365.582031 348.023438 359.953125 358.308594 C 358.300781 361.328125 357.449219 356.730469 357.449219 356.730469 C 357.449219 356.730469 361.285156 359.058594 363.792969 320.105469 "/>
<path style=" stroke:none;fill-rule:nonzero;fill:rgb(0%,40.784314%,71.764706%);fill-opacity:1;" d="M 356.109375 360.269531 C 356.109375 360.269531 345.097656 390.285156 348.011719 401.59375 L 354.800781 392.839844 C 354.800781 392.839844 355.054688 368.003906 359.941406 360.824219 Z M 356.109375 360.269531 "/>
<path style=" stroke:none;fill-rule:nonzero;fill:rgb(0%,40.784314%,71.764706%);fill-opacity:1;" d="M 403.558594 32.773438 C 403.558594 32.773438 411.820312 40.53125 412.941406 64.433594 C 412.941406 64.433594 409.363281 81.75 422.621094 90.25 C 422.621094 90.25 430.636719 94.460938 435.402344 101.828125 C 435.402344 101.828125 452.4375 89.03125 444.308594 65.59375 C 444.308594 65.59375 433.648438 39.746094 403.558594 32.773438 "/>
<path style=" stroke:none;fill-rule:nonzero;fill:rgb(100%,100%,100%);fill-opacity:1;" d="M 427.859375 64.9375 C 427.859375 64.9375 437.179688 91.527344 435.359375 94.042969 C 433.769531 96.222656 433.511719 93.558594 433.511719 93.558594 C 433.511719 93.558594 432.855469 81.136719 427.859375 64.9375 "/>
<path style=" stroke:none;fill-rule:nonzero;fill:rgb(0%,40.784314%,71.764706%);fill-opacity:1;" d="M 428.5 125.023438 C 428.5 125.023438 436.199219 101.933594 433.691406 97.953125 L 435.398438 96.792969 C 435.398438 96.792969 441.414062 109.171875 433.015625 135.667969 Z M 428.5 125.023438 "/>
<path style=" stroke:none;fill-rule:nonzero;fill:rgb(0%,40.784314%,71.764706%);fill-opacity:1;" d="M 303.324219 4.691406 C 303.324219 4.691406 333.035156 20.496094 342.15625 34.613281 C 342.15625 34.613281 358.882812 57.515625 384.628906 52.320312 C 384.628906 52.320312 392.957031 -3.132812 303.324219 4.691406 "/>
<path style=" stroke:none;fill-rule:nonzero;fill:rgb(100%,100%,100%);fill-opacity:1;" d="M 344.40625 21.058594 C 344.40625 21.058594 378.402344 42.027344 378.527344 45.738281 C 378.644531 48.949219 376 46.433594 376 46.433594 C 376 46.433594 364.332031 34.269531 344.40625 21.058594 "/>
<path style=" stroke:none;fill-rule:nonzero;fill:rgb(0%,40.784314%,71.764706%);fill-opacity:1;" d="M 454.261719 376.65625 C 454.261719 376.65625 441.742188 380.636719 421.257812 399.863281 C 421.257812 399.863281 399.144531 414.964844 379.007812 401.414062 C 379.007812 401.414062 358.105469 406.273438 347.234375 405.21875 C 347.234375 405.21875 348.929688 402.8125 350.257812 399.835938 C 350.257812 399.835938 370.363281 402.757812 378.066406 397.429688 C 378.066406 397.429688 394.304688 346.683594 454.261719 376.65625 "/>
<path style=" stroke:none;fill-rule:nonzero;fill:rgb(100%,100%,100%);fill-opacity:1;" d="M 425.636719 380.890625 C 425.636719 380.890625 390.710938 388.085938 386.300781 395.160156 C 384.550781 397.96875 388.417969 396.550781 388.417969 396.550781 C 388.417969 396.550781 396.8125 389.976562 425.636719 380.890625 "/>
<path style=" stroke:none;fill-rule:nonzero;fill:rgb(0%,40.784314%,71.764706%);fill-opacity:1;" d="M 485.625 282.214844 C 485.625 282.214844 475.332031 292.746094 444.289062 304.105469 C 444.289062 304.105469 415.789062 315.273438 421.433594 341.296875 C 421.433594 341.296875 418.933594 353.757812 389.089844 351.25 C 389.089844 351.25 386.320312 355.5 384.121094 360.394531 C 384.121094 360.394531 415.609375 356.242188 424.625 346.574219 C 424.625 346.574219 474.476562 376.984375 485.625 282.214844 "/>
<path style=" stroke:none;fill-rule:nonzero;fill:rgb(100%,100%,100%);fill-opacity:1;" d="M 466.589844 306.554688 C 466.589844 306.554688 435.273438 342.113281 430.578125 341.328125 C 426.507812 340.632812 432.546875 337.945312 432.546875 337.945312 C 432.546875 337.945312 450.128906 323.820312 466.589844 306.554688 "/>
<path style=" stroke:none;fill-rule:nonzero;fill:rgb(0%,40.784314%,71.764706%);fill-opacity:1;" d="M 494.667969 186.105469 C 494.667969 186.105469 479.46875 197.128906 462.539062 215.742188 C 462.539062 215.742188 441.394531 234.253906 451.34375 262.457031 C 451.34375 262.457031 427.226562 288.195312 425.28125 284.050781 C 425.28125 284.050781 417.300781 301.285156 420.78125 300.820312 C 420.78125 300.820312 438.835938 284.046875 453.414062 265.46875 C 453.414062 265.46875 506.804688 287.363281 494.667969 186.105469 "/>
<path style=" stroke:none;fill-rule:nonzero;fill:rgb(100%,100%,100%);fill-opacity:1;" d="M 482.488281 215.046875 C 482.488281 215.046875 463.429688 254.5 459.71875 257.828125 C 457.132812 260.164062 458.710938 254.859375 458.710938 254.859375 C 458.710938 254.859375 468.882812 236.394531 482.488281 215.046875 "/>
<path style=" stroke:none;fill-rule:nonzero;fill:rgb(0%,40.784314%,71.764706%);fill-opacity:1;" d="M 376.003906 46.433594 C 376.003906 46.433594 414.726562 86.605469 417.605469 110.691406 C 417.605469 110.691406 445.355469 157.277344 433.042969 226.175781 C 433.042969 226.175781 419.332031 301.875 401.796875 322.480469 C 401.796875 322.480469 355.066406 398.238281 314.414062 416.773438 L 321.921875 428.089844 C 321.921875 428.089844 378.570312 387.230469 409.222656 330.226562 C 409.222656 330.226562 438.113281 282.554688 441.746094 221.472656 C 441.746094 221.472656 450.851562 164.96875 422.90625 107.132812 C 422.90625 107.132812 418.808594 92.148438 378.53125 45.738281 Z M 376.003906 46.433594 "/>
<path style=" stroke:none;fill-rule:nonzero;fill:rgb(0%,40.784314%,71.764706%);fill-opacity:1;" d="M 158.511719 370.835938 C 158.511719 370.835938 157.710938 382.257812 149.460938 384.097656 L 148.179688 382.148438 C 148.179688 382.148438 156.234375 377.308594 156.875 369.859375 Z M 158.511719 370.835938 "/>
<path style=" stroke:none;fill-rule:nonzero;fill:rgb(0%,40.784314%,71.764706%);fill-opacity:1;" d="M 182.546875 385.394531 C 182.546875 385.394531 172.941406 374.046875 156.5625 370.835938 C 156.5625 370.835938 156.746094 357.175781 176.90625 358.125 C 176.90625 358.125 193.25 357.484375 202.234375 376.917969 C 202.234375 376.917969 213.589844 398.941406 222.253906 401.257812 C 222.253906 401.257812 204.585938 404.527344 182.546875 385.394531 "/>
<path style=" stroke:none;fill-rule:nonzero;fill:rgb(0%,40.784314%,71.764706%);fill-opacity:1;" d="M 39.214844 101.074219 C 39.214844 101.074219 41.125 113.496094 55.238281 142.15625 C 55.238281 142.15625 62.917969 163.511719 46.550781 177.601562 C 46.550781 177.601562 59.304688 208.367188 62.066406 207.691406 C 62.066406 207.691406 64.304688 225.046875 61.796875 222.871094 C 61.796875 222.871094 51.289062 204.382812 43.289062 178.601562 C 43.289062 178.601562 -5.011719 165.859375 39.214844 101.074219 "/>
<path style=" stroke:none;fill-rule:nonzero;fill:rgb(100%,100%,100%);fill-opacity:1;" d="M 35.511719 125.761719 C 35.511719 125.761719 33.257812 157.523438 42 169.632812 C 44.015625 172.417969 43.355469 168.417969 43.355469 168.417969 C 43.355469 168.417969 37.3125 157.207031 35.511719 125.761719 "/>
<path style=" stroke:none;fill-rule:nonzero;fill:rgb(0%,40.784314%,71.764706%);fill-opacity:1;" d="M 103.511719 303.246094 C 103.511719 303.246094 67.214844 268.3125 112.160156 223.175781 C 112.160156 223.175781 109.484375 242.464844 120.820312 263.570312 C 120.820312 263.570312 135.425781 284.691406 103.511719 303.246094 "/>
<path style=" stroke:none;fill-rule:nonzero;fill:rgb(100%,100%,100%);fill-opacity:1;" d="M 104.5 260.484375 C 104.5 260.484375 110.378906 294.640625 106.234375 296.074219 C 102.675781 297.339844 105.460938 294.179688 105.460938 294.179688 C 105.460938 294.179688 106.527344 289.90625 104.5 260.484375 "/>
<path style=" stroke:none;fill-rule:nonzero;fill:rgb(0%,40.784314%,71.764706%);fill-opacity:1;" d="M 101.828125 296.316406 L 98.523438 335.621094 L 106.640625 347.1875 L 106.046875 292.515625 Z M 101.828125 296.316406 "/>
<path style=" stroke:none;fill-rule:nonzero;fill:rgb(0%,40.784314%,71.764706%);fill-opacity:1;" d="M 85.820312 219.636719 C 85.820312 219.636719 51.050781 180.882812 100.925781 137.476562 C 100.925781 137.476562 96.691406 157.238281 106.777344 179.875 C 106.777344 179.875 120.207031 202.746094 85.820312 219.636719 "/>
<path style=" stroke:none;fill-rule:nonzero;fill:rgb(100%,100%,100%);fill-opacity:1;" d="M 90.164062 175.507812 C 90.164062 175.507812 93.585938 211.21875 89.203125 212.414062 C 85.402344 213.464844 88.535156 210.398438 88.535156 210.398438 C 88.535156 210.398438 90.003906 206.050781 90.164062 175.507812 "/>
<path style=" stroke:none;fill-rule:nonzero;fill:rgb(0%,40.784314%,71.764706%);fill-opacity:1;" d="M 89.203125 212.417969 L 69.53125 255.222656 L 72.421875 271.890625 L 90.785156 215.027344 Z M 89.203125 212.417969 "/>
<path style=" stroke:none;fill-rule:nonzero;fill:rgb(0%,40.784314%,71.764706%);fill-opacity:1;" d="M 120.28125 87.972656 C 120.28125 87.972656 95.984375 98.191406 78.613281 114.445312 L 82.273438 103.113281 C 82.273438 103.113281 116.046875 87.703125 119.210938 81.9375 Z M 120.28125 87.972656 "/>
<path style=" stroke:none;fill-rule:nonzero;fill:rgb(0%,40.784314%,71.764706%);fill-opacity:1;" d="M 143.386719 84.875 C 143.386719 84.875 129.90625 83.203125 114.84375 90.320312 C 114.84375 90.320312 110.429688 78.347656 127.765625 67.285156 C 127.765625 67.285156 141.230469 57.238281 156.554688 66.847656 C 156.554688 66.847656 174.875 77.09375 183.082031 73.789062 C 183.082031 73.789062 169.550781 86.636719 143.386719 84.875 "/>
<path style=" stroke:none;fill-rule:nonzero;fill:rgb(0%,40.784314%,71.764706%);fill-opacity:1;" d="M 140.601562 291.734375 C 140.601562 291.734375 138.867188 312.515625 153.425781 325.472656 C 153.425781 325.472656 161.707031 334.601562 153.980469 351.351562 C 153.980469 351.351562 147.152344 360.742188 144.035156 364.9375 C 144.035156 364.9375 111.992188 352.59375 122.148438 321.328125 C 122.148438 321.328125 130.632812 297.292969 140.601562 291.734375 "/>
<path style=" stroke:none;fill-rule:nonzero;fill:rgb(100%,100%,100%);fill-opacity:1;" d="M 136.285156 320.105469 C 136.285156 320.105469 134.488281 348.023438 140.121094 358.308594 C 141.761719 361.328125 142.625 356.730469 142.625 356.730469 C 142.625 356.730469 138.792969 359.058594 136.285156 320.105469 "/>
<path style=" stroke:none;fill-rule:nonzero;fill:rgb(0%,40.784314%,71.764706%);fill-opacity:1;" d="M 143.964844 360.269531 C 143.964844 360.269531 154.984375 390.285156 152.050781 401.59375 L 145.273438 392.839844 C 145.273438 392.839844 145.023438 368.003906 140.136719 360.824219 Z M 143.964844 360.269531 "/>
<path style=" stroke:none;fill-rule:nonzero;fill:rgb(0%,40.784314%,71.764706%);fill-opacity:1;" d="M 96.519531 32.773438 C 96.519531 32.773438 88.253906 40.53125 87.128906 64.433594 C 87.128906 64.433594 90.691406 81.75 77.453125 90.25 C 77.453125 90.25 69.464844 94.460938 64.683594 101.828125 C 64.683594 101.828125 47.636719 89.03125 55.761719 65.59375 C 55.761719 65.59375 66.425781 39.746094 96.519531 32.773438 "/>
<path style=" stroke:none;fill-rule:nonzero;fill:rgb(100%,100%,100%);fill-opacity:1;" d="M 72.203125 64.9375 C 72.203125 64.9375 62.902344 91.527344 64.722656 94.042969 C 66.289062 96.222656 66.566406 93.558594 66.566406 93.558594 C 66.566406 93.558594 67.226562 81.136719 72.203125 64.9375 "/>
<path style=" stroke:none;fill-rule:nonzero;fill:rgb(0%,40.784314%,71.764706%);fill-opacity:1;" d="M 71.574219 125.023438 C 71.574219 125.023438 63.875 101.933594 66.371094 97.953125 L 64.683594 96.792969 C 64.683594 96.792969 58.65625 109.171875 67.050781 135.667969 Z M 71.574219 125.023438 "/>
<path style=" stroke:none;fill-rule:nonzero;fill:rgb(0%,40.784314%,71.764706%);fill-opacity:1;" d="M 196.75 4.691406 C 196.75 4.691406 167.058594 20.496094 157.910156 34.613281 C 157.910156 34.613281 141.1875 57.515625 115.453125 52.320312 C 115.453125 52.320312 107.113281 -3.132812 196.75 4.691406 "/>
<path style=" stroke:none;fill-rule:nonzero;fill:rgb(100%,100%,100%);fill-opacity:1;" d="M 155.667969 21.058594 C 155.667969 21.058594 121.679688 42.027344 121.539062 45.738281 C 121.421875 48.949219 124.0625 46.433594 124.0625 46.433594 C 124.0625 46.433594 135.734375 34.269531 155.667969 21.058594 "/>
<path style=" stroke:none;fill-rule:nonzero;fill:rgb(0%,40.784314%,71.764706%);fill-opacity:1;" d="M 45.820312 376.65625 C 45.820312 376.65625 58.339844 380.636719 78.820312 399.863281 C 78.820312 399.863281 100.925781 414.964844 121.0625 401.414062 C 121.0625 401.414062 141.980469 406.273438 152.847656 405.21875 C 152.847656 405.21875 151.140625 402.8125 149.808594 399.835938 C 149.808594 399.835938 129.714844 402.757812 122.011719 397.429688 C 122.011719 397.429688 105.777344 346.683594 45.820312 376.65625 "/>
<path style=" stroke:none;fill-rule:nonzero;fill:rgb(100%,100%,100%);fill-opacity:1;" d="M 74.433594 380.890625 C 74.433594 380.890625 109.355469 388.085938 113.777344 395.160156 C 115.519531 397.96875 111.648438 396.550781 111.648438 396.550781 C 111.648438 396.550781 103.277344 389.976562 74.433594 380.890625 "/>
<path style=" stroke:none;fill-rule:nonzero;fill:rgb(0%,40.784314%,71.764706%);fill-opacity:1;" d="M 14.457031 282.214844 C 14.457031 282.214844 24.738281 292.746094 55.785156 304.105469 C 55.785156 304.105469 84.289062 315.273438 78.636719 341.296875 C 78.636719 341.296875 81.140625 353.757812 111 351.25 C 111 351.25 113.75 355.5 115.960938 360.394531 C 115.960938 360.394531 84.464844 356.242188 75.453125 346.574219 C 75.453125 346.574219 25.589844 376.984375 14.457031 282.214844 "/>
<path style=" stroke:none;fill-rule:nonzero;fill:rgb(100%,100%,100%);fill-opacity:1;" d="M 33.480469 306.554688 C 33.480469 306.554688 64.800781 342.113281 69.496094 341.328125 C 73.558594 340.632812 67.523438 337.945312 67.523438 337.945312 C 67.523438 337.945312 49.953125 323.820312 33.480469 306.554688 "/>
<path style=" stroke:none;fill-rule:nonzero;fill:rgb(0%,40.784314%,71.764706%);fill-opacity:1;" d="M 5.40625 186.105469 C 5.40625 186.105469 20.613281 197.128906 37.535156 215.742188 C 37.535156 215.742188 58.667969 234.253906 48.730469 262.457031 C 48.730469 262.457031 72.851562 288.195312 74.789062 284.050781 C 74.789062 284.050781 82.78125 301.285156 79.304688 300.820312 C 79.304688 300.820312 61.246094 284.046875 46.664062 265.46875 C 46.664062 265.46875 -6.730469 287.363281 5.40625 186.105469 "/>
<path style=" stroke:none;fill-rule:nonzero;fill:rgb(100%,100%,100%);fill-opacity:1;" d="M 17.589844 215.046875 C 17.589844 215.046875 36.644531 254.5 40.355469 257.828125 C 42.941406 260.164062 41.359375 254.859375 41.359375 254.859375 C 41.359375 254.859375 31.199219 236.394531 17.589844 215.046875 "/>
<path style=" stroke:none;fill-rule:nonzero;fill:rgb(0%,40.784314%,71.764706%);fill-opacity:1;" d="M 124.0625 46.433594 C 124.0625 46.433594 85.363281 86.605469 82.46875 110.691406 C 82.46875 110.691406 54.730469 157.277344 67.03125 226.175781 C 67.03125 226.175781 80.738281 301.875 98.28125 322.480469 C 98.28125 322.480469 145.007812 398.238281 185.652344 416.773438 L 178.164062 428.089844 C 178.164062 428.089844 121.5 387.230469 90.855469 330.226562 C 90.855469 330.226562 61.953125 282.554688 58.339844 221.472656 C 58.339844 221.472656 49.230469 164.96875 77.171875 107.132812 C 77.171875 107.132812 81.269531 92.148438 121.539062 45.738281 Z M 124.0625 46.433594 "/>
<path style=" stroke:none;fill-rule:nonzero;fill:rgb(0%,40.784314%,71.764706%);fill-opacity:1;" d="M 219.0625 33.738281 C 219.0625 38.140625 215.902344 41.714844 209.566406 44.449219 C 206.476562 45.746094 203.402344 47.058594 200.371094 48.347656 C 196.984375 49.902344 194.265625 51.496094 192.234375 53.144531 C 193.78125 52.367188 195.488281 51.957031 197.21875 51.949219 C 199.066406 51.949219 200.953125 52.3125 202.875 53.070312 C 204.808594 53.8125 206.761719 54.59375 208.816406 55.382812 C 209.722656 55.382812 210.601562 54.957031 211.46875 54.105469 C 212.359375 53.246094 213.257812 52.34375 214.210938 51.417969 L 214.582031 51.710938 C 214.582031 52.761719 213.410156 54.285156 211.074219 56.316406 C 208.328125 58.703125 205.574219 59.878906 202.839844 59.878906 C 201.148438 59.878906 198.722656 58.980469 195.582031 57.164062 C 194.042969 56.273438 192.832031 55.839844 191.984375 55.839844 C 190.847656 55.839844 189.789062 56.515625 188.808594 57.855469 C 187.835938 59.203125 187.28125 59.878906 187.132812 59.878906 C 186.921875 59.878906 186.78125 59.816406 186.675781 59.695312 C 186.585938 59.566406 186.535156 59.480469 186.535156 59.429688 C 186.621094 58.933594 186.726562 58.523438 186.835938 58.230469 C 187.132812 57.378906 187.570312 56.453125 188.179688 55.457031 C 188.78125 54.449219 189.710938 53.4375 190.945312 52.378906 C 191.738281 51.675781 194.046875 50.027344 197.898438 47.417969 C 202.601562 44.269531 205.976562 41.449219 208.082031 38.9375 C 210.421875 36.183594 211.585938 33.394531 211.585938 30.527344 C 211.585938 28.1875 210.371094 27.015625 207.921875 27.015625 C 205.574219 27.015625 203.019531 28.0625 200.222656 30.160156 C 198.527344 31.398438 197.210938 32.742188 196.292969 34.167969 C 195.371094 35.585938 194.914062 36.769531 194.914062 37.730469 C 194.914062 39.070312 195.445312 39.746094 196.5625 39.746094 C 197.898438 39.746094 199.167969 39.121094 200.371094 37.859375 C 201.511719 36.460938 202.699219 35.046875 203.886719 33.605469 C 204.226562 33.605469 204.40625 33.847656 204.40625 34.347656 C 204.40625 35.046875 203.589844 36.261719 202.019531 38.015625 C 200.128906 40.117188 198.234375 41.15625 196.398438 41.15625 C 194.324219 41.15625 193.265625 40.117188 193.265625 38.015625 C 193.265625 35.421875 194.785156 32.773438 197.832031 30.074219 C 201.21875 27.09375 204.976562 25.585938 209.125 25.585938 C 212.113281 25.585938 214.53125 26.351562 216.335938 27.871094 C 218.160156 29.394531 219.0625 31.359375 219.0625 33.738281 "/>
<path style=" stroke:none;fill-rule:nonzero;fill:rgb(0%,40.784314%,71.764706%);fill-opacity:1;" d="M 248.480469 31.636719 C 248.480469 28.640625 247.222656 27.164062 244.714844 27.164062 C 243.273438 27.164062 241.75 27.804688 240.148438 29.105469 C 238.570312 30.402344 237.019531 32.277344 235.527344 34.699219 C 232.34375 39.933594 229.921875 44.308594 228.3125 47.820312 C 226.683594 51.328125 225.886719 53.730469 225.886719 55.023438 C 225.886719 57.265625 226.996094 58.394531 229.234375 58.394531 C 232.125 58.394531 235.449219 55.992188 239.175781 51.21875 C 242.246094 47.328125 244.601562 43.351562 246.363281 39.257812 C 247.761719 35.972656 248.480469 33.4375 248.480469 31.636719 M 251.75 33.507812 C 251.75 36.148438 250.894531 39.085938 249.183594 42.320312 C 247.453125 45.558594 244.894531 48.925781 241.511719 52.417969 C 236.671875 57.394531 232.355469 59.878906 228.566406 59.878906 C 226.382812 59.878906 224.46875 58.867188 222.839844 56.820312 C 221.222656 54.777344 220.417969 52.335938 220.417969 49.503906 C 220.417969 43.417969 224.117188 37.421875 231.550781 31.492188 C 236.429688 27.554688 240.800781 25.585938 244.582031 25.585938 C 246.773438 25.585938 248.519531 26.292969 249.816406 27.675781 C 251.09375 29.074219 251.75 31.011719 251.75 33.507812 "/>
<path style=" stroke:none;fill-rule:nonzero;fill:rgb(0%,40.784314%,71.764706%);fill-opacity:1;" d="M 279.953125 31.636719 C 279.953125 28.640625 278.707031 27.164062 276.203125 27.164062 C 274.765625 27.164062 273.25 27.804688 271.644531 29.105469 C 270.054688 30.402344 268.527344 32.277344 267 34.699219 C 263.820312 39.933594 261.410156 44.308594 259.808594 47.820312 C 258.175781 51.328125 257.375 53.730469 257.375 55.023438 C 257.375 57.265625 258.492188 58.394531 260.726562 58.394531 C 263.632812 58.394531 266.933594 55.992188 270.675781 51.21875 C 273.714844 47.328125 276.113281 43.351562 277.851562 39.257812 C 279.257812 35.972656 279.953125 33.4375 279.953125 31.636719 M 283.246094 33.507812 C 283.246094 36.148438 282.382812 39.085938 280.65625 42.320312 C 278.9375 45.558594 276.382812 48.925781 273.003906 52.417969 C 268.160156 57.394531 263.855469 59.878906 260.042969 59.878906 C 257.855469 59.878906 255.96875 58.867188 254.339844 56.820312 C 252.710938 54.777344 251.898438 52.335938 251.898438 49.503906 C 251.898438 43.417969 255.617188 37.421875 263.042969 31.492188 C 267.929688 27.554688 272.28125 25.585938 276.066406 25.585938 C 278.273438 25.585938 280.003906 26.292969 281.304688 27.675781 C 282.589844 29.074219 283.246094 31.011719 283.246094 33.507812 "/>
<path style=" stroke:none;fill-rule:nonzero;fill:rgb(0%,40.784314%,71.764706%);fill-opacity:1;" d="M 313.539062 33.738281 C 313.539062 38.140625 310.359375 41.714844 304.039062 44.449219 C 300.9375 45.746094 297.875 47.058594 294.832031 48.347656 C 291.445312 49.902344 288.734375 51.496094 286.699219 53.144531 C 288.246094 52.367188 289.949219 51.960938 291.679688 51.949219 C 293.550781 51.949219 295.425781 52.3125 297.34375 53.070312 C 299.269531 53.8125 301.242188 54.59375 303.292969 55.382812 C 304.183594 55.382812 305.0625 54.957031 305.957031 54.105469 C 306.816406 53.246094 307.722656 52.34375 308.671875 51.417969 L 309.066406 51.710938 C 309.066406 52.761719 307.871094 54.285156 305.527344 56.316406 C 302.785156 58.703125 300.046875 59.878906 297.308594 59.878906 C 295.617188 59.878906 293.199219 58.980469 290.066406 57.164062 C 288.503906 56.273438 287.320312 55.839844 286.460938 55.839844 C 285.324219 55.839844 284.257812 56.515625 283.28125 57.855469 C 282.304688 59.203125 281.746094 59.878906 281.597656 59.878906 C 281.429688 59.890625 281.261719 59.820312 281.144531 59.695312 C 281.046875 59.566406 281.015625 59.480469 281.015625 59.429688 C 281.109375 58.933594 281.210938 58.523438 281.304688 58.230469 C 281.65625 57.261719 282.109375 56.332031 282.65625 55.457031 C 283.246094 54.449219 284.164062 53.4375 285.417969 52.378906 C 286.21875 51.675781 288.53125 50.027344 292.363281 47.417969 C 297.074219 44.269531 300.457031 41.449219 302.550781 38.9375 C 304.882812 36.183594 306.058594 33.394531 306.058594 30.527344 C 306.058594 28.1875 304.84375 27.015625 302.390625 27.015625 C 300.046875 27.015625 297.484375 28.0625 294.699219 30.160156 C 293 31.398438 291.679688 32.742188 290.761719 34.167969 C 289.84375 35.585938 289.386719 36.769531 289.386719 37.730469 C 289.386719 39.070312 289.925781 39.746094 291.015625 39.746094 C 292.363281 39.746094 293.632812 39.121094 294.832031 37.859375 C 295.988281 36.460938 297.148438 35.046875 298.351562 33.605469 C 298.703125 33.605469 298.886719 33.847656 298.886719 34.347656 C 298.886719 35.046875 298.078125 36.261719 296.476562 38.015625 C 294.59375 40.117188 292.710938 41.15625 290.878906 41.15625 C 288.777344 41.15625 287.726562 40.117188 287.726562 38.015625 C 287.726562 35.421875 289.261719 32.773438 292.3125 30.074219 C 295.679688 27.09375 299.445312 25.585938 303.59375 25.585938 C 306.574219 25.585938 308.984375 26.351562 310.808594 27.871094 C 312.628906 29.394531 313.539062 31.359375 313.539062 33.738281 "/>
<path style=" stroke:none;fill-rule:nonzero;fill:rgb(100%,100%,100%);fill-opacity:1;" d="M 205.3125 446.195312 L 194.992188 474.605469 L 211.785156 474.605469 L 213.589844 469.644531 L 246.277344 469.644531 L 255.070312 446.195312 Z M 205.3125 446.195312 "/>
<path style=" stroke:none;fill-rule:nonzero;fill:rgb(100%,100%,100%);fill-opacity:1;" d="M 296.765625 445.917969 L 267.839844 445.917969 C 258.964844 445.917969 249.894531 451.8125 247.144531 459.339844 C 245.789062 463.105469 246.160156 466.777344 248.191406 469.71875 C 250.480469 472.972656 254.621094 474.839844 259.519531 474.839844 L 295.285156 474.839844 L 300.144531 461.453125 L 264.515625 461.453125 C 263.128906 461.453125 264.382812 459.019531 266.820312 459.019531 L 301.019531 459.019531 L 305.792969 445.917969 Z M 296.765625 445.917969 "/>
<path style=" stroke:none;fill-rule:nonzero;fill:rgb(0%,40.784314%,71.764706%);fill-opacity:1;" d="M 209.683594 471.59375 L 199.304688 471.59375 L 207.445312 449.203125 L 250.777344 449.203125 L 248.171875 456.351562 L 215.21875 456.351562 L 214.015625 459.652344 L 246.683594 459.652344 L 244.160156 466.617188 L 211.492188 466.617188 Z M 209.683594 471.59375 "/>
<path style=" stroke:none;fill-rule:nonzero;fill:rgb(0%,40.784314%,71.764706%);fill-opacity:1;" d="M 259.519531 471.820312 C 251.957031 471.820312 247.671875 466.710938 249.976562 460.367188 C 252.277344 454.066406 260.269531 448.941406 267.839844 448.941406 L 301.484375 448.941406 L 298.917969 456 L 266.820312 456 C 264 456 261.046875 457.890625 260.203125 460.230469 C 259.355469 462.570312 260.953125 464.480469 263.738281 464.480469 L 295.847656 464.480469 L 293.164062 471.820312 Z M 259.519531 471.820312 "/>
<path style=" stroke:none;fill-rule:nonzero;fill:rgb(100%,100%,100%);fill-opacity:1;" d="M 158.34375 422.757812 C 157.46875 425.152344 156.597656 427.546875 155.734375 429.949219 C 155.527344 430.207031 154.890625 430.523438 154.394531 430.523438 L 140.183594 430.523438 C 141.519531 426.839844 142.136719 425.144531 143.007812 422.757812 Z M 127.085938 410.480469 L 117.527344 436.773438 L 125.167969 446.78125 L 154.960938 446.78125 C 163.167969 446.78125 171.136719 441.925781 173.480469 435.503906 L 178.433594 421.914062 C 179.628906 418.5625 179.222656 415.042969 177.28125 412.273438 C 174.917969 408.894531 170.65625 406.972656 165.574219 406.972656 L 137.921875 406.972656 L 128.367188 406.960938 Z M 127.085938 410.480469 "/>
<path style=" stroke:none;fill-rule:nonzero;fill:rgb(100%,100%,100%);fill-opacity:1;" d="M 322.742188 407.445312 L 290.71875 407.445312 C 282.515625 407.445312 274.558594 412.316406 272.242188 418.738281 L 267.570312 431.527344 C 266.324219 434.949219 266.757812 438.582031 268.769531 441.4375 C 271.140625 444.832031 275.367188 446.78125 280.316406 446.78125 L 308.535156 446.78125 L 319.546875 439.816406 L 327.1875 418.882812 L 326.234375 418.882812 C 326.636719 417.722656 330.351562 407.445312 330.351562 407.445312 Z M 322.742188 407.445312 "/>
<path style=" stroke:none;fill-rule:nonzero;fill:rgb(100%,100%,100%);fill-opacity:1;" d="M 374.925781 407.445312 L 361.324219 407.445312 C 361.324219 407.445312 353.121094 430.023438 352.972656 430.414062 C 352.75 430.660156 352.148438 431 351.652344 431 L 338.882812 431 C 340.542969 426.429688 347.4375 407.445312 347.4375 407.445312 L 326.550781 407.445312 L 317.613281 432.085938 C 316.386719 435.488281 316.808594 439.082031 318.816406 441.941406 C 321.179688 445.335938 325.394531 447.265625 330.382812 447.265625 L 353.667969 447.265625 C 361.742188 447.265625 369.921875 442.210938 372.257812 435.734375 L 382.542969 407.445312 Z M 374.925781 407.445312 "/>
<path style=" stroke:none;fill-rule:nonzero;fill:rgb(100%,100%,100%);fill-opacity:1;" d="M 273.496094 407.445312 L 229.5 407.445312 L 218.539062 437.613281 L 227.054688 446.308594 L 267.441406 446.308594 L 273.144531 430.691406 L 272.65625 430.691406 L 277.039062 418.625 L 277.027344 418.625 C 277.425781 417.519531 281.105469 407.445312 281.105469 407.445312 Z M 273.496094 407.445312 "/>
<path style=" stroke:none;fill-rule:nonzero;fill:rgb(100%,100%,100%);fill-opacity:1;" d="M 193.933594 406.71875 C 185.859375 406.71875 177.683594 411.785156 175.316406 418.25 L 165.042969 446.535156 L 185.429688 446.535156 C 185.429688 446.535156 188.550781 437.953125 189.839844 434.390625 L 202.441406 434.390625 C 201.574219 436.8125 198.035156 446.535156 198.035156 446.535156 L 219.089844 446.535156 L 228.046875 421.914062 C 229.277344 418.496094 228.84375 414.910156 226.859375 412.054688 C 224.488281 408.660156 220.269531 406.71875 215.289062 406.71875 Z M 193.933594 406.71875 "/>
<path style=" stroke:none;fill-rule:nonzero;fill:rgb(0%,40.784314%,71.764706%);fill-opacity:1;" d="M 160.667969 431.988281 C 159.898438 434.128906 157.078125 435.867188 154.394531 435.867188 L 132.582031 435.867188 L 139.273438 417.410156 L 161.097656 417.410156 C 163.789062 417.410156 165.332031 419.15625 164.550781 421.308594 Z M 165.574219 412.316406 L 132.101562 412.316406 L 123.523438 435.859375 L 127.804688 441.441406 L 154.964844 441.441406 C 160.855469 441.441406 166.886719 437.964844 168.476562 433.683594 L 173.417969 420.074219 C 174.976562 415.789062 171.460938 412.316406 165.574219 412.316406 "/>
<path style=" stroke:none;fill-rule:nonzero;fill:rgb(0%,40.784314%,71.764706%);fill-opacity:1;" d="M 319.550781 424.210938 L 292.585938 424.210938 L 290.671875 429.484375 L 308.738281 429.484375 L 306.269531 436.273438 L 285.429688 436.273438 C 282.730469 436.273438 281.183594 434.597656 281.953125 432.449219 L 285.835938 421.777344 C 286.632812 419.628906 289.414062 417.882812 292.101562 417.882812 L 320.894531 417.882812 L 322.746094 412.785156 L 290.71875 412.785156 C 284.839844 412.785156 278.792969 416.273438 277.226562 420.578125 L 272.5625 433.355469 C 271.011719 437.632812 274.417969 441.441406 280.320312 441.441406 L 306.996094 441.441406 L 315.175781 436.273438 Z M 319.550781 424.210938 "/>
<path style=" stroke:none;fill-rule:nonzero;fill:rgb(0%,40.784314%,71.764706%);fill-opacity:1;" d="M 367.253906 433.90625 C 365.707031 438.207031 359.578125 441.925781 353.667969 441.925781 L 330.382812 441.925781 C 324.472656 441.925781 321.054688 438.207031 322.621094 433.90625 L 330.3125 412.785156 L 339.824219 412.785156 L 332.6875 432.449219 C 331.90625 434.597656 333.449219 436.34375 336.128906 436.34375 L 351.652344 436.34375 C 354.3125 436.34375 357.125 434.597656 357.914062 432.449219 L 365.054688 412.785156 L 374.929688 412.785156 Z M 367.253906 433.90625 "/>
<path style=" stroke:none;fill-rule:nonzero;fill:rgb(0%,40.784314%,71.764706%);fill-opacity:1;" d="M 233.226562 412.789062 L 273.496094 412.789062 L 271.722656 417.628906 L 240.984375 417.628906 L 238.691406 423.972656 L 269.417969 423.972656 L 267.457031 429.308594 L 236.738281 429.308594 L 234.308594 436.027344 L 265.515625 436.027344 L 263.730469 440.953125 L 229.296875 440.953125 L 224.703125 436.273438 Z M 233.226562 412.789062 "/>
<path style=" stroke:none;fill-rule:nonzero;fill:rgb(0%,40.784314%,71.764706%);fill-opacity:1;" d="M 187.871094 424.210938 L 188.851562 421.53125 C 189.632812 419.386719 192.632812 417.144531 195.296875 417.144531 L 209.554688 417.144531 C 212.234375 417.144531 213.589844 419.386719 212.789062 421.53125 L 211.824219 424.210938 Z M 215.289062 412.054688 L 193.933594 412.054688 C 188.023438 412.054688 181.890625 415.789062 180.34375 420.070312 L 172.675781 441.191406 L 181.699219 441.191406 L 186.105469 429.078125 L 210.054688 429.078125 L 205.644531 441.191406 L 215.355469 441.191406 L 223.027344 420.070312 C 224.589844 415.789062 221.171875 412.054688 215.289062 412.054688 "/>
<path style=" stroke:none;fill-rule:nonzero;fill:rgb(83.529412%,84.705882%,86.666667%);fill-opacity:1;" d="M 250.8125 80.925781 C 294.96875 80.925781 339.105469 112.765625 383.25 112.765625 C 377.417969 223.894531 387.898438 286.203125 250.8125 399.699219 C 113.75 286.203125 124.207031 223.894531 118.382812 112.765625 C 162.515625 112.765625 206.671875 80.925781 250.8125 80.925781 "/>
<path style=" stroke:none;fill-rule:nonzero;fill:rgb(100%,100%,100%);fill-opacity:1;" d="M 250.8125 90.414062 C 291.605469 90.414062 332.421875 119.851562 373.230469 119.851562 C 367.859375 222.582031 377.527344 280.183594 250.8125 385.109375 C 124.109375 280.183594 133.761719 222.582031 128.390625 119.851562 C 169.195312 119.851562 210.003906 90.414062 250.8125 90.414062 "/>
<path style=" stroke:none;fill-rule:nonzero;fill:rgb(62.745098%,82.352941%,94.901961%);fill-opacity:1;" d="M 250.8125 95.015625 C 290.339844 95.015625 329.878906 123.523438 369.421875 123.523438 C 364.207031 223.0625 373.570312 278.863281 250.8125 380.527344 C 128.046875 278.863281 137.425781 223.0625 132.207031 123.523438 C 171.746094 123.523438 211.277344 95.015625 250.8125 95.015625 "/>
<path style=" stroke:none;fill-rule:nonzero;fill:rgb(13.72549%,9.803922%,8.627451%);fill-opacity:1;" d="M 297.835938 239.972656 C 273.882812 263.90625 237.5625 253.699219 224.242188 232.019531 C 215.300781 217.496094 215.839844 202.660156 221.992188 192.898438 C 228.113281 183.144531 236.488281 177.65625 252.035156 176.3125 C 271.488281 174.613281 288.125 193.574219 279.5625 213.964844 C 271.027344 234.359375 245.6875 233.832031 232.152344 220.003906 C 235.398438 242.320312 265.511719 260.789062 297.835938 239.972656 M 159.429688 220.003906 C 161.308594 257.265625 185.089844 277.847656 210.105469 299.964844 C 231.96875 319.316406 237.191406 339.988281 242.246094 361.285156 C 247.929688 340.304688 249.519531 318.167969 241.003906 302.890625 C 267.578125 318.992188 300.105469 314.921875 325.996094 299.445312 C 312.683594 300.152344 294.105469 300.132812 283.046875 294.902344 C 335.710938 284.050781 339.195312 245.371094 356.339844 208.578125 C 371.765625 175.398438 405.328125 176.78125 428.519531 177.40625 C 391.847656 158.839844 349.5 161.570312 326.539062 195.304688 C 338.140625 171.160156 357.488281 166.359375 380.722656 158.296875 C 409.027344 148.476562 424.808594 103.953125 419.441406 71.441406 C 406.3125 108.214844 391.148438 122.609375 358.402344 135.6875 C 366.429688 129.082031 369.957031 110.992188 359.824219 97.859375 C 359.167969 109.496094 353.429688 119.957031 343.261719 128.175781 C 322.164062 145.160156 317.746094 151.800781 315.96875 180.328125 C 307.941406 133.425781 249.214844 118.550781 210.996094 137.804688 C 213.304688 127.382812 202.941406 112.21875 193.171875 105.761719 C 195.113281 121.539062 192.71875 136.425781 181.039062 152.390625 C 166.15625 172.71875 158.175781 194.515625 159.429688 220.003906 "/>
<path style=" stroke:none;fill-rule:nonzero;fill:rgb(13.72549%,9.803922%,8.627451%);fill-opacity:1;" d="M 159.613281 213.050781 C 158.007812 172.046875 129.191406 168.585938 105.734375 159.054688 C 75.648438 146.808594 61.257812 103.953125 66.652344 71.445312 C 79.769531 108.21875 94.925781 122.609375 127.660156 135.6875 C 119.636719 129.082031 116.144531 110.992188 126.265625 97.863281 C 126.910156 109.496094 132.628906 119.957031 142.835938 128.175781 C 163.886719 145.160156 177.710938 159.769531 159.613281 213.050781 "/>
<path style=" stroke:none;fill-rule:nonzero;fill:rgb(95.294118%,59.215686%,0%);fill-opacity:1;" d="M 378.023438 152.691406 C 397.710938 144.4375 412.304688 115.027344 415.433594 91.523438 C 415.433594 91.523438 404.429688 121.988281 373.367188 134.164062 C 342.316406 146.34375 333.320312 162.277344 325.285156 189.933594 C 336.296875 164.515625 358.316406 160.929688 378.023438 152.691406 "/>
<path style=" stroke:none;fill-rule:nonzero;fill:rgb(95.294118%,59.215686%,0%);fill-opacity:1;" d="M 108.085938 152.691406 C 88.363281 144.4375 73.769531 115.027344 70.648438 91.523438 C 70.648438 91.523438 81.660156 121.988281 112.703125 134.164062 C 143.765625 146.34375 152.757812 162.277344 160.785156 189.933594 C 149.761719 164.515625 127.761719 160.929688 108.085938 152.691406 "/>
<path style=" stroke:none;fill-rule:nonzero;fill:rgb(95.294118%,59.215686%,0%);fill-opacity:1;" d="M 347.054688 141.015625 C 356.929688 133.570312 362.726562 119.355469 360.980469 109.257812 C 360.980469 109.257812 359.320312 123.820312 343.589844 135.203125 C 327.878906 146.605469 325.171875 154.90625 324.761719 167.667969 C 327.199219 155.167969 337.132812 148.433594 347.054688 141.015625 "/>
<path style=" stroke:none;fill-rule:nonzero;fill:rgb(95.294118%,59.215686%,0%);fill-opacity:1;" d="M 139.035156 141.015625 C 129.125 133.570312 123.363281 119.355469 125.0625 109.257812 C 125.0625 109.257812 126.757812 123.820312 142.464844 135.203125 C 158.203125 146.605469 160.917969 154.90625 161.308594 167.667969 C 158.859375 155.167969 148.90625 148.433594 139.035156 141.015625 "/>
<path style=" stroke:none;fill-rule:nonzero;fill:rgb(95.294118%,59.215686%,0%);fill-opacity:1;" d="M 312.546875 192.898438 C 309.898438 142.679688 249.140625 122.214844 204.878906 147.0625 C 204.878906 147.0625 210.046875 131.078125 198.074219 116.429688 C 200.371094 132.695312 196.246094 142.15625 182.601562 161.285156 C 169.53125 179.574219 161.308594 206.203125 168.21875 234.199219 C 175.136719 262.191406 198.710938 281.300781 209.273438 290.09375 C 219.867188 298.894531 235.566406 312.28125 241.628906 340.074219 C 242.703125 310.730469 235.984375 298.871094 220.90625 283.121094 C 262.523438 320.140625 306.328125 303.664062 306.328125 303.664062 C 277.890625 304.53125 261.835938 294.316406 256.871094 289.175781 C 271.011719 294.234375 295.316406 286.859375 307.835938 277.929688 C 330.597656 260.914062 340.054688 229.730469 348.117188 210.246094 C 355.1875 193.195312 374.5625 169.941406 408.683594 174.0625 C 371.375 162.75 337.339844 179.324219 321.378906 213 C 306.378906 244.578125 293.082031 255.0625 272.765625 258.800781 C 252.472656 262.527344 229.066406 251.390625 217.78125 234.777344 C 220.007812 248.121094 239.261719 273.9375 273.496094 273.390625 C 236.570312 280.695312 213.0625 251.054688 206.929688 233.375 C 197.207031 199.507812 214.875 167.261719 251.410156 162.246094 C 243.15625 164.855469 230.785156 172.238281 226.917969 180.597656 C 232.546875 174.945312 246.375 168.882812 260.054688 171.429688 C 273.765625 173.972656 287.140625 184.5 287.175781 204.933594 C 287.222656 225.347656 263 243.644531 240.984375 229.816406 C 246.492188 240.128906 266.15625 246.585938 281.695312 241.574219 C 297.226562 236.585938 313.992188 220.003906 312.546875 192.898438 "/>
</g>
</svg>
