<?xml version="1.0" encoding="UTF-8"?>
<svg xmlns="http://www.w3.org/2000/svg" xmlns:xlink="http://www.w3.org/1999/xlink" width="602px" height="924px" viewBox="0 0 301 462" version="1.1">
<g id="surface1">
<path style=" stroke:none;fill-rule:nonzero;fill:rgb(100%,91.372549%,0%);fill-opacity:1;" d="M 288.863281 209.207031 C 248.796875 184.792969 201.019531 169.941406 176.105469 163.261719 L 169.0625 161.375 C 195.945312 151.09375 210.085938 105.496094 185.550781 83.5625 C 189.738281 77.386719 189.917969 70.078125 188.894531 63.605469 C 196.796875 50.953125 189.042969 42.042969 178.960938 40.472656 C 173.488281 30.097656 140.070312 28.558594 150.421875 38.695312 C 128.144531 49.964844 114.878906 66.472656 113.011719 70.085938 C 99.328125 44.765625 62.804688 21.464844 26.140625 6.246094 C 24.632812 21.90625 28.039062 34.3125 47.6875 54.570312 C 48.949219 74.046875 61.746094 65.296875 77.289062 84.753906 C 99.527344 122.167969 93.511719 148.035156 130.042969 162.054688 L 122.347656 164.175781 C 92.832031 172.289062 49.902344 186.6875 12.957031 209.207031 L 5.078125 214.003906 L 5.078125 322.171875 C 5.078125 366.859375 30.433594 404.175781 78.40625 430.0625 C 112.8125 448.632812 146.613281 454.738281 148.035156 454.988281 L 150.90625 455.5 L 153.785156 454.988281 C 155.203125 454.734375 189.011719 448.617188 223.410156 430.058594 C 271.378906 404.167969 296.730469 366.859375 296.730469 322.171875 L 296.730469 214.007812 Z M 288.863281 209.207031 "/>
<path style=" stroke:none;fill-rule:nonzero;fill:rgb(100%,100%,100%);fill-opacity:1;" d="M 30.65625 228.429688 L 30.65625 322.171875 C 30.65625 401.59375 136.496094 426.472656 150.910156 429.488281 C 165.320312 426.472656 271.15625 401.59375 271.15625 322.171875 L 271.15625 228.429688 C 222.730469 200.242188 162.179688 185.910156 150.910156 183.398438 C 139.636719 185.910156 79.085938 200.242188 30.65625 228.429688 "/>
<path style=" stroke:none;fill-rule:nonzero;fill:rgb(62.352941%,16.078431%,26.27451%);fill-opacity:1;" d="M 158.402344 192.132812 L 143.414062 192.132812 L 138.023438 292.539062 L 37.617188 297.9375 L 37.617188 312.917969 L 138.023438 318.308594 L 163.792969 292.539062 Z M 158.402344 192.132812 "/>
<path style=" stroke:none;fill-rule:nonzero;fill:rgb(0%,49.019608%,43.529412%);fill-opacity:1;" d="M 163.792969 292.539062 L 138.023438 318.304688 L 143.414062 418.714844 L 158.402344 418.714844 L 163.792969 318.304688 L 264.199219 312.914062 L 264.199219 297.933594 Z M 163.792969 292.539062 "/>
<path style=" stroke:none;fill-rule:nonzero;fill:rgb(0%,18.431373%,42.745098%);fill-opacity:1;" d="M 77.171875 242.671875 L 102.925781 242.671875 C 107.679688 242.671875 112.171875 242.671875 112.171875 256.046875 C 112.171875 269.421875 107.679688 269.421875 102.925781 269.421875 L 77.171875 269.421875 Z M 66.183594 280.40625 L 102.925781 280.40625 C 107.929688 280.40625 123.15625 280.40625 123.15625 256.046875 C 123.15625 231.683594 107.929688 231.683594 102.925781 231.683594 L 66.183594 231.683594 Z M 66.183594 280.40625 "/>
<path style=" stroke:none;fill-rule:nonzero;fill:rgb(0%,18.431373%,42.745098%);fill-opacity:1;" d="M 178.660156 354.804688 C 178.660156 379.167969 193.886719 379.167969 198.886719 379.167969 L 235.632812 379.167969 L 235.632812 368.175781 L 198.886719 368.175781 C 194.136719 368.175781 189.644531 368.175781 189.644531 354.804688 C 189.644531 341.429688 194.136719 341.429688 198.886719 341.429688 L 231.972656 341.429688 L 235.632812 330.445312 L 198.886719 330.445312 C 193.886719 330.445312 178.660156 330.445312 178.660156 354.804688 "/>
<path style=" stroke:none;fill-rule:nonzero;fill:rgb(0%,18.431373%,42.745098%);fill-opacity:1;" d="M 235.632812 231.6875 L 224.644531 231.6875 L 224.644531 247.746094 L 192.792969 247.746094 L 196.457031 258.730469 L 224.644531 258.730469 L 224.644531 280.40625 L 235.632812 280.40625 Z M 235.632812 231.6875 "/>
<path style=" stroke:none;fill-rule:nonzero;fill:rgb(0%,18.431373%,42.745098%);fill-opacity:1;" d="M 189.644531 231.6875 L 178.660156 231.6875 L 178.660156 280.40625 L 189.644531 280.40625 Z M 189.644531 231.6875 "/>
<path style=" stroke:none;fill-rule:nonzero;fill:rgb(0%,18.431373%,42.745098%);fill-opacity:1;" d="M 83.980469 360.640625 L 117.058594 360.640625 L 117.058594 349.65625 L 80.316406 349.65625 Z M 83.980469 360.640625 "/>
<path style=" stroke:none;fill-rule:nonzero;fill:rgb(0%,18.431373%,42.745098%);fill-opacity:1;" d="M 77.171875 341.429688 L 119.496094 341.429688 L 119.496094 330.441406 L 66.183594 330.441406 L 66.183594 379.164062 L 77.171875 379.164062 Z M 77.171875 341.429688 "/>
<path style=" stroke:none;fill-rule:nonzero;fill:rgb(0%,18.431373%,42.745098%);fill-opacity:1;" d="M 271.15625 322.171875 C 271.15625 401.59375 165.320312 426.472656 150.910156 429.488281 C 136.496094 426.472656 30.65625 401.59375 30.65625 322.171875 L 30.65625 228.429688 C 79.085938 200.242188 139.636719 185.910156 150.910156 183.398438 C 162.179688 185.910156 222.730469 200.242188 271.15625 228.429688 Z M 159.175781 66.824219 C 161.300781 65.1875 166.570312 65.929688 171.5 69.128906 C 170.976562 68.988281 170.433594 68.917969 169.894531 68.90625 C 166.261719 68.910156 163.320312 71.851562 163.320312 75.484375 C 163.320312 76.964844 163.828125 78.3125 164.648438 79.414062 C 154.441406 74.472656 155.8125 69.414062 159.175781 66.824219 M 285.074219 215.40625 C 238.097656 186.78125 180.261719 171.46875 160.058594 166.699219 L 160.058594 156.300781 C 161.902344 155.773438 186.027344 150.292969 190.832031 122.195312 C 194.511719 100.710938 180.96875 86.597656 170.527344 81.996094 C 173.886719 81.679688 176.460938 78.859375 176.46875 75.484375 C 176.46875 74.554688 176.269531 73.679688 175.921875 72.878906 C 177.542969 74.628906 178.867188 76.625 179.851562 78.792969 C 179.851562 78.792969 185.113281 72.707031 180.363281 60.632812 C 180.363281 60.632812 183.09375 60.078125 184.207031 57.398438 C 185.195312 55.003906 186.234375 49.902344 179.878906 47.96875 C 177.570312 47.269531 175.300781 49.183594 172.652344 44.304688 C 171.789062 42.695312 170.460938 41.238281 168.578125 40.691406 C 162.703125 38.980469 162.5 43.082031 164.140625 47.285156 C 164.488281 48.171875 164.46875 49.179688 164.441406 50.148438 C 164.441406 50.148438 157.609375 49.089844 151.371094 52.609375 C 150.660156 51.011719 150.101562 48.898438 150.730469 46.859375 C 150.730469 46.859375 142.433594 49.085938 143.8125 61.089844 C 137.9375 74.054688 149.382812 84.238281 149.382812 84.238281 C 149.382812 84.238281 133.0625 83.421875 131.425781 58.386719 C 131.425781 58.386719 113.886719 67.484375 122.449219 96.476562 C 124.597656 103.753906 132.371094 108.726562 132.371094 108.726562 C 132.371094 108.726562 128.019531 110.902344 123.355469 106.863281 C 123.355469 106.863281 123.355469 119.300781 141.078125 121.789062 C 141.078125 121.789062 136.621094 129.460938 150.199219 128.578125 C 150.199219 128.578125 141.777344 134.152344 131.164062 128.4375 C 120.554688 122.726562 117.851562 113.492188 113.746094 92.941406 C 108.941406 68.921875 89.257812 42.609375 33.488281 17.582031 C 33.488281 17.582031 33.949219 29.414062 48.804688 45.589844 C 58.921875 56.605469 69.882812 55.230469 82.390625 69.328125 C 82.390625 69.328125 68.40625 58.460938 58.234375 62.082031 C 58.234375 62.082031 89.804688 73.894531 96.605469 108.179688 C 103.40625 142.457031 123.90625 153.414062 141.757812 157.441406 L 141.757812 166.699219 C 121.554688 171.46875 63.714844 186.78125 16.738281 215.40625 L 12.347656 218.082031 L 12.347656 322.171875 C 12.347656 364.023438 36.382812 399.125 81.855469 423.667969 C 115.121094 441.617188 147.921875 447.589844 149.304688 447.832031 L 150.910156 448.117188 L 152.511719 447.832031 C 153.894531 447.589844 186.695312 441.617188 219.957031 423.660156 C 265.433594 399.125 289.46875 364.023438 289.46875 322.171875 L 289.46875 218.082031 Z M 285.074219 215.40625 "/>
<path style=" stroke:none;fill-rule:nonzero;fill:rgb(100%,91.372549%,0%);fill-opacity:1;" d="M 163.484375 105.082031 C 163.484375 105.082031 144.726562 104.023438 138.355469 86.324219 C 138.355469 86.324219 156.402344 95.882812 173.039062 91.28125 C 173.039062 91.28125 188.957031 100.832031 183.296875 125.609375 C 183.296875 125.609375 180.863281 117.164062 176.265625 113.976562 C 176.265625 113.976562 163.765625 117.402344 152.183594 109.90625 C 152.183594 109.90625 159.792969 108.261719 163.484375 105.082031 "/>
<path style=" stroke:none;fill-rule:nonzero;fill:rgb(100%,91.372549%,0%);fill-opacity:1;" d="M 47.234375 30.730469 C 47.234375 30.730469 70.488281 40.757812 88.773438 60.507812 C 98.375 70.875 106.226562 84.242188 110 100.933594 L 97.261719 86.066406 C 97.261719 86.066406 95.136719 58.820312 59.039062 45.726562 C 59.039062 45.726562 51.152344 38.433594 47.234375 30.730469 "/>
<path style=" stroke:none;fill-rule:nonzero;fill:rgb(100%,91.372549%,0%);fill-opacity:1;" d="M 165.269531 54.003906 C 177.601562 56.351562 178.769531 65.9375 178.769531 65.9375 C 173.097656 57.917969 171.917969 63.003906 171.917969 63.003906 C 171.917969 63.003906 170.011719 61.824219 168.351562 59.957031 C 165.554688 56.796875 165.269531 54.003906 165.269531 54.003906 "/>
</g>
</svg>
