<?xml version="1.0" encoding="UTF-8"?>
<svg xmlns="http://www.w3.org/2000/svg" xmlns:xlink="http://www.w3.org/1999/xlink" width="820px" height="951px" viewBox="0 0 615 713" version="1.1">
<g id="surface1">
<path style=" stroke:none;fill-rule:nonzero;fill:rgb(0%,15.294118%,28.627451%);fill-opacity:1;" d="M 576.753906 163.0625 L 515.371094 163.0625 L 396.269531 46.796875 L 364.46875 81.203125 L 306.023438 21.363281 L 245.988281 79.222656 L 215.78125 46.796875 L 98.582031 163.0625 L 35.292969 163.0625 C 26.429688 163.0625 19.246094 170.261719 19.246094 179.136719 L 19.246094 228.4375 C 19.246094 231.554688 19.28125 242.265625 19.28125 245.355469 L 19.28125 427.53125 C 19.28125 432.351562 21.441406 436.917969 25.171875 439.976562 C 28.898438 443.027344 33.800781 444.242188 38.519531 443.285156 C 57.136719 439.511719 75.828125 436.132812 94.589844 433.152344 C 105.101562 485.296875 125.355469 532.699219 154.910156 574.273438 L 154.921875 574.289062 C 157.007812 577.234375 159.144531 580.152344 161.324219 583.03125 C 163.230469 585.546875 165.167969 588.035156 167.136719 590.5 L 167.46875 590.917969 C 167.761719 591.285156 168.050781 591.648438 168.34375 592.015625 C 170.195312 594.316406 172.074219 596.59375 173.980469 598.851562 C 174.347656 599.285156 174.722656 599.71875 175.09375 600.15625 L 175.515625 600.644531 C 177.808594 603.328125 180.144531 605.980469 182.519531 608.601562 C 184.003906 610.238281 185.566406 611.925781 187.160156 613.617188 C 187.988281 614.5 188.824219 615.382812 189.664062 616.261719 C 191.371094 618.039062 193.066406 619.769531 194.703125 621.410156 C 198.667969 625.359375 202.714844 629.222656 206.84375 632.996094 L 207.269531 633.382812 C 212.113281 637.785156 217.074219 642.058594 222.148438 646.191406 L 222.445312 646.433594 L 222.597656 646.554688 C 225.71875 649.089844 228.878906 651.570312 232.082031 654 L 232.136719 654.039062 C 249.984375 667.53125 269.003906 679.390625 288.972656 689.476562 C 294.738281 692.390625 300.257812 693.808594 305.84375 693.808594 C 311.433594 693.808594 316.9375 692.394531 322.667969 689.488281 C 343.019531 679.160156 362.273438 667.171875 379.898438 653.847656 C 381.695312 652.492188 383.527344 651.078125 385.347656 649.648438 L 385.457031 649.558594 L 385.53125 649.503906 C 387.285156 648.121094 389.023438 646.726562 390.75 645.316406 L 390.980469 645.125 C 392.703125 643.714844 394.441406 642.261719 396.136719 640.820312 L 396.257812 640.71875 C 412.132812 627.179688 426.792969 612.273438 440.070312 596.175781 L 440.183594 596.035156 C 441.609375 594.304688 443.019531 592.558594 444.414062 590.800781 L 444.683594 590.460938 C 446.035156 588.753906 447.382812 587.015625 448.699219 585.292969 L 448.820312 585.132812 L 448.984375 584.917969 C 450.320312 583.160156 451.652344 581.371094 452.949219 579.605469 L 453.019531 579.503906 L 453.140625 579.34375 C 454.511719 577.464844 455.867188 575.574219 457.207031 573.671875 C 462.625 565.953125 467.757812 558.039062 472.59375 549.941406 C 493.851562 514.339844 508.863281 475.109375 517.316406 433.128906 C 536.121094 436.113281 554.863281 439.5 573.527344 443.285156 C 578.25 444.242188 583.152344 443.027344 586.878906 439.976562 C 590.609375 436.917969 592.769531 432.351562 592.769531 427.53125 L 592.769531 245.355469 C 592.769531 242.355469 592.804688 231.554688 592.804688 228.4375 L 592.804688 179.136719 C 592.804688 170.261719 585.617188 163.0625 576.753906 163.0625 "/>
<path style=" stroke:none;fill-rule:nonzero;fill:rgb(78.823529%,66.27451%,43.921569%);fill-opacity:1;" d="M 592.808594 228.433594 C 592.808594 231.550781 592.773438 242.351562 592.773438 245.355469 L 592.773438 427.527344 C 592.773438 432.347656 590.609375 436.917969 586.878906 439.972656 C 583.152344 443.027344 578.25 444.242188 573.527344 443.285156 C 554.863281 439.5 536.121094 436.113281 517.316406 433.125 C 508.863281 475.109375 493.851562 514.335938 472.59375 549.941406 C 467.757812 558.035156 462.625 565.949219 457.207031 573.667969 L 457.195312 573.6875 C 455.859375 575.582031 454.507812 577.46875 453.140625 579.339844 L 453.023438 579.503906 L 452.949219 579.601562 C 451.644531 581.386719 450.320312 583.15625 448.984375 584.914062 L 448.820312 585.128906 L 448.699219 585.289062 C 447.386719 587.011719 446.035156 588.75 444.683594 590.457031 L 444.59375 590.570312 L 444.414062 590.800781 C 443.023438 592.558594 441.613281 594.300781 440.1875 596.03125 L 440.070312 596.171875 C 426.796875 612.273438 412.136719 627.175781 396.257812 640.714844 L 396.136719 640.820312 C 394.441406 642.261719 392.703125 643.710938 390.980469 645.125 L 390.75 645.3125 C 389.023438 646.722656 387.285156 648.121094 385.535156 649.496094 L 385.460938 649.558594 L 385.347656 649.644531 C 383.527344 651.074219 381.695312 652.492188 379.902344 653.847656 C 362.277344 667.167969 343.019531 679.160156 322.667969 689.488281 C 316.9375 692.394531 311.433594 693.808594 305.84375 693.808594 C 300.257812 693.808594 294.742188 692.390625 288.972656 689.472656 C 269.003906 679.386719 249.984375 667.527344 232.140625 654.035156 L 232.085938 653.996094 C 228.910156 651.589844 225.71875 649.085938 222.597656 646.550781 L 222.445312 646.429688 L 222.148438 646.191406 C 217.535156 642.433594 213.019531 638.566406 208.597656 634.585938 C 208.15625 634.1875 207.710938 633.78125 207.273438 633.382812 L 206.84375 632.992188 C 203.828125 630.242188 200.863281 627.445312 197.941406 624.59375 C 196.859375 623.535156 195.773438 622.476562 194.707031 621.40625 C 193.070312 619.769531 191.375 618.039062 189.664062 616.261719 C 188.824219 615.382812 187.988281 614.5 187.160156 613.617188 C 184.933594 611.253906 182.742188 608.863281 180.578125 606.441406 C 178.941406 604.609375 177.285156 602.710938 175.515625 600.640625 L 175.09375 600.152344 C 174.722656 599.71875 174.351562 599.28125 173.984375 598.847656 C 171.777344 596.234375 169.605469 593.589844 167.46875 590.914062 L 167.136719 590.5 C 165.167969 588.035156 163.230469 585.542969 161.324219 583.03125 C 160.257812 581.621094 159.144531 580.125 158.039062 578.609375 C 157.082031 577.304688 156.089844 575.929688 154.921875 574.285156 L 154.910156 574.269531 C 125.355469 532.699219 105.101562 485.292969 94.589844 433.148438 C 75.832031 436.128906 57.136719 439.507812 38.523438 443.285156 C 33.800781 444.242188 28.898438 443.027344 25.175781 439.972656 C 21.445312 436.917969 19.28125 432.351562 19.28125 427.527344 L 19.28125 245.355469 C 19.28125 242.261719 19.246094 231.550781 19.246094 228.433594 L 19.246094 179.136719 C 19.246094 170.257812 26.429688 163.0625 35.296875 163.0625 L 98.582031 163.0625 L 215.78125 46.792969 L 245.992188 79.222656 L 306.027344 21.359375 L 364.46875 81.203125 L 396.269531 46.792969 L 515.371094 163.0625 L 576.757812 163.0625 C 585.621094 163.0625 592.808594 170.257812 592.808594 179.136719 Z M 576.757812 152.34375 L 519.726562 152.34375 L 403.738281 39.117188 C 401.742188 37.167969 399.0625 36.078125 396.269531 36.074219 L 395.992188 36.078125 C 393.109375 36.15625 390.375 37.394531 388.417969 39.515625 L 364.253906 65.65625 L 313.675781 13.867188 C 311.667969 11.800781 308.90625 10.640625 306.023438 10.644531 C 303.257812 10.640625 300.597656 11.714844 298.605469 13.636719 L 246.402344 63.953125 L 223.609375 39.480469 C 221.636719 37.363281 218.890625 36.136719 215.996094 36.078125 L 215.78125 36.074219 C 212.960938 36.078125 210.253906 37.191406 208.25 39.179688 L 94.179688 152.34375 L 35.296875 152.34375 C 20.546875 152.34375 8.542969 164.363281 8.542969 179.136719 L 8.542969 228.433594 C 8.542969 230 8.554688 233.480469 8.5625 236.953125 C 8.570312 240.386719 8.578125 243.816406 8.578125 245.355469 L 8.578125 427.527344 C 8.578125 435.601562 12.160156 443.164062 18.398438 448.269531 C 23.179688 452.175781 29.160156 454.3125 35.332031 454.320312 C 37.117188 454.320312 38.902344 454.140625 40.652344 453.785156 C 55.808594 450.710938 71.015625 447.902344 86.269531 445.363281 C 97.585938 495.015625 117.71875 540.429688 146.191406 580.484375 L 146.226562 580.53125 C 148.367188 583.554688 150.558594 586.546875 152.796875 589.5 C 154.757812 592.085938 156.75 594.648438 158.773438 597.183594 L 159.097656 597.589844 C 159.402344 597.972656 159.707031 598.355469 160.015625 598.738281 C 162.285156 601.558594 164.597656 604.347656 166.949219 607.101562 L 167.394531 607.621094 C 169.753906 610.382812 172.15625 613.109375 174.597656 615.800781 C 178.671875 620.292969 182.855469 624.691406 187.140625 628.988281 C 188.238281 630.085938 189.355469 631.175781 190.46875 632.265625 C 193.480469 635.199219 196.535156 638.082031 199.640625 640.914062 L 200.0625 641.300781 C 205.054688 645.839844 210.167969 650.242188 215.398438 654.503906 L 215.71875 654.765625 L 215.886719 654.898438 C 219.089844 657.5 222.339844 660.050781 225.628906 662.542969 L 225.6875 662.585938 C 244.042969 676.464844 263.609375 688.664062 284.148438 699.039062 C 291.445312 702.730469 298.542969 704.523438 305.84375 704.523438 C 313.15625 704.523438 320.242188 702.730469 327.507812 699.046875 C 348.417969 688.433594 368.21875 676.105469 386.347656 662.398438 C 388.1875 661.007812 390.074219 659.554688 391.957031 658.074219 L 392.09375 657.964844 L 392.152344 657.921875 C 393.941406 656.511719 395.75 655.058594 397.519531 653.613281 L 397.75 653.421875 C 399.527344 651.96875 401.316406 650.476562 403.066406 648.984375 L 403.175781 648.894531 C 419.535156 634.941406 434.644531 619.585938 448.320312 603 L 448.449219 602.84375 L 448.449219 602.839844 L 448.480469 602.804688 C 449.929688 601.039062 451.382812 599.246094 452.796875 597.464844 L 452.988281 597.21875 L 453.0625 597.128906 C 454.472656 595.34375 455.859375 593.554688 457.207031 591.789062 L 457.335938 591.621094 L 457.488281 591.417969 C 458.863281 589.609375 460.234375 587.773438 461.578125 585.941406 L 461.644531 585.847656 L 461.753906 585.703125 C 463.171875 583.757812 464.574219 581.800781 465.957031 579.832031 C 471.53125 571.898438 476.808594 563.761719 481.777344 555.441406 C 501.917969 521.707031 516.652344 484.710938 525.636719 445.339844 C 540.941406 447.886719 556.199219 450.703125 571.402344 453.785156 C 573.152344 454.140625 574.933594 454.320312 576.71875 454.320312 C 582.875 454.320312 588.886719 452.171875 593.652344 448.269531 C 599.878906 443.1875 603.488281 435.566406 603.472656 427.527344 L 603.472656 245.355469 C 603.472656 243.875 603.480469 240.484375 603.488281 237.0625 C 603.5 233.554688 603.507812 230.011719 603.507812 228.433594 L 603.507812 179.136719 C 603.507812 164.363281 591.507812 152.34375 576.757812 152.34375 "/>
<path style=" stroke:none;fill-rule:nonzero;fill:rgb(100%,100%,100%);fill-opacity:1;" d="M 305.480469 536.679688 C 305.480469 536.679688 313.925781 542.054688 307.167969 555.261719 L 298.121094 570.761719 C 298.121094 570.761719 292.449219 582.125 296.738281 591.34375 C 296.738281 591.34375 298.734375 594.722656 299.957031 595.335938 C 299.957031 595.335938 301.800781 595.636719 300.269531 592.269531 C 300.269531 592.269531 295.203125 582.125 304.113281 569.234375 C 304.113281 569.234375 313.148438 556.332031 313.011719 552.648438 C 313.011719 552.648438 313.460938 549.113281 313.148438 547.121094 C 313.148438 547.121094 321.292969 549.574219 319.917969 562.789062 C 319.917969 562.789062 319.605469 569.84375 311.171875 580.757812 C 311.171875 580.757812 308.039062 585.910156 311.171875 589.960938 C 311.171875 589.960938 313.148438 592.113281 312.707031 589.199219 C 312.707031 589.199219 313.3125 582.898438 318.53125 575.992188 C 318.53125 575.992188 325.132812 567.234375 323.75 558.785156 C 323.75 558.785156 332.796875 568.304688 328.195312 586.121094 C 328.195312 586.121094 323.28125 605.785156 301.195312 602.402344 C 301.195312 602.402344 279.257812 599.328125 283.09375 570.15625 C 283.09375 570.15625 285.109375 559.371094 296.351562 551.542969 C 296.351562 551.542969 304.71875 543.449219 305.480469 536.679688 "/>
<path style=" stroke:none;fill-rule:nonzero;fill:rgb(100%,100%,100%);fill-opacity:1;" d="M 280.183594 567.234375 C 280.183594 567.234375 273.277344 584.125 287.839844 598.71875 C 287.839844 598.71875 272.511719 597.800781 271.90625 579.226562 C 271.90625 579.226562 272.511719 570.304688 280.183594 567.234375 "/>
<path style=" stroke:none;fill-rule:nonzero;fill:rgb(100%,100%,100%);fill-opacity:1;" d="M 331.878906 567.234375 C 331.878906 567.234375 338.769531 584.125 324.207031 598.71875 C 324.207031 598.71875 339.535156 597.800781 340.15625 579.226562 C 340.15625 579.226562 339.535156 570.304688 331.878906 567.234375 "/>
<path style=" stroke:none;fill-rule:nonzero;fill:rgb(100%,100%,100%);fill-opacity:1;" d="M 292.285156 508.726562 C 292.285156 508.726562 293.675781 507.035156 297.339844 507.035156 C 297.339844 507.035156 300.417969 506.890625 299.957031 509.503906 L 297.808594 525.472656 C 297.808594 525.472656 288.464844 524.085938 283.09375 514.570312 C 283.09375 514.570312 283.238281 513.019531 285.390625 513.175781 C 285.390625 513.175781 290.761719 509.347656 284.472656 505.816406 C 284.472656 505.816406 281.253906 503.664062 277.109375 508.421875 L 259.480469 529.917969 L 266.078125 530.074219 L 276.34375 517.792969 C 276.34375 517.792969 278.496094 516.71875 278.496094 518.710938 L 254.269531 548.054688 L 261.320312 547.894531 L 282.019531 524.242188 C 282.019531 524.242188 283.554688 523.15625 283.238281 524.855469 L 255.027344 559.242188 L 262.230469 559.40625 L 288.148438 528.996094 C 288.148438 528.996094 290.296875 527.921875 289.992188 529.917969 L 258.558594 567.546875 L 265.613281 567.851562 L 295.964844 531.90625 C 295.964844 531.90625 298.117188 531.160156 297.5 533.144531 L 261.625 576.300781 L 268.679688 576.601562 L 304.113281 534.378906 C 304.113281 534.378906 306.246094 532.847656 308.089844 534.378906 L 343.386719 576.601562 L 350.269531 576.453125 L 314.378906 532.683594 C 314.378906 532.683594 314.078125 531.304688 315.910156 531.90625 L 346.746094 568.167969 L 353.496094 567.851562 L 321.90625 529.460938 C 321.90625 529.460938 321.753906 527.773438 323.441406 528.230469 L 350.121094 559.097656 L 356.71875 559.242188 L 328.34375 524.855469 C 328.34375 524.855469 327.730469 522.394531 330.492188 523.628906 L 351.042969 547.894531 L 357.785156 547.429688 L 333.710938 518.710938 C 333.710938 518.710938 333.417969 516.863281 335.402344 517.484375 L 345.984375 529.605469 L 352.273438 529.605469 L 333.417969 507.035156 C 333.417969 507.035156 328.34375 502.433594 324.363281 508.117188 C 324.363281 508.117188 322.972656 511.03125 326.667969 512.71875 C 326.667969 512.71875 329.277344 512.867188 328.195312 515.332031 C 328.195312 515.332031 325.4375 520.707031 317 524.855469 C 317 524.855469 314.378906 526.230469 313.460938 523.007812 L 309.019531 506.277344 C 309.019531 506.277344 309.472656 504.894531 310.546875 504.429688 L 312.847656 502.898438 L 305.945312 502.582031 L 302.726562 504.582031 C 302.726562 504.582031 301.195312 505.816406 300.269531 502.898438 C 300.269531 502.898438 295.054688 501.199219 292.910156 504.113281 C 292.910156 504.113281 291.828125 506.890625 292.285156 508.726562 "/>
<path style=" stroke:none;fill-rule:nonzero;fill:rgb(100%,100%,100%);fill-opacity:1;" d="M 324.664062 629.808594 L 317.253906 638.351562 L 327.855469 638.351562 L 327.855469 642.890625 L 310.023438 642.890625 L 310.023438 638.738281 L 320.03125 627.171875 C 321.328125 625.660156 321.820312 624.535156 321.820312 622.988281 C 321.820312 620.597656 320.660156 619.15625 318.554688 619.15625 C 316.449219 619.15625 315.253906 620.5625 315.253906 622.988281 L 315.253906 624.007812 L 309.636719 624.007812 L 309.636719 622.988281 C 309.636719 618.382812 312.792969 614.585938 318.554688 614.585938 C 324.3125 614.585938 327.4375 618.382812 327.4375 622.988281 C 327.4375 625.835938 326.769531 627.382812 324.664062 629.808594 "/>
<path style=" stroke:none;fill-rule:nonzero;fill:rgb(100%,100%,100%);fill-opacity:1;" d="M 337.863281 642.890625 L 337.863281 620.457031 L 331.894531 623.164062 L 331.894531 618.167969 L 338.671875 615.074219 L 343.480469 615.074219 L 343.480469 642.890625 Z M 337.863281 642.890625 "/>
<path style=" stroke:none;fill-rule:nonzero;fill:rgb(100%,100%,100%);fill-opacity:1;" d="M 283.597656 629.808594 L 276.191406 638.351562 L 286.792969 638.351562 L 286.792969 642.890625 L 268.957031 642.890625 L 268.957031 638.738281 L 278.964844 627.171875 C 280.261719 625.664062 280.753906 624.535156 280.753906 622.988281 C 280.753906 620.597656 279.59375 619.15625 277.488281 619.15625 C 275.382812 619.15625 274.1875 620.5625 274.1875 622.988281 L 274.1875 624.007812 L 268.570312 624.007812 L 268.570312 622.988281 C 268.570312 618.382812 271.730469 614.585938 277.488281 614.585938 C 283.246094 614.585938 286.371094 618.382812 286.371094 622.988281 C 286.371094 625.835938 285.707031 627.382812 283.597656 629.808594 "/>
<path style=" stroke:none;fill-rule:nonzero;fill:rgb(100%,100%,100%);fill-opacity:1;" d="M 294.726562 637.441406 C 295.394531 638.390625 296.273438 638.808594 297.5 638.808594 C 298.695312 638.808594 299.574219 638.390625 300.277344 637.441406 C 301.1875 636.101562 301.46875 633.675781 301.46875 628.964844 C 301.46875 624.289062 301.1875 621.863281 300.277344 620.527344 C 299.574219 619.578125 298.695312 619.15625 297.5 619.15625 C 296.273438 619.15625 295.394531 619.578125 294.726562 620.527344 C 293.816406 621.863281 293.535156 624.289062 293.535156 628.964844 C 293.535156 633.675781 293.816406 636.101562 294.726562 637.441406 M 304.171875 640.746094 C 302.664062 642.503906 300.417969 643.382812 297.5 643.382812 C 294.589844 643.382812 292.339844 642.503906 290.832031 640.746094 C 288.828125 638.457031 287.917969 634.976562 287.917969 628.964844 C 287.917969 622.988281 288.828125 619.507812 290.832031 617.222656 C 292.339844 615.464844 294.589844 614.585938 297.5 614.585938 C 300.417969 614.585938 302.664062 615.464844 304.171875 617.222656 C 306.140625 619.507812 307.085938 622.988281 307.085938 628.964844 C 307.085938 634.976562 306.140625 638.457031 304.171875 640.746094 "/>
<path style=" stroke:none;fill-rule:nonzero;fill:rgb(78.823529%,66.27451%,43.921569%);fill-opacity:1;" d="M 472.0625 143.808594 L 462.886719 139.160156 L 462.582031 139.007812 L 462.339844 138.761719 L 443.992188 120.339844 L 443.789062 120.136719 L 443.648438 119.882812 L 440.476562 114.28125 L 418.605469 97.285156 L 418.378906 97.105469 L 418.210938 96.878906 L 409.34375 85.082031 L 398.089844 74.542969 L 395.515625 76.953125 L 392.710938 81.1875 L 392.445312 81.59375 L 392.027344 81.839844 L 387.464844 84.574219 L 382.09375 93.054688 L 381.816406 93.488281 L 381.375 93.75 L 371.046875 99.871094 L 366.039062 104.558594 L 364.960938 105.570312 L 363.632812 104.914062 L 357.824219 102.046875 L 357.503906 101.886719 L 357.253906 101.636719 L 346.878906 91.195312 L 340.746094 85.710938 L 330.285156 79.585938 L 329.90625 79.363281 L 329.648438 79.007812 L 315.796875 60.238281 L 305.753906 50.832031 L 289.3125 70.875 L 289.183594 71.03125 L 289.027344 71.164062 L 272.722656 84.765625 L 272.410156 85.027344 L 272.023438 85.15625 L 266.972656 86.820312 L 256.75 98.03125 L 249.601562 109.214844 L 247.964844 111.773438 L 246.105469 109.371094 L 235.515625 95.675781 L 224.976562 89.503906 L 224.644531 89.308594 L 224.398438 89.007812 L 212.980469 74.96875 L 187.835938 104.90625 L 187.195312 105.667969 L 178.097656 105.667969 L 160.621094 125.351562 L 160.515625 125.472656 L 160.390625 125.574219 L 138.8125 143.578125 L 122.460938 163.949219 L 143.449219 153.808594 L 165.664062 138.476562 L 180.9375 120.28125 L 181.21875 119.945312 L 181.613281 119.746094 L 190.390625 115.339844 L 211.546875 95.527344 L 213.007812 94.160156 L 214.46875 95.527344 L 224.242188 104.679688 L 232.378906 108.375 L 233.160156 108.730469 L 233.480469 109.53125 L 237.101562 118.597656 L 237.832031 120.425781 L 236.078125 121.308594 L 223.503906 127.644531 L 217.109375 140.742188 L 217.003906 140.949219 L 216.863281 141.132812 L 207.800781 152.558594 L 221.78125 148.550781 L 231.53125 134.066406 L 231.832031 133.617188 L 232.316406 133.363281 L 253.570312 122.28125 L 262.324219 109.136719 L 262.496094 108.878906 L 262.734375 108.679688 L 273.605469 99.609375 L 273.664062 99.558594 L 273.730469 99.511719 L 286.234375 90.574219 L 303.976562 71.277344 L 305.238281 69.898438 L 306.773438 70.972656 L 315.152344 76.828125 L 315.445312 77.03125 L 315.65625 77.316406 L 325.453125 90.691406 L 338.507812 101.136719 L 338.78125 101.355469 L 338.972656 101.652344 L 343.5625 108.78125 L 360.164062 119.582031 L 360.398438 119.734375 L 360.585938 119.941406 L 371.113281 131.625 L 378.257812 135.027344 L 378.703125 135.238281 L 379.011719 135.625 L 389.066406 148.207031 L 402.125 153.171875 L 396.589844 144.339844 L 396.546875 144.269531 L 396.507812 144.191406 L 389.394531 130.566406 L 385.652344 126.566406 L 379.265625 121.988281 L 378.847656 121.6875 L 378.609375 121.230469 L 376.285156 116.71875 L 375.542969 115.28125 L 376.722656 114.171875 L 383.664062 107.671875 L 383.898438 107.453125 L 384.1875 107.308594 L 390.027344 104.464844 L 392.5 99.574219 L 392.671875 99.238281 L 392.945312 98.976562 L 396.628906 95.527344 L 397.988281 94.257812 L 399.433594 95.425781 L 405.632812 100.4375 L 405.929688 100.679688 L 406.128906 101.003906 L 410.621094 108.507812 L 422.554688 116.136719 L 431.035156 121.554688 L 431.46875 121.832031 L 431.726562 122.277344 L 436.085938 129.714844 L 454.539062 144.355469 L 454.777344 144.542969 L 454.957031 144.792969 L 459.796875 151.644531 L 474.835938 157.644531 L 474.863281 157.65625 L 474.886719 157.664062 L 489.589844 163.96875 L 483.480469 155.976562 Z M 472.0625 143.808594 "/>
<path style=" stroke:none;fill-rule:nonzero;fill:rgb(78.823529%,66.27451%,43.921569%);fill-opacity:1;" d="M 576.757812 179.136719 L 35.296875 179.136719 L 35.296875 228.4375 L 576.757812 228.4375 Z M 576.757812 179.136719 "/>
<path style=" stroke:none;fill-rule:nonzero;fill:rgb(0%,15.294118%,28.627451%);fill-opacity:1;" d="M 82.574219 191.738281 C 88.523438 191.738281 91.929688 195.003906 92.101562 200.386719 L 85.894531 200.386719 C 85.808594 198.101562 84.765625 196.742188 82.574219 196.742188 C 80.289062 196.742188 79.105469 197.957031 79.105469 203.769531 C 79.105469 209.410156 80.144531 210.859375 82.714844 210.859375 C 84.882812 210.859375 86.125 209.382812 86.210938 207.039062 L 82.660156 207.039062 L 82.660156 202.90625 L 92.074219 202.90625 L 92.074219 215.429688 L 87.625 215.429688 L 87.078125 212.910156 C 86.296875 214.707031 84.25 215.835938 81.707031 215.835938 C 75.695312 215.835938 72.839844 211.238281 72.839844 203.769531 C 72.839844 196.394531 75.554688 191.738281 82.574219 191.738281 "/>
<path style=" stroke:none;fill-rule:nonzero;fill:rgb(0%,15.294118%,28.627451%);fill-opacity:1;" d="M 113.460938 215.429688 L 107.191406 215.429688 L 107.191406 192.140625 L 113.460938 192.140625 Z M 113.460938 215.429688 "/>
<path style=" stroke:none;fill-rule:nonzero;fill:rgb(0%,15.294118%,28.627451%);fill-opacity:1;" d="M 138.621094 215.429688 L 134.664062 204.898438 L 134.664062 215.429688 L 128.65625 215.429688 L 128.65625 192.140625 L 134.460938 192.140625 L 140.902344 209.238281 L 147.34375 192.140625 L 153.121094 192.140625 L 153.121094 215.429688 L 147.113281 215.429688 L 147.113281 204.898438 L 143.15625 215.429688 Z M 138.621094 215.429688 "/>
<path style=" stroke:none;fill-rule:nonzero;fill:rgb(0%,15.294118%,28.627451%);fill-opacity:1;" d="M 170.492188 194.542969 C 172.136719 192.664062 174.5625 191.738281 177.683594 191.738281 C 183.632812 191.738281 187.042969 195.007812 187.214844 200.386719 L 181.003906 200.386719 C 180.917969 198.101562 179.878906 196.742188 177.683594 196.742188 C 176.558594 196.742188 175.777344 197.117188 175.171875 197.988281 C 174.449219 199.027344 174.21875 200.621094 174.21875 203.769531 C 174.21875 206.984375 174.449219 208.542969 175.171875 209.617188 C 175.777344 210.484375 176.558594 210.859375 177.683594 210.859375 C 179.878906 210.859375 180.945312 209.472656 181.003906 207.214844 L 187.214844 207.214844 C 187.042969 212.59375 183.632812 215.835938 177.683594 215.835938 C 174.5625 215.835938 172.136719 214.910156 170.492188 213.03125 C 168.582031 210.859375 167.949219 207.765625 167.949219 203.769531 C 167.949219 199.839844 168.582031 196.714844 170.492188 194.542969 "/>
<path style=" stroke:none;fill-rule:nonzero;fill:rgb(0%,15.294118%,28.627451%);fill-opacity:1;" d="M 213.21875 206 L 208.222656 206 L 208.222656 215.433594 L 201.953125 215.433594 L 201.953125 192.144531 L 208.222656 192.144531 L 208.222656 200.996094 L 213.21875 200.996094 L 213.21875 192.144531 L 219.488281 192.144531 L 219.488281 215.433594 L 213.21875 215.433594 Z M 213.21875 206 "/>
<path style=" stroke:none;fill-rule:nonzero;fill:rgb(0%,15.294118%,28.627451%);fill-opacity:1;" d="M 234.71875 192.144531 L 249.855469 192.144531 L 249.855469 197.121094 L 240.988281 197.121094 L 240.988281 200.996094 L 248.671875 200.996094 L 248.671875 206 L 240.988281 206 L 240.988281 210.484375 L 250.027344 210.484375 L 250.027344 215.433594 L 234.71875 215.433594 Z M 234.71875 192.144531 "/>
<path style=" stroke:none;fill-rule:nonzero;fill:rgb(0%,15.294118%,28.627451%);fill-opacity:1;" d="M 276.636719 197.988281 C 276.03125 197.121094 275.222656 196.742188 274.097656 196.742188 C 272.96875 196.742188 272.1875 197.121094 271.585938 197.988281 C 270.859375 199.027344 270.628906 200.648438 270.628906 203.773438 C 270.628906 206.953125 270.859375 208.546875 271.585938 209.617188 C 272.1875 210.484375 272.96875 210.859375 274.097656 210.859375 C 275.222656 210.859375 276.03125 210.484375 276.636719 209.617188 C 277.332031 208.546875 277.5625 206.953125 277.5625 203.773438 C 277.5625 200.648438 277.332031 199.027344 276.636719 197.988281 M 281.316406 213.03125 C 279.671875 214.910156 277.214844 215.835938 274.097656 215.835938 C 270.976562 215.835938 268.550781 214.910156 266.90625 213.03125 C 265 210.859375 264.363281 207.765625 264.363281 203.773438 C 264.363281 199.839844 265 196.714844 266.90625 194.542969 C 268.550781 192.664062 270.976562 191.742188 274.097656 191.742188 C 277.214844 191.742188 279.671875 192.664062 281.316406 194.542969 C 283.195312 196.714844 283.828125 199.839844 283.828125 203.773438 C 283.828125 207.765625 283.195312 210.859375 281.316406 213.03125 "/>
<path style=" stroke:none;fill-rule:nonzero;fill:rgb(0%,15.294118%,28.627451%);fill-opacity:1;" d="M 304.695312 202.703125 L 304.695312 215.433594 L 298.65625 215.433594 L 298.65625 192.144531 L 304.695312 192.144531 L 310.472656 204.902344 L 310.472656 192.144531 L 316.507812 192.144531 L 316.507812 215.433594 L 310.472656 215.433594 Z M 304.695312 202.703125 "/>
<path style=" stroke:none;fill-rule:nonzero;fill:rgb(0%,15.294118%,28.627451%);fill-opacity:1;" d="M 357.253906 215.835938 C 351.59375 215.835938 348.503906 212.882812 348.503906 208.773438 L 348.503906 208.3125 L 354.742188 208.3125 L 354.742188 208.835938 C 354.742188 210.195312 355.578125 211.121094 357.253906 211.121094 C 358.929688 211.121094 359.769531 210.195312 359.769531 208.835938 C 359.769531 207.472656 358.988281 206.664062 356.761719 206.230469 L 355 205.855469 C 351.015625 205.074219 348.300781 202.933594 348.300781 198.679688 C 348.300781 194.6875 351.417969 191.738281 356.707031 191.738281 C 362.164062 191.738281 365.113281 194.804688 365.113281 198.390625 L 365.113281 198.796875 L 358.871094 198.796875 L 358.871094 198.390625 C 358.871094 197.203125 358.09375 196.480469 356.707031 196.480469 C 355.292969 196.480469 354.539062 197.203125 354.539062 198.390625 C 354.539062 199.691406 355.40625 200.414062 357.632812 200.878906 L 359.394531 201.199219 C 363.609375 202.066406 366.007812 204.40625 366.007812 208.542969 C 366.007812 212.738281 363.089844 215.835938 357.253906 215.835938 "/>
<path style=" stroke:none;fill-rule:nonzero;fill:rgb(0%,15.294118%,28.627451%);fill-opacity:1;" d="M 389.558594 198.910156 L 387.480469 207.011719 L 391.609375 207.011719 Z M 392.707031 192.140625 L 400.042969 215.429688 L 393.746094 215.429688 L 392.792969 211.699219 L 386.292969 211.699219 L 385.34375 215.429688 L 379.074219 215.429688 L 386.410156 192.140625 Z M 392.707031 192.140625 "/>
<path style=" stroke:none;fill-rule:nonzero;fill:rgb(0%,15.294118%,28.627451%);fill-opacity:1;" d="M 420.097656 202.703125 L 420.097656 215.433594 L 414.058594 215.433594 L 414.058594 192.144531 L 420.097656 192.144531 L 425.875 204.902344 L 425.875 192.144531 L 431.910156 192.144531 L 431.910156 215.433594 L 425.875 215.433594 Z M 420.097656 202.703125 "/>
<path style=" stroke:none;fill-rule:nonzero;fill:rgb(0%,15.294118%,28.627451%);fill-opacity:1;" d="M 456.472656 191.738281 C 462.421875 191.738281 465.832031 195.003906 466.003906 200.386719 L 459.792969 200.386719 C 459.707031 198.101562 458.667969 196.742188 456.472656 196.742188 C 454.191406 196.742188 453.003906 197.957031 453.003906 203.769531 C 453.003906 209.410156 454.046875 210.859375 456.617188 210.859375 C 458.78125 210.859375 460.023438 209.382812 460.109375 207.039062 L 456.558594 207.039062 L 456.558594 202.90625 L 465.976562 202.90625 L 465.976562 215.429688 L 461.527344 215.429688 L 460.980469 212.910156 C 460.199219 214.707031 458.148438 215.835938 455.605469 215.835938 C 449.597656 215.835938 446.738281 211.238281 446.738281 203.769531 C 446.738281 196.394531 449.453125 191.738281 456.472656 191.738281 "/>
<path style=" stroke:none;fill-rule:nonzero;fill:rgb(0%,15.294118%,28.627451%);fill-opacity:1;" d="M 491.054688 215.429688 L 487.097656 204.898438 L 487.097656 215.429688 L 481.089844 215.429688 L 481.089844 192.140625 L 486.894531 192.140625 L 493.335938 209.238281 L 499.777344 192.140625 L 505.554688 192.140625 L 505.554688 215.429688 L 499.546875 215.429688 L 499.546875 204.898438 L 495.589844 215.429688 Z M 491.054688 215.429688 "/>
<path style=" stroke:none;fill-rule:nonzero;fill:rgb(0%,15.294118%,28.627451%);fill-opacity:1;" d="M 520.671875 206.722656 L 520.671875 192.140625 L 526.910156 192.140625 L 526.910156 207.101562 C 526.910156 209.730469 528.007812 210.859375 529.941406 210.859375 C 531.875 210.859375 532.972656 209.730469 532.972656 207.101562 L 532.972656 192.140625 L 539.210938 192.140625 L 539.210938 206.722656 C 539.210938 212.363281 536.269531 215.835938 529.941406 215.835938 C 523.617188 215.835938 520.671875 212.363281 520.671875 206.722656 "/>
<path style=" stroke:none;fill-rule:nonzero;fill:rgb(78.823529%,66.27451%,43.921569%);fill-opacity:1;" d="M 135.289062 428.683594 L 159.886719 428.683594 L 159.886719 437.257812 L 144.75 437.257812 L 144.75 444.746094 L 159.4375 444.746094 L 159.4375 452.644531 L 144.75 452.644531 L 144.75 469.246094 L 135.289062 469.246094 Z M 135.289062 428.683594 "/>
<path style=" stroke:none;fill-rule:nonzero;fill:rgb(78.823529%,66.27451%,43.921569%);fill-opacity:1;" d="M 172.054688 459.277344 C 172.054688 461.035156 173.453125 461.984375 175.210938 461.984375 C 176.964844 461.984375 178.363281 461.035156 178.363281 459.277344 L 178.363281 438.660156 C 178.363281 436.898438 176.964844 435.949219 175.210938 435.949219 C 173.453125 435.949219 172.054688 436.898438 172.054688 438.660156 Z M 162.683594 437.167969 C 162.683594 430.265625 168.316406 427.785156 175.210938 427.785156 C 182.101562 427.785156 187.734375 430.265625 187.734375 437.167969 L 187.734375 460.765625 C 187.734375 467.671875 182.101562 470.152344 175.210938 470.152344 C 168.316406 470.152344 162.683594 467.671875 162.683594 460.765625 Z M 162.683594 437.167969 "/>
<path style=" stroke:none;fill-rule:nonzero;fill:rgb(78.823529%,66.27451%,43.921569%);fill-opacity:1;" d="M 200.261719 459.277344 C 200.261719 461.035156 201.65625 461.984375 203.414062 461.984375 C 205.171875 461.984375 206.570312 461.035156 206.570312 459.277344 L 206.570312 438.660156 C 206.570312 436.898438 205.171875 435.949219 203.414062 435.949219 C 201.65625 435.949219 200.261719 436.898438 200.261719 438.660156 Z M 190.890625 437.167969 C 190.890625 430.265625 196.519531 427.785156 203.414062 427.785156 C 210.308594 427.785156 215.941406 430.265625 215.941406 437.167969 L 215.941406 460.765625 C 215.941406 467.671875 210.308594 470.152344 203.414062 470.152344 C 196.519531 470.152344 190.890625 467.671875 190.890625 460.765625 Z M 190.890625 437.167969 "/>
<path style=" stroke:none;fill-rule:nonzero;fill:rgb(78.823529%,66.27451%,43.921569%);fill-opacity:1;" d="M 242.34375 428.683594 L 242.34375 437.03125 L 235 437.03125 L 235 469.246094 L 225.085938 469.246094 L 225.085938 437.03125 L 217.742188 437.03125 L 217.742188 428.683594 Z M 242.34375 428.683594 "/>
<path style=" stroke:none;fill-rule:nonzero;fill:rgb(78.823529%,66.27451%,43.921569%);fill-opacity:1;" d="M 254.597656 459.367188 L 257.347656 459.910156 C 259.644531 460.40625 260.953125 460.179688 260.953125 457.96875 L 260.953125 453.953125 C 260.953125 452.011719 259.238281 451.699219 257.796875 451.699219 L 254.597656 451.699219 Z M 257.796875 436.808594 L 254.597656 436.808594 L 254.597656 444.027344 L 257.796875 444.027344 C 259.734375 443.980469 260.5 443.082031 260.5 440.867188 L 260.5 439.96875 C 260.5 438.027344 259.960938 436.808594 257.796875 436.808594 M 254.597656 467.445312 L 254.597656 469.25 L 245.136719 469.25 L 245.136719 428.6875 L 260.726562 428.6875 C 266.628906 428.6875 269.601562 429.769531 269.734375 435.90625 L 269.734375 441.457031 C 269.734375 444.390625 267.078125 447.230469 263.65625 447.367188 C 267.167969 447.589844 270.1875 450.617188 270.1875 453.773438 L 270.1875 462.03125 C 270.1875 467.625 267.980469 470.242188 261.175781 468.796875 Z M 254.597656 467.445312 "/>
<path style=" stroke:none;fill-rule:nonzero;fill:rgb(78.823529%,66.27451%,43.921569%);fill-opacity:1;" d="M 284.113281 454.3125 L 288.84375 454.3125 L 286.5 435.769531 Z M 282.21875 469.25 L 272.757812 469.25 L 278.390625 428.6875 L 294.605469 428.6875 L 300.242188 469.25 L 290.78125 469.25 L 289.878906 462.433594 L 283.074219 462.433594 Z M 282.21875 469.25 "/>
<path style=" stroke:none;fill-rule:nonzero;fill:rgb(78.823529%,66.27451%,43.921569%);fill-opacity:1;" d="M 327.320312 460.675781 L 327.320312 469.25 L 302.71875 469.25 L 302.71875 428.6875 L 312.632812 428.6875 L 312.632812 460.675781 Z M 327.320312 460.675781 "/>
<path style=" stroke:none;fill-rule:nonzero;fill:rgb(78.823529%,66.27451%,43.921569%);fill-opacity:1;" d="M 354.488281 460.675781 L 354.488281 469.25 L 329.890625 469.25 L 329.890625 428.6875 L 339.804688 428.6875 L 339.804688 460.675781 Z M 354.488281 460.675781 "/>
<path style=" stroke:none;fill-rule:nonzero;fill:rgb(78.823529%,66.27451%,43.921569%);fill-opacity:1;" d="M 390.894531 454.671875 L 390.894531 460.765625 C 390.894531 467.667969 385.265625 470.148438 378.371094 470.148438 C 371.476562 470.148438 365.621094 467.667969 365.621094 460.765625 L 365.621094 437.164062 C 365.621094 430.261719 371.253906 427.78125 378.144531 427.78125 C 385.039062 427.78125 390.667969 430.261719 390.667969 437.164062 L 390.667969 441.8125 L 381.207031 441.8125 L 381.207031 438.65625 C 381.207031 436.898438 379.902344 435.945312 378.144531 435.945312 C 376.390625 435.945312 375.082031 436.898438 375.082031 438.65625 L 375.082031 459.273438 C 375.082031 461.035156 376.390625 461.980469 378.144531 461.980469 C 379.902344 461.980469 381.207031 461.035156 381.207031 459.273438 L 381.207031 454.671875 Z M 390.894531 454.671875 "/>
<path style=" stroke:none;fill-rule:nonzero;fill:rgb(78.823529%,66.27451%,43.921569%);fill-opacity:1;" d="M 418.742188 460.675781 L 418.742188 469.25 L 394.144531 469.25 L 394.144531 428.6875 L 404.054688 428.6875 L 404.054688 460.675781 Z M 418.742188 460.675781 "/>
<path style=" stroke:none;fill-rule:nonzero;fill:rgb(78.823529%,66.27451%,43.921569%);fill-opacity:1;" d="M 446.359375 428.683594 L 446.359375 460.765625 C 446.359375 467.667969 440.730469 470.148438 433.835938 470.148438 C 426.941406 470.148438 421.3125 467.667969 421.3125 460.765625 L 421.3125 428.683594 L 430.816406 428.683594 L 430.816406 459.273438 C 430.816406 461.035156 432.078125 461.980469 433.835938 461.980469 C 435.59375 461.980469 436.851562 461.035156 436.851562 459.273438 L 436.851562 428.683594 Z M 446.359375 428.683594 "/>
<path style=" stroke:none;fill-rule:nonzero;fill:rgb(78.823529%,66.27451%,43.921569%);fill-opacity:1;" d="M 458.976562 459.367188 L 461.726562 459.910156 C 464.023438 460.40625 465.332031 460.179688 465.332031 457.96875 L 465.332031 453.953125 C 465.332031 452.011719 463.617188 451.699219 462.175781 451.699219 L 458.976562 451.699219 Z M 462.175781 436.808594 L 458.976562 436.808594 L 458.976562 444.027344 L 462.175781 444.027344 C 464.113281 443.980469 464.878906 443.082031 464.878906 440.867188 L 464.878906 439.96875 C 464.878906 438.027344 464.339844 436.808594 462.175781 436.808594 M 458.976562 467.445312 L 458.976562 469.25 L 449.515625 469.25 L 449.515625 428.6875 L 465.105469 428.6875 C 471.007812 428.6875 473.980469 429.769531 474.117188 435.90625 L 474.117188 441.457031 C 474.117188 444.390625 471.457031 447.230469 468.035156 447.367188 C 471.546875 447.589844 474.566406 450.617188 474.566406 453.773438 L 474.566406 462.03125 C 474.566406 467.625 472.359375 470.242188 465.554688 468.796875 Z M 458.976562 467.445312 "/>
<path style=" stroke:none;fill-rule:nonzero;fill:rgb(100%,100%,100%);fill-opacity:1;" d="M 35.332031 246.015625 L 111.546875 246.015625 L 111.492188 265.722656 C 111.769531 314.199219 80.03125 336.683594 35.332031 341.238281 L 35.332031 310.332031 C 57.722656 308.742188 82.578125 302.003906 82.621094 275.445312 C 66.855469 275.898438 51.09375 276.390625 35.332031 276.917969 Z M 35.332031 246.015625 "/>
<path style=" stroke:none;fill-rule:nonzero;fill:rgb(100%,100%,100%);fill-opacity:1;" d="M 123.777344 246.015625 L 155.773438 246.015625 L 155.5 331.394531 C 144.835938 332.007812 134.171875 332.699219 123.515625 333.460938 L 123.777344 246.015625 "/>
<path style=" stroke:none;fill-rule:nonzero;fill:rgb(100%,100%,100%);fill-opacity:1;" d="M 456.140625 336.945312 C 496.40625 339.554688 536.609375 343.058594 576.71875 347.457031 L 576.71875 382.222656 C 562.042969 380 547.335938 377.960938 532.609375 376.101562 L 532.695312 420 C 522.050781 418.1875 511.378906 416.515625 500.6875 414.984375 L 500.570312 372.347656 C 485.8125 370.753906 471.035156 369.339844 456.242188 368.109375 L 456.140625 336.945312 "/>
<path style=" stroke:none;fill-rule:nonzero;fill:rgb(100%,100%,100%);fill-opacity:1;" d="M 398.027344 246.015625 L 429.3125 246.015625 L 429.398438 275.132812 C 435.320312 275.230469 438.277344 275.28125 444.195312 275.394531 L 444.289062 305.457031 C 438.371094 305.234375 435.414062 305.128906 429.492188 304.933594 L 429.578125 333.539062 C 419.140625 333.011719 408.695312 332.558594 398.25 332.175781 L 398.027344 246.015625 "/>
<path style=" stroke:none;fill-rule:nonzero;fill:rgb(100%,100%,100%);fill-opacity:1;" d="M 305.601562 302.367188 C 325.082031 296.773438 332.707031 275 332.484375 256.710938 L 332.476562 246.015625 L 363.472656 246.015625 L 363.492188 256.777344 C 362.804688 275.785156 371.707031 295.023438 390.484375 301.65625 L 390.558594 331.902344 C 373.550781 327.632812 358.109375 317.222656 348.191406 302.769531 C 339.167969 318.285156 322.425781 327.632812 305.601562 332.105469 L 305.601562 302.367188 "/>
<path style=" stroke:none;fill-rule:nonzero;fill:rgb(100%,100%,100%);fill-opacity:1;" d="M 241.925781 287.625 C 250.070312 287.523438 254.140625 287.480469 262.285156 287.410156 L 262.339844 246.019531 L 293.625 246.019531 L 293.582031 347.917969 C 283.121094 347.972656 272.660156 348.117188 262.199219 348.347656 L 262.246094 313.820312 C 254.097656 313.933594 250.023438 314.003906 241.875 314.171875 L 241.925781 287.625 "/>
<path style=" stroke:none;fill-rule:nonzero;fill:rgb(100%,100%,100%);fill-opacity:1;" d="M 250.222656 348.632812 C 234.019531 346.925781 217.710938 340.222656 207.804688 326.859375 C 198.742188 341.101562 182.546875 348.734375 166.730469 352.59375 L 166.824219 323.199219 C 184.152344 319.496094 193.25 306.199219 192.824219 288.515625 L 192.832031 285.636719 C 182.472656 285.851562 177.296875 285.972656 166.941406 286.238281 L 167.03125 257.1875 C 177.328125 257.113281 182.476562 257.082031 192.773438 257.023438 L 192.804688 246.015625 L 223.523438 246.015625 L 223.496094 256.867188 C 233.679688 256.824219 238.773438 256.804688 248.957031 256.777344 L 248.90625 284.757812 C 238.546875 284.867188 233.363281 284.933594 223.003906 285.09375 L 222.996094 287.929688 C 221.859375 305.246094 233.332031 318.347656 250.269531 320.328125 L 250.222656 348.632812 "/>
<path style=" stroke:none;fill-rule:nonzero;fill:rgb(100%,100%,100%);fill-opacity:1;" d="M 66.683594 390.457031 C 85.671875 386.832031 104.714844 383.496094 123.804688 380.457031 L 123.839844 368.398438 C 104.769531 370.351562 85.722656 372.535156 66.707031 374.953125 L 66.683594 390.457031 M 35.332031 350.351562 C 75.292969 345.847656 115.347656 342.25 155.472656 339.570312 L 155.257812 407.628906 C 144.726562 408.78125 134.210938 410.0625 123.710938 411.480469 L 123.722656 406.875 C 94.066406 412.417969 64.585938 418.882812 35.332031 426.257812 Z M 35.332031 350.351562 "/>
<path style=" stroke:none;fill-rule:nonzero;fill:rgb(100%,100%,100%);fill-opacity:1;" d="M 293.5625 399.390625 C 252.65625 399.96875 211.792969 402.167969 171.0625 405.980469 L 171.21875 356.613281 C 182.289062 355.847656 193.371094 355.183594 204.453125 354.625 L 204.398438 375.5 C 234.09375 373.792969 263.828125 372.773438 293.574219 372.4375 L 293.5625 399.390625 "/>
<path style=" stroke:none;fill-rule:nonzero;fill:rgb(100%,100%,100%);fill-opacity:1;" d="M 395.226562 377.796875 C 399.21875 378.015625 401.925781 376.835938 401.914062 372.804688 C 401.902344 368.273438 399.191406 367.117188 395.199219 366.917969 C 378.628906 366.140625 362.058594 365.542969 345.472656 365.109375 C 342.046875 365.03125 339.339844 365.972656 339.34375 370.417969 C 339.347656 374.371094 342.0625 375.742188 345.484375 375.828125 C 362.078125 376.296875 378.652344 376.957031 395.226562 377.796875 M 335.460938 340.21875 C 358.730469 340.59375 382 341.265625 405.253906 342.230469 C 421.457031 343.664062 433.148438 359.316406 433.257812 374.875 C 433.371094 390.105469 421.230469 404.328125 405.421875 403.773438 C 382.128906 402.1875 358.855469 401.085938 335.515625 400.472656 C 319.164062 400.800781 307.824219 384.515625 307.796875 370.09375 C 307.765625 355.714844 318.941406 339.234375 335.460938 340.21875 "/>
<path style=" stroke:none;fill-rule:nonzero;fill:rgb(100%,100%,100%);fill-opacity:1;" d="M 486.566406 292.769531 C 506.457031 293.542969 526.339844 294.414062 546.21875 295.378906 L 546.195312 277.804688 C 526.304688 277.179688 506.410156 276.621094 486.515625 276.121094 L 486.566406 292.769531 M 455.851562 246.015625 L 576.71875 246.015625 L 576.71875 329.453125 C 536.566406 325.835938 496.351562 322.953125 456.089844 320.808594 L 455.851562 246.015625 "/>
<path style=" stroke:none;fill-rule:nonzero;fill:rgb(72.54902%,11.372549%,13.333333%);fill-opacity:1;" d="M 167.988281 489.953125 L 167.988281 564.949219 C 169.988281 567.769531 172.03125 570.5625 174.117188 573.324219 C 189.242188 593.308594 206.078125 611.253906 224.566406 627.222656 L 224.566406 489.949219 L 167.988281 489.953125 "/>
<path style=" stroke:none;fill-rule:nonzero;fill:rgb(72.54902%,11.372549%,13.333333%);fill-opacity:1;" d="M 387.488281 489.6875 L 387.488281 627 C 408.859375 608.558594 427.863281 587.542969 444.066406 564.433594 L 444.066406 489.6875 L 387.488281 489.6875 "/>
</g>
</svg>
