<?xml version="1.0" encoding="UTF-8"?>
<svg xmlns="http://www.w3.org/2000/svg" xmlns:xlink="http://www.w3.org/1999/xlink" width="830px" height="978px" viewBox="0 0 623 734" version="1.1">
<g id="surface1">
<path style=" stroke:none;fill-rule:nonzero;fill:rgb(70.588235%,57.254902%,12.156863%);fill-opacity:1;" d="M 616.058594 553.464844 L 616.058594 528.890625 C 614.027344 529.167969 612.179688 529.382812 610.363281 529.597656 L 610.386719 553.515625 C 612.265625 553.515625 614.160156 553.464844 616.058594 553.464844 "/>
<path style=" stroke:none;fill-rule:nonzero;fill:rgb(70.588235%,57.254902%,12.156863%);fill-opacity:1;" d="M 580.632812 406.691406 L 580.632812 293.429688 C 580.632812 282.53125 581.484375 277.355469 583.246094 266.40625 C 581.339844 267.863281 579.457031 269.242188 577.585938 270.625 L 577.554688 270.917969 C 575.773438 281.59375 574.996094 286.480469 574.933594 297.007812 L 574.933594 531.707031 C 576.992188 531.648438 578.871094 531.542969 580.632812 531.488281 Z M 580.632812 406.691406 "/>
<path style=" stroke:none;fill-rule:nonzero;fill:rgb(70.588235%,57.254902%,12.156863%);fill-opacity:1;" d="M 127.898438 320.703125 C 125.9375 319.617188 124.03125 318.578125 122.222656 317.589844 L 122.222656 389.96875 C 124.125 390.476562 125.984375 390.980469 127.898438 391.492188 Z M 127.898438 320.703125 "/>
<path style=" stroke:none;fill-rule:nonzero;fill:rgb(70.588235%,57.254902%,12.156863%);fill-opacity:1;" d="M 68.964844 308.050781 C 68.324219 307.78125 67.695312 307.519531 67.042969 307.296875 C 65.371094 306.8125 64.097656 306.867188 63.121094 307.492188 C 61.875 308.246094 61.011719 310.011719 60.570312 312.714844 L 60.570312 312.796875 L 60.539062 312.839844 C 60.265625 313.613281 60.027344 316.375 60 320.785156 L 60 355.011719 C 60.027344 369.027344 61.058594 372.949219 61.949219 374.742188 C 67.132812 384.964844 79.316406 393.480469 91.042969 401.714844 C 99.429688 407.585938 107.359375 413.132812 113.070312 419.328125 C 125.066406 433.6875 124.945312 451.097656 124.859375 466.464844 L 124.859375 515.265625 C 124.859375 528.660156 124.875 541.273438 115.902344 549.738281 C 111.617188 553.371094 105.277344 555.308594 97.734375 556.355469 C 107.84375 555.566406 116.511719 553.753906 121.789062 549.328125 C 130.792969 540.855469 130.539062 528.121094 130.511719 514.347656 L 130.511719 470.5625 C 130.550781 454.308594 131.675781 435.914062 118.894531 420.882812 C 104.984375 406.070312 76.5625 394.109375 67.695312 376.949219 C 66.542969 374.691406 65.6875 370.0625 65.660156 357.289062 L 65.660156 323.738281 C 65.660156 319.28125 65.941406 316.570312 66.28125 315.75 C 66.910156 311.75 68.449219 310.039062 70.488281 309.695312 C 70.007812 309.121094 69.5 308.570312 68.964844 308.050781 "/>
<path style=" stroke:none;fill-rule:nonzero;fill:rgb(70.588235%,57.254902%,12.156863%);fill-opacity:1;" d="M 59.839844 525.582031 C 59.574219 523.304688 59.574219 518.152344 59.574219 513.742188 L 59.574219 443.125 C 57.6875 442.789062 55.785156 442.480469 53.898438 442.160156 L 53.898438 513.382812 C 53.898438 517.398438 53.898438 522.863281 54.15625 525.265625 C 54.785156 531.03125 57.253906 533.226562 60.75 534.777344 C 61.761719 535.128906 62.808594 535.375 63.871094 535.503906 C 64.5 535.339844 65.117188 535.167969 65.660156 534.953125 C 62.492188 533.28125 60.382812 530.835938 59.839844 525.582031 "/>
<path style=" stroke:none;fill-rule:nonzero;fill:rgb(70.588235%,57.254902%,12.156863%);fill-opacity:1;" d="M 191.253906 403.355469 C 187.765625 404.59375 187.3125 408.074219 187.3125 411.601562 C 187.3125 412.242188 187.3125 412.972656 187.332031 413.59375 L 187.359375 415.3125 L 187.359375 447.21875 C 189.285156 447.441406 191.15625 447.601562 193.023438 447.804688 L 193.023438 416.179688 C 193 411.902344 192.210938 406.070312 196.792969 403.988281 C 196.4375 403.71875 196.058594 403.492188 195.652344 403.3125 C 194.019531 403.15625 192.453125 403.15625 191.253906 403.355469 "/>
<path style=" stroke:none;fill-rule:nonzero;fill:rgb(70.588235%,57.254902%,12.156863%);fill-opacity:1;" d="M 193.027344 519.625 L 193.027344 465.699219 C 191.160156 465.539062 189.285156 465.402344 187.359375 465.253906 L 187.359375 519.4375 L 187.332031 524.507812 C 187.3125 525.921875 187.3125 527.253906 187.3125 528.402344 C 187.3125 538.742188 188.136719 540.515625 196.25 540.855469 C 196.457031 540.757812 196.632812 540.6875 196.792969 540.589844 C 192.300781 538.742188 193 533.574219 193.027344 519.625 "/>
<path style=" stroke:none;fill-rule:nonzero;fill:rgb(70.588235%,57.254902%,12.156863%);fill-opacity:1;" d="M 249.316406 516.738281 C 249.316406 535.746094 249.316406 541.460938 246.578125 545.699219 L 246.445312 545.984375 C 244.929688 548.503906 242.476562 552.691406 234.027344 555.40625 C 232.59375 555.816406 230.71875 556.175781 228.417969 556.476562 C 233.078125 556.128906 237.351562 555.566406 240.164062 554.804688 C 248.691406 552.070312 250.902344 547.90625 252.363281 545.433594 C 254.960938 541.339844 254.980469 535.941406 254.980469 516.890625 L 254.980469 481.203125 C 253.085938 481.15625 251.195312 481.089844 249.316406 481.035156 Z M 249.316406 516.738281 "/>
<path style=" stroke:none;fill-rule:nonzero;fill:rgb(70.588235%,57.254902%,12.156863%);fill-opacity:1;" d="M 249.335938 428.199219 L 249.316406 432.503906 L 249.316406 470.765625 C 251.195312 470.824219 253.085938 470.863281 254.980469 470.96875 L 254.980469 432.886719 C 254.996094 419.648438 256.15625 410.730469 247.992188 403.519531 C 242.949219 399.269531 237.371094 397.199219 226.117188 394.8125 C 233.628906 396.816406 238.03125 398.929688 242.113281 402.429688 C 249.542969 409.144531 249.476562 417.101562 249.335938 428.199219 "/>
<path style=" stroke:none;fill-rule:nonzero;fill:rgb(70.588235%,57.254902%,12.156863%);fill-opacity:1;" d="M 370.90625 421.367188 L 370.90625 530.367188 C 370.90625 539.429688 370.871094 549.640625 356.238281 555.1875 C 354.699219 555.695312 352.589844 556.175781 349.894531 556.527344 C 355.9375 556.085938 359.886719 555.445312 362.332031 554.578125 C 376.144531 549.351562 376.546875 540.132812 376.546875 530.292969 L 376.546875 420.921875 C 376.546875 411.65625 376.109375 402.746094 362.332031 399.140625 C 360.066406 398.660156 356.601562 398.414062 351.476562 398.390625 C 353.429688 398.507812 354.992188 398.730469 356.191406 399.023438 C 370.871094 402.96875 370.878906 412.71875 370.90625 421.367188 "/>
<path style=" stroke:none;fill-rule:nonzero;fill:rgb(70.588235%,57.254902%,12.156863%);fill-opacity:1;" d="M 311.867188 421.605469 L 311.867188 533.011719 C 311.898438 539.625 314.003906 541.585938 318.324219 542.070312 C 318.945312 541.800781 319.554688 541.429688 320.007812 541.011719 C 318.378906 539.609375 317.554688 537.097656 317.527344 533.011719 C 317.527344 501.527344 317.511719 451.234375 317.527344 421.578125 C 317.554688 417.542969 318.378906 415.191406 320.007812 413.789062 C 319.523438 413.382812 318.972656 413.066406 318.378906 412.84375 C 313.949219 413.324219 311.917969 415.214844 311.867188 421.605469 "/>
<path style=" stroke:none;fill-rule:nonzero;fill:rgb(70.588235%,57.254902%,12.156863%);fill-opacity:1;" d="M 444.351562 530.199219 L 444.351562 407.175781 C 444.351562 398.152344 444.632812 391.546875 446.09375 385.800781 C 444.210938 386.214844 442.316406 386.667969 440.421875 387.035156 L 440.402344 387.207031 C 439 392.777344 438.675781 399.121094 438.675781 408.171875 L 438.675781 530.328125 C 438.746094 537.296875 440.886719 539.429688 445.117188 539.917969 C 445.816406 539.625 446.441406 539.234375 446.949219 538.742188 C 445.296875 537.25 444.378906 534.65625 444.351562 530.199219 "/>
<path style=" stroke:none;fill-rule:nonzero;fill:rgb(70.588235%,57.254902%,12.156863%);fill-opacity:1;" d="M 503.882812 554.269531 L 509.46875 554.269531 C 506.320312 547.613281 505.15625 536.492188 505.121094 528.460938 L 505.121094 393.789062 C 505.144531 383.40625 505.410156 375.566406 506.566406 368.78125 C 504.671875 369.386719 502.777344 370.019531 500.90625 370.644531 L 500.90625 370.769531 C 499.699219 377.574219 499.429688 385.488281 499.429688 395.269531 L 499.429688 528.65625 C 499.429688 536.644531 500.59375 547.511719 503.753906 554.027344 Z M 503.882812 554.269531 "/>
<path style=" stroke:none;fill-rule:nonzero;fill:rgb(70.588235%,57.254902%,12.156863%);fill-opacity:1;" d="M 305.28125 344.457031 L 305.28125 348.28125 C 302.667969 347.992188 295.726562 347.824219 289.804688 347.675781 L 289.804688 359.222656 C 294.589844 359.320312 301.96875 359.464844 303.722656 359.371094 L 303.722656 363.222656 C 301.96875 363.046875 294.589844 362.839844 289.804688 362.738281 L 289.804688 382.394531 C 289.804688 383.382812 289.972656 384.472656 290.417969 385.753906 L 275.058594 385.445312 C 275.675781 384.257812 275.941406 383.042969 275.941406 382.097656 L 275.941406 347.628906 C 275.949219 346.320312 275.644531 345.027344 275.058594 343.851562 Z M 305.28125 344.457031 "/>
<path style=" stroke:none;fill-rule:nonzero;fill:rgb(70.588235%,57.254902%,12.156863%);fill-opacity:1;" d="M 347.515625 344.140625 L 347.515625 360.21875 L 335.648438 360.410156 L 335.648438 356.519531 C 335.648438 354.019531 336.007812 348.179688 333.300781 347.410156 C 332.414062 347.152344 330.753906 347.121094 329.421875 347.554688 C 327.355469 348.304688 327.605469 350.339844 327.605469 352.058594 L 327.605469 377.527344 C 327.605469 379.972656 327.355469 381.957031 329.097656 382.433594 C 329.878906 382.730469 332.414062 382.78125 333.453125 382.390625 C 335.480469 381.707031 335.210938 380.136719 335.210938 377.285156 L 335.210938 368.933594 L 347.515625 368.738281 L 347.515625 378.851562 C 347.515625 381.007812 347.679688 383.089844 345.3125 384.421875 C 342.953125 385.753906 339.917969 386.070312 331.613281 386.1875 L 327.898438 386.265625 C 318.628906 386.414062 313.746094 385.753906 313.746094 381.03125 L 313.746094 351.097656 C 313.746094 350.5 313.59375 346.804688 316.460938 345.328125 C 320.738281 343.199219 335.648438 343.691406 339.125 343.796875 Z M 347.515625 344.140625 "/>
<path style=" stroke:none;fill-rule:nonzero;fill:rgb(70.588235%,57.254902%,12.156863%);fill-opacity:1;" d="M 139.582031 325.574219 L 139.582031 331.578125 C 176.804688 345.175781 217.214844 354.046875 259.984375 358.007812 L 259.984375 352.445312 C 217.136719 348.429688 176.726562 339.375 139.582031 325.574219 "/>
<path style=" stroke:none;fill-rule:nonzero;fill:rgb(70.588235%,57.254902%,12.156863%);fill-opacity:1;" d="M 361.988281 352.347656 L 361.988281 357.890625 C 414.441406 352.902344 463.496094 340.386719 506.503906 321.285156 L 506.503906 315.136719 C 463.683594 334.53125 414.621094 347.238281 361.988281 352.347656 "/>
<path style=" stroke:none;fill-rule:nonzero;fill:rgb(100%,100%,100%);fill-opacity:1;" d="M 57.492188 576.917969 L 61.429688 576.917969 L 61.429688 602.230469 C 61.429688 603.527344 61.429688 604.328125 61.726562 605.296875 L 54.851562 605.296875 C 55.242188 604.261719 55.359375 603.527344 55.359375 602.230469 L 55.359375 583.382812 L 52.203125 583.382812 L 52.203125 580.460938 C 54.648438 580.121094 56.027344 579.976562 57.492188 576.917969 "/>
<path style=" stroke:none;fill-rule:nonzero;fill:rgb(100%,100%,100%);fill-opacity:1;" d="M 123.085938 588.449219 L 123.085938 582.132812 C 123.085938 580.277344 123.085938 579.636719 122.4375 579.183594 C 121.960938 578.867188 121.339844 579.015625 121.027344 579.132812 C 120.332031 579.414062 120.167969 580.222656 120.167969 582.066406 L 120.167969 586.683594 C 120.167969 587.292969 120.167969 588.984375 120.210938 589.203125 C 120.417969 590.535156 121.230469 590.796875 122.039062 590.605469 C 122.632812 590.460938 123.085938 589.882812 123.085938 588.449219 M 114.265625 595.5625 L 120.210938 595.5625 L 120.210938 598.574219 C 120.210938 600.910156 120.144531 602.617188 120.953125 603.015625 C 121.417969 603.210938 121.949219 603.195312 122.40625 602.972656 C 123.261719 602.5625 123.199219 600.628906 123.199219 598.976562 L 123.199219 592.90625 C 121.519531 593.511719 117.226562 593.941406 115.433594 592.714844 C 114.390625 592.007812 114.265625 590.679688 114.265625 589.5625 L 114.265625 582.132812 C 114.265625 579.90625 114.355469 578.429688 114.988281 577.53125 C 115.902344 576.171875 119.730469 576.367188 120.769531 576.367188 L 122.808594 576.367188 C 123.992188 576.367188 127.390625 576.292969 128.433594 577.488281 C 129.160156 578.28125 129.027344 579.535156 129.027344 581.816406 L 129.027344 600.164062 C 129.027344 601.25 129.183594 603.460938 127.984375 604.671875 C 126.6875 605.953125 123.199219 605.675781 121.835938 605.675781 L 119.984375 605.675781 C 118.628906 605.675781 115.976562 605.617188 114.988281 604.574219 C 114.1875 603.714844 114.265625 602.328125 114.265625 600.023438 Z M 114.265625 595.5625 "/>
<path style=" stroke:none;fill-rule:nonzero;fill:rgb(100%,100%,100%);fill-opacity:1;" d="M 183.800781 593.097656 L 183.800781 600.84375 C 183.800781 601.855469 183.753906 602.46875 184.507812 602.921875 C 184.777344 603.074219 185.546875 603.074219 185.84375 602.921875 C 186.71875 602.492188 186.683594 601.542969 186.683594 600.75 L 186.683594 593.050781 C 186.683594 592.230469 186.683594 591.625 185.902344 591.28125 C 185.441406 591.015625 184.679688 591.160156 184.394531 591.375 C 183.714844 591.839844 183.800781 592.460938 183.800781 593.097656 M 183.800781 581.09375 L 183.800781 586.417969 C 183.800781 587.457031 183.753906 588.089844 184.507812 588.519531 C 184.777344 588.640625 185.546875 588.640625 185.84375 588.519531 C 186.71875 588.121094 186.683594 587.132812 186.683594 586.339844 L 186.683594 580.996094 C 186.683594 580.21875 186.683594 579.636719 185.902344 579.273438 C 185.441406 579.027344 184.679688 579.132812 184.394531 579.386719 C 183.714844 579.847656 183.800781 580.460938 183.800781 581.09375 M 190.21875 589.609375 C 192.371094 590.457031 192.734375 590.984375 192.734375 593.21875 L 192.734375 599.929688 C 192.734375 601.855469 192.976562 603.996094 191.164062 604.988281 C 189.308594 605.976562 181.222656 605.953125 179.34375 604.914062 C 177.761719 603.894531 177.925781 601.445312 177.925781 599.773438 L 177.925781 593.746094 C 177.925781 591.554688 177.761719 590.675781 180.226562 589.710938 C 178.023438 589.175781 177.894531 588.121094 177.894531 586.039062 L 177.894531 581.992188 C 177.894531 580.527344 177.761719 578.449219 178.804688 577.488281 C 180.082031 576.171875 183.097656 576.347656 184.625 576.347656 L 185.546875 576.347656 C 186.476562 576.347656 190.394531 576.15625 191.777344 577.554688 C 192.792969 578.671875 192.613281 581.042969 192.613281 582.179688 L 192.613281 586.292969 C 192.613281 588.246094 192.433594 589 190.21875 589.609375 "/>
<path style=" stroke:none;fill-rule:nonzero;fill:rgb(100%,100%,100%);fill-opacity:1;" d="M 253.890625 590.125 C 256.070312 590.917969 256.414062 591.625 256.414062 593.941406 L 256.414062 600.023438 C 256.414062 601.046875 256.527344 603.996094 255.382812 605.125 C 254.464844 605.953125 253.28125 605.882812 250.816406 605.882812 L 246.6875 605.882812 C 244.65625 605.882812 242.984375 605.804688 242.230469 604.933594 C 241.484375 604.035156 241.617188 602.269531 241.617188 600.449219 L 241.617188 594.359375 L 247.574219 594.359375 L 247.574219 598.574219 C 247.574219 600.730469 247.453125 602.328125 248.371094 602.851562 C 248.617188 603.015625 249.085938 603.117188 249.65625 602.851562 C 250.421875 602.425781 250.324219 600.84375 250.324219 598.8125 L 250.324219 595.511719 C 250.324219 593.925781 250.421875 592.6875 249.542969 591.910156 C 249.207031 591.667969 248.457031 591.625 247.023438 591.625 L 247.023438 589 C 248.117188 589 249.382812 589.085938 249.949219 588.519531 C 250.421875 588.042969 250.324219 586.929688 250.324219 585.054688 L 250.324219 581.617188 C 250.324219 580.910156 250.1875 580.335938 249.5 579.847656 C 249.207031 579.691406 248.457031 579.636719 247.996094 579.847656 C 246.871094 580.429688 247.003906 581.226562 247.003906 582.445312 L 247.003906 586.824219 L 241.640625 586.824219 L 241.640625 576.917969 C 241.640625 576.917969 247.632812 576.679688 248.300781 576.679688 C 251.132812 576.679688 254.304688 576.445312 255.648438 578.015625 C 256.542969 579.105469 256.414062 580.78125 256.414062 582.609375 L 256.414062 585.9375 C 256.414062 587.605469 256.367188 588.449219 255.410156 589.398438 C 255 589.800781 254.464844 590.054688 253.890625 590.125 "/>
<path style=" stroke:none;fill-rule:nonzero;fill:rgb(100%,100%,100%);fill-opacity:1;" d="M 367.664062 600.214844 L 372.851562 600.214844 C 374.914062 600.214844 375.59375 600.214844 377.175781 600.019531 L 377.175781 605.296875 L 361.28125 605.296875 L 361.28125 600.238281 L 366.757812 593.699219 C 369.109375 590.984375 370.261719 589.691406 370.625 587.457031 C 370.804688 586.246094 370.9375 582.296875 370.640625 581.132812 C 370.472656 580.578125 370.277344 580.097656 369.539062 579.84375 C 369.070312 579.6875 368.554688 579.761719 368.148438 580.046875 C 367.179688 580.777344 367.300781 582.949219 367.300781 584.957031 L 367.300781 587.523438 L 361.808594 587.523438 L 361.808594 577.484375 C 363.445312 577.21875 366.65625 576.855469 368.203125 576.828125 C 371.3125 576.730469 374.414062 576.609375 375.769531 578.015625 C 376.855469 579.054688 376.816406 581.480469 376.816406 582.832031 L 376.816406 585.207031 C 376.816406 589.558594 376.554688 589.558594 372.605469 594.355469 Z M 367.664062 600.214844 "/>
<path style=" stroke:none;fill-rule:nonzero;fill:rgb(100%,100%,100%);fill-opacity:1;" d="M 434.289062 581.308594 C 434.289062 579.976562 434.058594 579.386719 432.839844 579.386719 C 431.554688 579.386719 431.257812 579.976562 431.257812 581.308594 L 431.257812 601.230469 C 431.257812 602.5625 431.554688 603.136719 432.839844 603.136719 C 434.058594 603.136719 434.289062 602.5625 434.289062 601.230469 Z M 440.222656 600.675781 C 440.222656 603.011719 440.164062 603.714844 439.363281 604.671875 C 438.472656 605.707031 437.128906 605.882812 432.796875 605.882812 C 428.910156 605.882812 427.582031 605.707031 426.8125 605.183594 C 425.300781 604.035156 425.429688 602.394531 425.429688 600.675781 L 425.429688 581.816406 C 425.429688 580.097656 425.300781 578.429688 426.8125 577.3125 C 427.582031 576.730469 428.910156 576.609375 432.796875 576.609375 C 437.128906 576.609375 438.472656 576.730469 439.363281 577.800781 C 440.164062 578.730469 440.222656 579.515625 440.222656 581.816406 Z M 440.222656 600.675781 "/>
<path style=" stroke:none;fill-rule:nonzero;fill:rgb(100%,100%,100%);fill-opacity:1;" d="M 497.914062 581.308594 C 497.914062 579.976562 497.699219 579.386719 496.472656 579.386719 C 495.1875 579.386719 494.941406 579.976562 494.941406 581.308594 L 494.941406 601.230469 C 494.941406 602.5625 495.1875 603.136719 496.472656 603.136719 C 497.699219 603.136719 497.914062 602.5625 497.914062 601.230469 Z M 503.878906 600.675781 C 503.878906 603.011719 503.820312 603.714844 502.976562 604.671875 C 502.148438 605.707031 500.785156 605.882812 496.472656 605.882812 C 492.5625 605.882812 491.246094 605.707031 490.46875 605.183594 C 488.941406 604.035156 489.09375 602.394531 489.09375 600.675781 L 489.09375 581.816406 C 489.09375 580.097656 488.941406 578.429688 490.46875 577.3125 C 491.246094 576.730469 492.5625 576.609375 496.472656 576.609375 C 500.785156 576.609375 502.148438 576.730469 502.976562 577.800781 C 503.820312 578.730469 503.878906 579.515625 503.878906 581.816406 Z M 503.878906 600.675781 "/>
<path style=" stroke:none;fill-rule:nonzero;fill:rgb(100%,100%,100%);fill-opacity:1;" d="M 554.625 593.417969 L 560.035156 593.417969 L 560.035156 582.898438 Z M 559.8125 576.917969 L 566.460938 576.917969 C 566.230469 577.742188 566.1875 578.351562 566.1875 579.34375 L 566.1875 593.417969 L 568.992188 593.417969 L 568.992188 597.914062 L 566.097656 597.914062 L 566.097656 602.972656 C 566.097656 603.714844 566.058594 604.398438 566.292969 605.300781 L 559.707031 605.300781 C 560.003906 604.519531 560.105469 603.714844 560.105469 602.851562 L 560.105469 597.914062 L 551.554688 597.914062 L 551.554688 593.417969 Z M 559.8125 576.917969 "/>
<path style=" stroke:none;fill-rule:nonzero;fill:rgb(100%,100%,100%);fill-opacity:1;" d="M 301.625 603.191406 L 310.105469 596 L 318.511719 603.191406 L 314.730469 592.640625 L 323.792969 587.121094 L 312.960938 587.167969 L 310.105469 577.21875 L 307.234375 587.167969 L 296.429688 587.121094 L 305.449219 592.640625 Z M 301.625 603.191406 "/>
<path style=" stroke:none;fill-rule:nonzero;fill:rgb(70.588235%,57.254902%,12.156863%);fill-opacity:1;" d="M 5.457031 623.21875 L 5.457031 633.726562 L 54.171875 633.726562 L 54.171875 633.917969 C 117.308594 660.0625 133.171875 703.101562 139.855469 728.25 L 480.722656 728.25 C 487.421875 703.101562 503.269531 660.0625 566.421875 633.917969 L 566.421875 633.726562 L 615.007812 633.726562 L 615.007812 623.21875 Z M 5.457031 623.21875 "/>
<path style=" stroke:none;fill-rule:nonzero;fill:rgb(100%,100%,100%);fill-opacity:1;" d="M 602.085938 553.738281 L 602.085938 529.964844 C 589.726562 531.511719 582.535156 532.058594 566.695312 532.625 L 566.695312 301.6875 C 566.695312 291.386719 567.546875 286.5 569.277344 276.285156 C 551.792969 288.820312 535.0625 299.597656 517.636719 309.601562 C 519.679688 315.089844 520.53125 318.507812 520.53125 326.929688 L 520.53125 532.894531 C 520.511719 542.164062 519.679688 546.449219 517.636719 554.144531 C 546.296875 554.050781 573.636719 553.90625 602.085938 553.738281 "/>
<path style=" stroke:none;fill-rule:nonzero;fill:rgb(100%,100%,100%);fill-opacity:1;" d="M 9.214844 379.871094 C 13.484375 391.125 21.617188 400.457031 39.515625 416.019531 C 41.394531 417.691406 43.191406 419.261719 45.003906 420.835938 C 60.160156 433.011719 69.554688 438.433594 72.660156 456.203125 C 73.203125 459.566406 73.542969 466.914062 73.542969 474.679688 L 73.542969 511.34375 C 73.542969 522.457031 73.542969 529.203125 68.015625 533.765625 C 67.40625 534.222656 66.570312 534.613281 65.660156 534.953125 C 65.074219 535.171875 64.476562 535.355469 63.871094 535.503906 C 60.359375 536.300781 55.898438 536.253906 52.90625 535.136719 C 49.054688 533.417969 46.511719 530.957031 45.882812 524.941406 C 45.628906 522.605469 45.609375 517.398438 45.609375 512.875 L 45.609375 440.785156 C 32.203125 438.378906 18.832031 435.800781 5.492188 433.054688 L 5.492188 554.089844 C 18.835938 555.332031 46.09375 556.757812 56.964844 556.78125 C 77.375 556.8125 98.277344 557.414062 107.820312 549.183594 C 116.847656 540.617188 116.589844 527.6875 116.582031 513.671875 L 116.582031 469.273438 C 116.605469 452.675781 117.695312 433.785156 104.941406 418.167969 C 91.042969 402.796875 62.621094 390.261719 53.765625 372.363281 C 52.589844 370.019531 51.734375 365.21875 51.710938 351.867188 L 51.710938 316.757812 C 51.710938 312.09375 52.015625 309.210938 52.3125 308.359375 C 53.265625 302.230469 56.050781 301.171875 59.574219 302.230469 C 63.28125 303.445312 66.675781 305.789062 68.964844 308.046875 C 69.535156 308.601562 70.035156 309.15625 70.488281 309.691406 C 70.515625 309.738281 70.597656 309.816406 70.628906 309.886719 C 76.398438 317.734375 76.445312 327.199219 76.445312 336.179688 L 76.445312 376.433594 C 88.855469 380.539062 101.363281 384.351562 113.957031 387.863281 L 113.957031 313.613281 C 82.351562 295.335938 46.570312 270.238281 36.613281 263.019531 C 26.808594 255.929688 18.835938 252.828125 13.664062 255.535156 C 9.679688 257.132812 7.058594 262.777344 6.160156 271.519531 C 5.375 280.324219 5.492188 289.554688 5.492188 293.59375 L 5.492188 331.476562 C 5.480469 356.128906 5.191406 368.546875 9.214844 379.871094 "/>
<path style=" stroke:none;fill-rule:nonzero;fill:rgb(100%,100%,100%);fill-opacity:1;" d="M 183.460938 400.84375 C 186.578125 400.265625 192.457031 401.226562 195.65625 402.796875 C 196.089844 402.996094 196.488281 403.230469 196.792969 403.453125 L 196.792969 403.476562 C 200.910156 406.875 200.871094 409.214844 200.871094 416.308594 L 200.871094 448.644531 C 193.457031 447.996094 186.453125 447.289062 179.085938 446.488281 L 179.085938 413.570312 C 179.042969 408.96875 178.171875 402.652344 183.460938 400.84375 M 140.128906 541.195312 C 141.03125 543.980469 145.019531 551.75 152.03125 554.144531 C 160.625 556.636719 174.886719 557.101562 185.46875 557.121094 C 186.972656 557.144531 188.375 557.144531 189.851562 557.144531 C 193.679688 557.144531 217.328125 557.289062 226.199219 554.804688 C 234.75 552.066406 236.949219 547.847656 238.421875 545.332031 C 241.023438 541.273438 241.023438 535.8125 241.023438 516.632812 L 241.023438 480.800781 C 227.421875 480.285156 214.421875 479.777344 200.871094 479.039062 C 200.871094 487.839844 200.910156 512.148438 200.910156 520.574219 C 200.910156 534.390625 201.453125 538.847656 196.792969 541.292969 C 196.621094 541.390625 196.4375 541.472656 196.25 541.53125 C 196.160156 541.617188 196.050781 541.679688 195.933594 541.710938 C 195.03125 541.9375 192.1875 542.164062 190.421875 542.136719 C 177.710938 541.917969 179.042969 539.371094 179.085938 519.898438 L 179.085938 464.675781 C 199.703125 466.367188 220.355469 467.648438 241.023438 468.519531 L 241.023438 430.011719 C 241.054688 416.597656 242.222656 407.5625 234.046875 400.058594 C 226.871094 393.792969 218.628906 391.878906 194.480469 386.917969 C 191.328125 386.265625 188.308594 385.632812 185.203125 384.933594 C 168.894531 381.371094 156.160156 379.417969 152.03125 379.894531 C 147.617188 380.960938 145.363281 382.511719 143.015625 385.074219 C 138.929688 390.519531 138.960938 396.359375 138.960938 413.089844 L 138.960938 519.257812 C 138.929688 531.582031 138.660156 536.492188 140.128906 541.195312 "/>
<path style=" stroke:none;fill-rule:nonzero;fill:rgb(100%,100%,100%);fill-opacity:1;" d="M 313.144531 412.136719 C 315.222656 412.136719 316.949219 412.3125 318.382812 412.84375 C 318.992188 413.089844 319.554688 413.390625 320.011719 413.789062 C 321.59375 415.148438 322.460938 417.46875 322.46875 421.535156 L 322.46875 533.011719 C 322.433594 537.148438 321.59375 539.609375 320.011719 541.011719 C 319.511719 541.453125 318.941406 541.8125 318.328125 542.070312 C 316.910156 542.648438 315.207031 542.808594 313.144531 542.808594 C 306.671875 542.765625 303.625 541.035156 303.574219 533.011719 L 303.574219 421.558594 C 303.660156 413.675781 306.710938 412.167969 313.144531 412.136719 M 263.40625 530.230469 C 263.398438 535.265625 262.21875 545.648438 273.3125 552.964844 C 279.367188 556.433594 296.382812 557.148438 313.144531 557.148438 C 333.300781 557.148438 343.65625 556.207031 348.378906 554.609375 C 362.183594 549.382812 362.609375 540.210938 362.609375 530.46875 L 362.609375 421.878906 C 362.609375 412.71875 362.148438 403.988281 348.378906 400.164062 C 343.613281 398.949219 333.179688 398.925781 313.144531 398.949219 C 296.285156 399.023438 279.292969 398.679688 273.3125 401.78125 C 262.195312 407.929688 263.398438 418.03125 263.40625 422.332031 Z M 263.40625 530.230469 "/>
<path style=" stroke:none;fill-rule:nonzero;fill:rgb(100%,100%,100%);fill-opacity:1;" d="M 388.503906 531.199219 C 388.527344 538.945312 389.03125 545.265625 398.960938 552.144531 C 410.195312 558.914062 442.199219 560.078125 452.203125 549.1875 C 452.742188 550.804688 453.269531 552.382812 453.816406 553.957031 C 453.863281 554.117188 453.925781 554.273438 453.972656 554.441406 L 457.398438 554.441406 C 470.265625 554.390625 482.636719 554.347656 495.527344 554.324219 C 492.339844 547.75 491.195312 536.789062 491.132812 528.890625 L 491.132812 397.15625 C 491.171875 387.117188 491.457031 379.609375 492.621094 373.101562 C 477.519531 377.765625 463.132812 381.691406 448.152344 385.171875 C 448.988281 390.207031 449.582031 396.867188 449.582031 403.863281 L 449.582031 530.0625 C 449.550781 534.503906 448.671875 537.171875 446.949219 538.742188 C 446.417969 539.246094 445.796875 539.644531 445.117188 539.917969 C 443.722656 540.515625 441.996094 540.71875 440 540.734375 C 434.058594 540.78125 430.46875 539.253906 430.390625 530.46875 L 430.390625 409.40625 C 430.414062 400.664062 430.691406 394.234375 432.132812 388.683594 C 417.210938 391.785156 402.175781 394.304688 387.058594 396.234375 C 387.964844 400.71875 388.480469 406.675781 388.503906 412.972656 Z M 388.503906 531.199219 "/>
<path style=" stroke:none;fill-rule:nonzero;fill:rgb(85.098039%,9.803922%,12.54902%);fill-opacity:1;" d="M 277.609375 701.214844 L 343.160156 701.214844 L 343.160156 633.726562 L 277.609375 633.726562 Z M 277.609375 701.214844 "/>
<path style=" stroke:none;fill-rule:nonzero;fill:rgb(85.098039%,9.803922%,12.54902%);fill-opacity:1;" d="M 146.550781 633.726562 L 146.550781 675.554688 C 151.878906 684.164062 156.121094 692.8125 159.414062 701.214844 L 212.058594 701.214844 L 212.058594 633.726562 Z M 146.550781 633.726562 "/>
<path style=" stroke:none;fill-rule:nonzero;fill:rgb(85.098039%,9.803922%,12.54902%);fill-opacity:1;" d="M 408.738281 633.726562 L 408.738281 701.214844 L 461.414062 701.214844 C 464.660156 692.8125 468.941406 684.164062 474.273438 675.554688 L 474.273438 633.726562 Z M 408.738281 633.726562 "/>
<path style=" stroke:none;fill-rule:nonzero;fill:rgb(70.588235%,57.254902%,12.156863%);fill-opacity:1;" d="M 47.578125 232.472656 C 51.078125 235.519531 54.636719 238.496094 58.25 241.40625 C 65.300781 247.050781 72.652344 252.371094 80.164062 257.449219 C 80.4375 257.644531 80.730469 257.839844 81.007812 258.03125 C 82.910156 259.324219 84.824219 260.601562 86.75 261.863281 C 87.46875 262.320312 88.210938 262.78125 88.9375 263.253906 C 91.863281 265.074219 94.773438 266.917969 97.761719 268.683594 C 98.027344 268.859375 98.304688 269.027344 98.578125 269.167969 C 101.191406 270.695312 103.820312 272.191406 106.472656 273.648438 C 155.097656 300.808594 211.296875 317.707031 270.777344 322.910156 C 265.953125 319.429688 261.605469 315.335938 257.835938 310.734375 C 242.441406 308.90625 227.160156 306.226562 212.058594 302.707031 C 189.320312 297.402344 167.371094 290.257812 146.550781 281.371094 C 123.164062 271.371094 101.226562 259.195312 81.007812 244.9375 L 81.007812 163.046875 C 111.800781 147.691406 132.8125 126.199219 146.550781 104.164062 C 151.613281 96.03125 155.917969 87.453125 159.417969 78.535156 L 212 78.535156 L 212 78.4375 C 212 66.890625 207.023438 60.1875 200.230469 56.933594 C 216.574219 56.957031 223.726562 70.085938 224.347656 78.070312 C 230.164062 68.675781 239.6875 60.835938 243.109375 51.539062 L 139.855469 51.539062 C 133.171875 76.671875 117.308594 119.714844 54.171875 145.875 L 54.171875 223.875 C 35.039062 207.105469 18.703125 188.78125 5.457031 169.214844 L 5.457031 187.753906 C 17.5625 203.59375 31.617188 218.574219 47.578125 232.472656 "/>
<path style=" stroke:none;fill-rule:nonzero;fill:rgb(70.588235%,57.254902%,12.156863%);fill-opacity:1;" d="M 566.421875 223.894531 L 566.421875 145.875 C 503.269531 119.710938 487.421875 76.667969 480.722656 51.539062 L 377.410156 51.539062 C 380.78125 60.835938 390.328125 68.671875 396.148438 78.066406 C 396.78125 70.082031 403.980469 56.957031 420.285156 56.929688 C 413.488281 60.1875 408.503906 66.890625 408.503906 78.4375 L 408.503906 78.53125 L 461.414062 78.53125 C 464.660156 86.933594 468.941406 95.597656 474.273438 104.160156 C 488 126.199219 509.003906 147.691406 539.800781 163.042969 L 539.800781 244.839844 C 519.59375 259.074219 497.613281 271.296875 474.273438 281.300781 C 453.425781 290.183594 431.496094 297.34375 408.738281 302.671875 C 393.882812 306.125 378.847656 308.777344 363.703125 310.613281 C 359.9375 315.253906 355.570312 319.371094 350.71875 322.863281 C 408.210938 317.75 462.636719 301.65625 510.066406 275.949219 C 528.640625 265.898438 546.195312 254.375 562.394531 241.402344 C 565.921875 238.59375 569.382812 235.707031 572.773438 232.738281 C 588.789062 218.835938 602.894531 203.851562 615.007812 188.003906 L 615.007812 169.476562 C 601.785156 188.964844 585.492188 207.246094 566.421875 223.894531 "/>
<path style=" stroke:none;fill-rule:nonzero;fill:rgb(70.588235%,57.254902%,12.156863%);fill-opacity:1;" d="M 426.4375 188.96875 C 426.4375 188.96875 424.742188 185.851562 422.046875 182.429688 C 430.550781 176.40625 438 164.082031 426.265625 136.726562 C 445.660156 170.59375 434.167969 184.003906 426.4375 188.96875 M 309.976562 94.703125 C 307.75 94.703125 303.074219 95.597656 300.449219 96.761719 C 303.683594 92.234375 308.226562 83.957031 309.976562 78.261719 C 311.683594 83.957031 316.257812 92.234375 319.46875 96.761719 C 316.863281 95.597656 312.175781 94.703125 309.976562 94.703125 M 193.957031 188.96875 C 186.257812 184.003906 174.734375 170.59375 194.140625 136.726562 C 182.394531 164.082031 189.882812 176.40625 198.34375 182.429688 C 195.65625 185.851562 193.957031 188.96875 193.957031 188.96875 M 438.746094 122.375 C 433.089844 110.414062 437.597656 92.742188 439.933594 90.996094 C 424.804688 96.691406 422.550781 112.929688 423.113281 120.144531 C 418.050781 110.296875 410.113281 98.113281 408.738281 82.933594 C 408.597656 81.46875 408.519531 80.003906 408.503906 78.535156 L 408.503906 78.4375 C 408.503906 66.890625 413.488281 60.1875 420.289062 56.933594 C 403.980469 56.957031 396.78125 70.082031 396.152344 78.070312 C 390.328125 68.675781 380.785156 60.835938 377.414062 51.539062 C 376.710938 49.621094 376.25 47.664062 376.164062 45.605469 C 376.011719 42.511719 376.6875 33.628906 384.09375 29.027344 C 374.03125 30.765625 369.855469 37.355469 368.253906 44.203125 C 367.953125 45.582031 367.683594 46.984375 367.59375 48.335938 C 367.453125 49.480469 367.429688 50.519531 367.40625 51.539062 C 367.355469 52.207031 367.339844 52.878906 367.363281 53.550781 C 367.59375 63.332031 371.535156 72.257812 374.917969 78.535156 C 376.710938 81.84375 378.375 84.386719 379.214844 85.890625 C 376.847656 83.628906 374.679688 81.167969 372.734375 78.535156 C 366.90625 70.589844 363.371094 61.25 363.078125 51.855469 C 362.949219 51.761719 362.863281 51.636719 362.742188 51.539062 C 361.632812 50.570312 360.589844 49.582031 359.570312 48.613281 C 358.136719 47.199219 356.757812 45.726562 355.4375 44.203125 C 343.015625 29.894531 342.699219 17.3125 347.53125 8.277344 C 347.507812 8.359375 347.460938 8.398438 347.417969 8.449219 C 343.328125 12.375 340.722656 17.722656 339.34375 22.949219 C 338.539062 25.847656 338.121094 28.84375 338.109375 31.855469 C 338.109375 69.664062 383.839844 80.300781 383.839844 115.664062 C 399.109375 115.757812 402.265625 127.113281 402.144531 130.960938 C 402.019531 135.371094 399.933594 141.226562 393.628906 144.449219 C 405.253906 144.449219 409.660156 152.125 409.660156 158.105469 C 409.660156 164.566406 404.566406 169.363281 398.367188 169.363281 C 389.296875 169.363281 386.101562 161.488281 387.738281 157.890625 C 387.242188 160.886719 390.414062 166.496094 395.863281 166.261719 C 402.980469 165.945312 404.542969 160.203125 404.398438 157.574219 C 403.875 147.691406 396.035156 145.707031 389.980469 145.957031 C 384.300781 146.160156 378.210938 145.390625 376.164062 140.285156 C 379.808594 144.523438 385.46875 144.089844 388.722656 143.402344 C 391.636719 142.824219 397.347656 138.78125 396.496094 131.359375 C 395.351562 121.285156 385.136719 118.433594 379.855469 119.320312 C 379.855469 79.035156 325.527344 68.046875 325.527344 44.734375 C 325.527344 38.707031 331.164062 32.96875 332.472656 31.660156 C 320.71875 37.59375 319.007812 46.363281 319.007812 51.925781 C 319.007812 85.160156 357.050781 95.597656 357.050781 118.503906 C 357.050781 127.933594 351.363281 130.890625 348.460938 132.300781 C 349.480469 130.867188 349.894531 128.089844 349.867188 125.855469 C 349.792969 119.25 344.9375 114.167969 338.820312 113.464844 C 332.234375 112.738281 323.027344 118.433594 324.019531 131.855469 C 324.382812 136.65625 327.195312 145.734375 334.945312 151.226562 C 333.351562 153.488281 332.5 156.1875 332.507812 158.953125 C 332.507812 160.109375 332.679688 161.175781 332.945312 162.246094 C 330.191406 159.597656 327.019531 157.425781 323.558594 155.808594 C 327.113281 153.308594 329.832031 149.292969 329.832031 149.292969 C 324.953125 145.484375 318.667969 138.425781 318.667969 127.527344 C 318.667969 113.464844 329.035156 107.53125 336.992188 108.0625 C 344.347656 108.570312 350.546875 113.851562 351.429688 120.816406 C 353.332031 109.011719 339.875 99.226562 329.753906 87.710938 C 318.667969 75.09375 311.097656 57.417969 319.816406 41.398438 C 316.644531 44.28125 311.578125 51.855469 310.222656 56.378906 C 308.894531 51.855469 303.804688 44.28125 300.65625 41.398438 C 309.382812 57.417969 301.824219 75.09375 290.703125 87.710938 C 280.589844 99.226562 267.152344 109.011719 269.078125 120.816406 C 269.960938 113.851562 276.121094 108.570312 283.472656 108.0625 C 291.425781 107.53125 301.824219 113.464844 301.824219 127.527344 C 301.824219 138.425781 295.496094 145.484375 290.652344 149.292969 C 290.652344 149.292969 293.375 153.308594 296.890625 155.808594 C 293.4375 157.433594 290.269531 159.605469 287.511719 162.246094 C 287.796875 161.175781 287.976562 160.109375 287.976562 158.953125 C 287.980469 156.183594 287.113281 153.480469 285.503906 151.226562 C 293.277344 145.734375 296.089844 136.65625 296.441406 131.855469 C 297.425781 118.433594 288.230469 112.738281 281.65625 113.464844 C 275.527344 114.167969 270.710938 119.25 270.601562 125.855469 C 270.574219 128.089844 270.976562 130.867188 271.984375 132.300781 C 269.109375 130.890625 263.453125 127.933594 263.453125 118.503906 C 263.453125 95.597656 301.441406 85.160156 301.441406 51.925781 C 301.441406 46.363281 299.75 37.59375 288 31.660156 C 289.296875 32.96875 294.941406 38.707031 294.941406 44.734375 C 294.941406 68.046875 240.632812 79.035156 240.632812 119.320312 C 235.355469 118.433594 225.160156 121.285156 224 131.359375 C 223.148438 138.78125 228.902344 142.824219 231.761719 143.402344 C 235.039062 144.089844 240.683594 144.523438 244.316406 140.285156 C 242.292969 145.390625 236.175781 146.160156 230.46875 145.957031 C 224.488281 145.707031 216.613281 147.691406 216.09375 157.574219 C 215.960938 160.203125 217.542969 165.945312 224.628906 166.261719 C 230.074219 166.496094 233.269531 160.886719 232.753906 157.890625 C 234.378906 161.488281 231.183594 169.363281 222.144531 169.363281 C 215.933594 169.363281 210.835938 164.566406 210.835938 158.105469 C 210.835938 152.125 215.257812 144.449219 226.859375 144.449219 C 220.585938 141.226562 218.488281 135.371094 218.347656 130.960938 C 218.226562 127.113281 221.359375 115.757812 236.648438 115.664062 C 236.648438 80.300781 282.382812 69.664062 282.382812 31.855469 C 282.382812 29.144531 281.996094 26.070312 281.136719 22.949219 C 279.765625 17.765625 277.148438 12.492188 273.183594 8.550781 C 273.109375 8.46875 273.035156 8.371094 272.945312 8.277344 C 277.777344 17.3125 277.429688 29.894531 265.007812 44.203125 C 263.089844 46.394531 261.050781 48.480469 258.902344 50.445312 C 258.523438 50.8125 258.152344 51.15625 257.757812 51.539062 C 257.632812 51.636719 257.523438 51.761719 257.40625 51.855469 C 257.140625 61.25 253.566406 70.589844 247.765625 78.535156 C 245.824219 81.167969 243.65625 83.628906 241.289062 85.890625 C 242.113281 84.386719 243.769531 81.84375 245.601562 78.535156 C 248.976562 72.257812 252.910156 63.332031 253.132812 53.550781 C 253.140625 52.917969 253.085938 52.210938 253.085938 51.539062 C 253.03125 49.527344 252.890625 47.472656 252.488281 45.339844 C 252.40625 44.953125 252.332031 44.585938 252.234375 44.203125 C 250.621094 37.355469 246.460938 30.765625 236.433594 29.027344 C 243.828125 33.628906 244.476562 42.511719 244.351562 45.605469 C 244.234375 47.664062 243.769531 49.621094 243.109375 51.539062 C 239.691406 60.835938 230.164062 68.675781 224.347656 78.070312 C 223.726562 70.082031 216.578125 56.957031 200.230469 56.933594 C 207.023438 60.1875 212 66.890625 212 78.4375 L 212 78.535156 C 211.976562 95.789062 202.917969 109.371094 197.375 120.144531 C 197.96875 112.929688 195.722656 96.691406 180.546875 90.996094 C 182.917969 92.742188 187.410156 110.414062 181.761719 122.375 C 170.613281 145.957031 157.109375 154.835938 158.429688 176.84375 C 159.3125 191.21875 168.203125 207.054688 187.953125 212.597656 C 187.121094 232.6875 200.210938 243.023438 212.058594 246.550781 C 215.316406 247.53125 218.476562 248.039062 221.261719 248.039062 C 234.363281 248.039062 242 240.96875 245.308594 237.308594 C 244.445312 242.082031 233.558594 255.710938 216.140625 252.320312 C 225.574219 264.132812 238.089844 264.570312 242.496094 264.496094 C 242.464844 265.496094 242.425781 266.5 242.425781 267.550781 C 242.398438 283.296875 247.847656 298.5625 257.839844 310.734375 C 261.605469 315.335938 265.957031 319.429688 270.777344 322.910156 C 282.398438 331.316406 296.378906 335.832031 310.722656 335.808594 C 325.65625 335.808594 339.460938 330.996094 350.71875 322.867188 C 355.570312 319.375 359.9375 315.253906 363.703125 310.617188 C 373.632812 298.460938 379.039062 283.242188 379.007812 267.550781 C 379.007812 266.5 378.980469 265.511719 378.949219 264.496094 C 383.984375 264.472656 395.539062 263.386719 404.375 252.320312 C 386.9375 255.710938 376.070312 242.082031 375.210938 237.308594 C 378.53125 240.96875 386.164062 248.039062 399.273438 248.039062 C 402.113281 248.039062 405.382812 247.503906 408.738281 246.484375 C 420.511719 242.855469 433.371094 232.496094 432.5625 212.597656 C 452.304688 207.054688 461.203125 191.21875 462.082031 176.84375 C 463.375 154.835938 449.902344 145.957031 438.746094 122.375 "/>
<path style=" stroke:none;fill-rule:nonzero;fill:rgb(85.098039%,9.803922%,12.54902%);fill-opacity:1;" d="M 187.953125 212.601562 C 168.203125 207.058594 159.308594 191.222656 158.429688 176.847656 C 157.109375 154.839844 170.613281 145.960938 181.761719 122.378906 C 187.410156 110.417969 182.917969 92.746094 180.542969 91 C 195.722656 96.691406 197.96875 112.933594 197.375 120.148438 C 202.917969 109.375 211.976562 95.792969 212 78.535156 L 159.417969 78.535156 C 155.917969 87.453125 151.609375 96.035156 146.550781 104.167969 L 146.550781 281.375 C 167.371094 290.261719 189.320312 297.402344 212.058594 302.707031 L 212.058594 246.554688 C 200.207031 243.023438 187.121094 232.691406 187.953125 212.601562 "/>
<path style=" stroke:none;fill-rule:nonzero;fill:rgb(85.098039%,9.803922%,12.54902%);fill-opacity:1;" d="M 423.113281 120.144531 C 422.550781 112.929688 424.804688 96.691406 439.933594 90.996094 C 437.597656 92.742188 433.089844 110.417969 438.746094 122.378906 C 449.898438 145.957031 463.371094 154.835938 462.078125 176.84375 C 461.203125 191.21875 452.300781 207.054688 432.558594 212.597656 C 433.371094 232.496094 420.511719 242.855469 408.738281 246.484375 L 408.738281 302.675781 C 431.496094 297.34375 453.425781 290.183594 474.273438 281.304688 L 474.273438 104.164062 C 468.941406 95.597656 464.660156 86.9375 461.414062 78.535156 L 408.738281 78.535156 L 408.738281 82.933594 C 410.109375 98.113281 418.050781 110.296875 423.113281 120.144531 "/>
<path style=" stroke:none;fill-rule:nonzero;fill:rgb(100%,100%,100%);fill-opacity:1;" d="M 276.820312 161.058594 C 278.300781 161.058594 279.511719 159.875 279.511719 158.398438 C 279.511719 156.933594 278.300781 155.75 276.820312 155.75 C 276.109375 155.738281 275.421875 156.011719 274.910156 156.507812 C 274.402344 157.003906 274.113281 157.683594 274.109375 158.398438 C 274.109375 159.875 275.300781 161.058594 276.820312 161.058594 "/>
<path style=" stroke:none;fill-rule:nonzero;fill:rgb(100%,100%,100%);fill-opacity:1;" d="M 271.085938 172.070312 C 273.75 172 277.421875 171.273438 280.710938 168.609375 C 279.460938 169.097656 278.128906 169.351562 276.785156 169.363281 C 270.652344 169.363281 265.660156 164.441406 265.660156 158.398438 C 265.660156 157.351562 265.84375 156.359375 266.136719 155.417969 C 263.304688 155.03125 259.96875 153.652344 257.449219 151.542969 C 256.972656 152.578125 256.390625 155.542969 256.414062 157.957031 C 256.542969 168 265.710938 172.167969 271.085938 172.070312 "/>
<path style=" stroke:none;fill-rule:nonzero;fill:rgb(100%,100%,100%);fill-opacity:1;" d="M 343.675781 161.058594 C 344.644531 161.089844 345.550781 160.589844 346.042969 159.757812 C 346.535156 158.921875 346.535156 157.886719 346.042969 157.054688 C 345.550781 156.222656 344.644531 155.722656 343.675781 155.75 C 342.171875 155.75 340.972656 156.933594 340.972656 158.398438 C 340.972656 159.875 342.171875 161.058594 343.675781 161.058594 "/>
<path style=" stroke:none;fill-rule:nonzero;fill:rgb(100%,100%,100%);fill-opacity:1;" d="M 364.039062 157.957031 C 364.101562 155.542969 363.53125 152.578125 363.03125 151.542969 C 360.5625 153.613281 357.5625 154.957031 354.375 155.417969 C 354.667969 156.386719 354.824219 157.390625 354.832031 158.398438 C 354.832031 164.441406 349.835938 169.363281 343.675781 169.363281 C 342.28125 169.363281 340.972656 169.066406 339.757812 168.609375 C 343.058594 171.273438 346.742188 172 349.371094 172.070312 C 354.785156 172.167969 363.9375 168 364.039062 157.957031 "/>
<path style=" stroke:none;fill-rule:nonzero;fill:rgb(100%,100%,100%);fill-opacity:1;" d="M 377.789062 179.933594 C 377.789062 179.933594 382.214844 171.628906 377.769531 160.425781 C 379.742188 180.984375 361.632812 193.691406 343.6875 184.734375 C 343.941406 186.792969 344.113281 188.945312 344.113281 191.246094 C 344.113281 195.84375 342.332031 204.488281 333.367188 204.488281 C 330.644531 204.488281 327.527344 203.125 325.449219 201.441406 C 325.214844 197.367188 327.472656 187.6875 336.164062 191.246094 C 334.960938 188.875 332.472656 187.878906 329.875 187.878906 C 327.046875 187.878906 323.996094 190.566406 322.484375 195.121094 C 320.503906 201.242188 315.820312 205.71875 310.238281 205.71875 C 304.640625 205.71875 299.992188 201.242188 297.976562 195.121094 C 296.480469 190.566406 293.425781 187.878906 290.601562 187.878906 C 288.019531 187.878906 285.5 188.875 284.332031 191.246094 C 293.027344 187.6875 295.257812 197.367188 295.039062 201.441406 C 292.9375 203.125 289.835938 204.488281 287.113281 204.488281 C 278.132812 204.488281 276.351562 195.84375 276.351562 191.246094 C 276.351562 188.945312 276.53125 186.792969 276.78125 184.734375 C 258.878906 193.691406 240.753906 180.984375 242.738281 160.425781 C 238.257812 171.628906 242.679688 179.933594 242.679688 179.933594 C 221.691406 178.042969 212.402344 193.277344 212.402344 203.058594 C 212.402344 212.835938 220.453125 219.125 227.035156 219.640625 C 235.199219 220.246094 242.460938 213.980469 239.300781 205.046875 C 240.386719 214.050781 232.796875 215.980469 229.101562 215.980469 C 225.945312 215.980469 218.25 213.195312 218.25 203.25 C 218.25 193.328125 229.101562 185.921875 238.679688 186.601562 C 254.109375 187.660156 262.597656 201.898438 260.933594 215.257812 C 261.929688 217.074219 268.394531 228.382812 281.328125 228.382812 C 296.523438 228.382812 299.773438 216.421875 310.238281 216.421875 C 320.714844 216.421875 323.9375 228.382812 339.183594 228.382812 C 352.105469 228.382812 358.550781 217.074219 359.566406 215.257812 C 357.882812 201.898438 366.386719 187.660156 381.816406 186.601562 C 391.359375 185.921875 402.265625 193.328125 402.265625 203.25 C 402.265625 213.195312 394.546875 215.980469 391.390625 215.980469 C 387.707031 215.980469 380.113281 214.050781 381.207031 205.046875 C 378.039062 213.980469 385.3125 220.246094 393.476562 219.640625 C 400.054688 219.125 408.082031 212.835938 408.082031 203.058594 C 408.082031 193.277344 398.78125 178.042969 377.789062 179.933594 "/>
<path style=" stroke:none;fill-rule:nonzero;fill:rgb(100%,100%,100%);fill-opacity:1;" d="M 287.160156 248.109375 C 284.230469 245.269531 283.214844 237.769531 289.242188 233.996094 C 299.015625 231.140625 305.027344 223.582031 309.71875 223.054688 C 309.71875 227.019531 309.703125 240.941406 309.703125 241.378906 C 301.082031 245.835938 293.414062 251.425781 286.289062 258.492188 C 285.777344 258.304688 268.199219 252.664062 267.609375 252.488281 C 267.207031 250.164062 267.011719 247.945312 267.011719 245.808594 C 267.011719 241.5 267.71875 237.480469 268.453125 233.363281 C 268.453125 233.363281 268.566406 232.710938 268.652344 232.039062 C 270.203125 232.769531 271.828125 233.339844 273.492188 233.75 C 273.492188 233.824219 273.429688 233.847656 273.429688 233.898438 C 272.417969 238.550781 276.445312 248.25 287.160156 248.109375 "/>
<path style=" stroke:none;fill-rule:nonzero;fill:rgb(100%,100%,100%);fill-opacity:1;" d="M 347.046875 233.898438 C 347.046875 233.847656 347.023438 233.820312 347.011719 233.75 C 349.296875 233.195312 351.246094 232.371094 352.933594 231.457031 C 353.085938 232.328125 353.261719 233.457031 353.261719 233.457031 C 353.933594 237.476562 354.601562 241.378906 354.601562 245.585938 C 354.601562 247.820312 354.390625 250.136719 353.933594 252.632812 C 353.355469 252.804688 336.105469 258.34375 335.601562 258.539062 C 328.710938 251.605469 320.765625 245.8125 312.054688 241.378906 L 312.054688 223.34375 C 316.558594 224.917969 322.335938 231.402344 331.226562 233.996094 C 337.261719 237.765625 336.21875 245.269531 333.300781 248.109375 C 343.847656 248.25 348.078125 238.546875 347.046875 233.898438 "/>
<path style=" stroke:none;fill-rule:nonzero;fill:rgb(100%,100%,100%);fill-opacity:1;" d="M 294.507812 288.003906 C 294.210938 288.390625 283.398438 303.378906 283.039062 303.855469 C 275.785156 302.769531 270.417969 299.84375 265.277344 297.003906 L 262.234375 295.335938 C 258.410156 288.648438 256.023438 281.238281 255.222656 273.574219 C 255.367188 273.300781 256.484375 270.941406 256.484375 270.941406 C 259.011719 265.5625 261.605469 259.992188 266.992188 254.746094 C 267.558594 254.941406 285.214844 260.597656 285.714844 260.773438 C 287.253906 270.335938 290.148438 279.238281 294.507812 288.003906 "/>
<path style=" stroke:none;fill-rule:nonzero;fill:rgb(100%,100%,100%);fill-opacity:1;" d="M 296.382812 289.402344 C 306.019531 290.957031 315.5 290.957031 325.292969 289.386719 C 325.59375 289.785156 335.3125 303.253906 335.3125 303.253906 C 335.3125 303.253906 336.296875 304.589844 336.691406 305.113281 C 333.40625 311.777344 328.996094 315.960938 324.746094 319.984375 L 322.347656 322.300781 C 318.667969 322.976562 314.683594 323.417969 310.816406 323.417969 C 306.917969 323.417969 302.917969 322.976562 299 322.179688 C 298.742188 321.914062 296.769531 320.003906 296.769531 320.003906 L 290.8125 314.003906 C 288.214844 311.023438 286.386719 308.257812 284.898438 305.214844 C 285.265625 304.703125 296.078125 289.839844 296.382812 289.402344 "/>
<path style=" stroke:none;fill-rule:nonzero;fill:rgb(100%,100%,100%);fill-opacity:1;" d="M 327.167969 288.003906 C 331.5625 279.511719 334.515625 270.601562 336.191406 260.773438 C 336.699219 260.597656 353.945312 255.082031 354.539062 254.886719 C 356.453125 256.746094 358.074219 258.707031 359.496094 260.917969 C 361.808594 264.324219 363.496094 267.910156 364.957031 271.152344 L 366.386719 274.183594 C 365.472656 281.714844 363.027344 288.980469 359.203125 295.53125 C 359.132812 295.511719 356.324219 297.003906 356.324219 297.003906 C 351.140625 299.792969 345.785156 302.707031 338.605469 303.789062 C 338.296875 303.378906 328.003906 289.167969 327.167969 288.003906 "/>
<path style=" stroke:none;fill-rule:nonzero;fill:rgb(100%,100%,100%);fill-opacity:1;" d="M 259.011719 299.859375 C 259.011719 299.859375 258.632812 302.769531 258.382812 304.511719 C 254.972656 299.742188 252.226562 294.527344 250.222656 289.019531 C 247.9375 282.582031 246.769531 275.78125 246.652344 268.777344 C 249.652344 272.144531 252.230469 273.988281 252.984375 274.476562 C 253.875 282.109375 256.300781 289.484375 260.113281 296.160156 L 259.011719 299.859375 "/>
<path style=" stroke:none;fill-rule:nonzero;fill:rgb(100%,100%,100%);fill-opacity:1;" d="M 310.816406 331.753906 C 304.367188 331.753906 297.980469 330.707031 291.839844 328.824219 C 296.136719 326.929688 298.710938 325.023438 299.238281 324.585938 C 303.050781 325.355469 306.925781 325.746094 310.816406 325.746094 C 314.789062 325.746094 318.664062 325.328125 322.386719 324.585938 C 322.90625 325.023438 325.425781 326.929688 329.753906 328.792969 C 323.632812 330.707031 317.285156 331.753906 310.816406 331.753906 "/>
<path style=" stroke:none;fill-rule:nonzero;fill:rgb(100%,100%,100%);fill-opacity:1;" d="M 363.214844 304.46875 C 362.742188 299.84375 361.726562 296.839844 361.492188 296.214844 C 365.273438 289.542969 367.6875 282.183594 368.59375 274.570312 C 369.722656 273.84375 372.15625 271.976562 374.953125 268.925781 C 374.738281 281.691406 370.644531 294.089844 363.214844 304.46875 "/>
<path style=" stroke:none;fill-rule:nonzero;fill:rgb(13.72549%,12.156863%,12.54902%);fill-opacity:1;" d="M 242.5 264.496094 C 238.089844 264.570312 225.574219 264.132812 216.144531 252.320312 C 233.558594 255.710938 244.449219 242.082031 245.308594 237.308594 C 242 240.964844 234.367188 248.039062 221.261719 248.039062 C 218.476562 248.039062 215.320312 247.53125 212.0625 246.550781 L 212.0625 302.703125 C 227.160156 306.226562 242.445312 308.90625 257.839844 310.734375 C 247.847656 298.5625 242.398438 283.296875 242.425781 267.550781 C 242.425781 266.5 242.464844 265.496094 242.5 264.496094 "/>
<path style=" stroke:none;fill-rule:nonzero;fill:rgb(13.72549%,12.156863%,12.54902%);fill-opacity:1;" d="M 81.007812 163.046875 L 81.007812 244.9375 C 101.226562 259.191406 123.164062 271.371094 146.550781 281.371094 L 146.550781 104.164062 C 132.816406 126.199219 111.800781 147.691406 81.007812 163.046875 "/>
<path style=" stroke:none;fill-rule:nonzero;fill:rgb(13.72549%,12.156863%,12.54902%);fill-opacity:1;" d="M 539.800781 244.839844 L 539.800781 163.046875 C 509.003906 147.691406 488 126.199219 474.273438 104.164062 L 474.273438 281.300781 C 497.613281 271.300781 519.59375 259.074219 539.800781 244.839844 "/>
<path style=" stroke:none;fill-rule:nonzero;fill:rgb(13.72549%,12.156863%,12.54902%);fill-opacity:1;" d="M 399.273438 248.042969 C 386.160156 248.042969 378.53125 240.96875 375.210938 237.3125 C 376.070312 242.085938 386.9375 255.710938 404.375 252.320312 C 395.539062 263.390625 383.980469 264.472656 378.949219 264.5 C 378.980469 265.515625 379.007812 266.503906 379.007812 267.550781 C 379.007812 283.871094 373.285156 298.882812 363.703125 310.617188 C 378.847656 308.777344 393.878906 306.128906 408.738281 302.675781 L 408.738281 246.488281 C 405.382812 247.503906 402.113281 248.042969 399.273438 248.042969 "/>
<path style=" stroke:none;fill-rule:nonzero;fill:rgb(13.72549%,12.156863%,12.54902%);fill-opacity:1;" d="M 310.910156 243.464844 C 319.46875 247.792969 327.015625 253.273438 333.949219 260.085938 C 332.246094 269.890625 329.34375 278.734375 325.035156 287.03125 C 315.492188 288.5625 306.203125 288.613281 296.734375 287.109375 C 292.394531 278.628906 289.441406 269.503906 287.988281 260.085938 C 294.867188 253.242188 302.375 247.792969 310.910156 243.464844 "/>
<path style=" stroke:none;fill-rule:nonzero;fill:rgb(13.72549%,12.156863%,12.54902%);fill-opacity:1;" d="M 257.160156 232.152344 C 261.195312 231.050781 264.535156 230.773438 266.316406 230.75 C 266.371094 230.773438 266.445312 230.796875 266.511719 230.851562 C 266.371094 231.625 266.160156 232.933594 266.160156 232.933594 C 265.421875 237.023438 264.671875 241.1875 264.671875 245.8125 C 264.671875 248.082031 264.886719 250.511719 265.359375 253.074219 C 259.742188 258.570312 257.113281 264.089844 254.371094 269.917969 L 253.421875 271.882812 C 250.808594 269.933594 248.472656 267.632812 246.480469 265.050781 C 247.007812 253.320312 250.695312 241.953125 257.160156 232.152344 "/>
<path style=" stroke:none;fill-rule:nonzero;fill:rgb(13.72549%,12.156863%,12.54902%);fill-opacity:1;" d="M 260.394531 307.324219 C 260.515625 307.324219 261.191406 301.078125 261.191406 301.078125 C 261.191406 301.078125 261.765625 298.945312 262.050781 297.925781 C 262.730469 298.269531 264.160156 299.070312 264.160156 299.070312 C 269.460938 301.996094 275.015625 305.019531 282.765625 306.175781 C 284.125 308.992188 285.777344 311.554688 288 314.269531 L 294.25 320.878906 L 295.152344 321.75 C 295.152344 321.75 296.269531 322.785156 296.878906 323.390625 C 295.644531 324.261719 292.734375 326.128906 288.324219 327.679688 C 277.371094 323.640625 267.742188 316.589844 260.394531 307.324219 "/>
<path style=" stroke:none;fill-rule:nonzero;fill:rgb(13.72549%,12.156863%,12.54902%);fill-opacity:1;" d="M 333.117188 327.75 C 330.144531 326.628906 327.316406 325.15625 324.695312 323.363281 C 325.242188 322.785156 326.371094 321.679688 326.371094 321.679688 C 331.066406 317.195312 335.433594 312.988281 338.804688 306.132812 C 346.492188 305.019531 352.058594 301.996094 357.433594 299.070312 L 359.566406 297.902344 C 360.089844 299.550781 360.996094 302.96875 361.101562 307.664062 C 353.785156 316.660156 344.101562 323.734375 333.117188 327.75 "/>
<path style=" stroke:none;fill-rule:nonzero;fill:rgb(13.72549%,12.156863%,12.54902%);fill-opacity:1;" d="M 367.996094 272.128906 L 367.089844 270.15625 C 365.035156 265.683594 363.214844 261.976562 360.503906 258.179688 C 360.503906 258.179688 356.710938 253.726562 356.238281 253.191406 C 356.738281 250.511719 356.945312 248.015625 356.945312 245.617188 C 356.945312 241.261719 356.300781 237.265625 355.59375 233.105469 C 355.59375 233.105469 355.359375 231.726562 355.195312 230.921875 L 355.34375 230.921875 C 356.683594 230.949219 360.269531 231.144531 364.851562 232.59375 C 371.132812 242.425781 374.636719 253.777344 374.984375 265.4375 C 372.980469 267.984375 370.628906 270.238281 367.996094 272.128906 "/>
<path style=" stroke:none;fill-rule:nonzero;fill:rgb(13.72549%,12.156863%,12.54902%);fill-opacity:1;" d="M 212.058594 701.214844 L 277.609375 701.214844 L 277.609375 633.726562 L 212.058594 633.726562 Z M 212.058594 701.214844 "/>
<path style=" stroke:none;fill-rule:nonzero;fill:rgb(13.72549%,12.156863%,12.54902%);fill-opacity:1;" d="M 108.425781 633.726562 C 124.878906 646.363281 137.34375 660.804688 146.550781 675.554688 L 146.550781 633.726562 Z M 108.425781 633.726562 "/>
<path style=" stroke:none;fill-rule:nonzero;fill:rgb(13.72549%,12.156863%,12.54902%);fill-opacity:1;" d="M 474.273438 675.554688 C 483.453125 660.804688 495.921875 646.363281 512.414062 633.726562 L 474.273438 633.726562 Z M 474.273438 675.554688 "/>
<path style=" stroke:none;fill-rule:nonzero;fill:rgb(13.72549%,12.156863%,12.54902%);fill-opacity:1;" d="M 343.160156 701.214844 L 408.738281 701.214844 L 408.738281 633.726562 L 343.160156 633.726562 Z M 343.160156 701.214844 "/>
</g>
</svg>
