<svg xmlns="http://www.w3.org/2000/svg" width="830.0690307617188px" height="978.04150390625px" x="0px" y="0px" style="enable-background:new 0 0 1400 980" viewBox="0 0 830.0690307617188 978.04150390625"><defs><clipPath id="a" clipPathUnits="userSpaceOnUse"><path d="M0 840h592V0H0Z"/></clipPath></defs><path fill="none" d="M0 0h830.069v978.042H0z" style="fill:#2f0200;fill-opacity:0;pointer-events:none"/><g clip-path="url(#a)" transform="matrix(3.18864 0 0 -3.18864 -564.55 1901.382)"><path d="M0 0v10.269c-.849-.116-1.622-.205-2.381-.295l.01-9.995C-1.585-.021-.794 0 0 0" style="fill:#b4921f;fill-opacity:1;fill-rule:nonzero;stroke:none" transform="translate(434.45 365.024)"/><path d="M0 0v47.328c0 4.555.356 6.717 1.093 11.293-.797-.61-1.583-1.185-2.366-1.764l-.012-.121c-.745-4.462-1.07-6.503-1.095-10.902v-98.073c.859.023 1.645.068 2.38.091z" style="fill:#b4921f;fill-opacity:1;fill-rule:nonzero;stroke:none" transform="translate(419.647 426.356)"/><path d="M0 0c-.819.454-1.616.889-2.371 1.302v-30.245c.795-.213 1.572-.423 2.371-.636z" style="fill:#b4921f;fill-opacity:1;fill-rule:nonzero;stroke:none" transform="translate(230.488 462.287)"/><path d="M0 0c-.268.113-.53.222-.803.314-.698.203-1.23.18-1.638-.081-.522-.315-.882-1.052-1.067-2.183v-.033l-.012-.018c-.115-.323-.215-1.477-.226-3.32v-14.303c.011-5.857.443-7.495.814-8.244 2.166-4.272 7.257-7.83 12.156-11.271 3.505-2.453 6.818-4.772 9.204-7.361 5.012-5.999 4.962-13.274 4.926-19.696v-20.393c0-5.596.006-10.867-3.743-14.404-1.79-1.518-4.439-2.328-7.591-2.765 4.224.329 7.846 1.086 10.05 2.936 3.763 3.541 3.656 8.862 3.646 14.618v18.296c.016 6.792.486 14.478-4.854 20.759C15.05-40.959 3.175-35.962-.53-28.791c-.482.944-.839 2.878-.85 8.216v14.02c0 1.862.117 2.995.258 3.338.263 1.671.906 2.386 1.758 2.53A9.145 9.145 0 0 1 0 0" style="fill:#b4921f;fill-opacity:1;fill-rule:nonzero;stroke:none" transform="translate(205.865 467.575)"/><path d="M0 0c-.11.952-.11 3.106-.11 4.949v29.507c-.789.141-1.584.27-2.372.404V5.099c0-1.679 0-3.963.107-4.966C-2.112-2.276-1.08-3.194.38-3.841a6.34 6.34 0 0 1 1.305-.305c.263.069.521.141.748.231C1.108-3.216.228-2.195 0 0" style="fill:#b4921f;fill-opacity:1;fill-rule:nonzero;stroke:none" transform="translate(202.052 376.675)"/><path d="M0 0c-1.458-.518-1.648-1.971-1.648-3.446 0-.267 0-.572.008-.832l.012-.719v-13.332c.804-.093 1.587-.16 2.367-.245v13.215C.728-3.572.399-1.134 2.313-.264a2.422 2.422 0 0 1-.476.282C1.154.083.501.083 0 0" style="fill:#b4921f;fill-opacity:1;fill-rule:nonzero;stroke:none" transform="translate(256.96 427.75)"/><path d="M0 0v22.533c-.78.067-1.563.125-2.368.187V.078l-.011-2.119c-.008-.591-.008-1.147-.008-1.626 0-4.322.344-5.062 3.733-5.204.087.041.161.069.227.111C-.303-7.989-.012-5.829 0 0" style="fill:#b4921f;fill-opacity:1;fill-rule:nonzero;stroke:none" transform="translate(257.7 379.165)"/><path d="M0 0c0-7.943 0-10.33-1.143-12.101l-.056-.119c-.633-1.054-1.658-2.804-5.188-3.937-.599-.173-1.383-.323-2.344-.448 1.947.145 3.733.38 4.907.699 3.563 1.142 4.487 2.883 5.098 3.915C2.359-10.28 2.367-8.024 2.367-.064v14.913c-.792.019-1.582.047-2.367.07Z" style="fill:#b4921f;fill-opacity:1;fill-rule:nonzero;stroke:none" transform="translate(281.218 380.371)"/><path d="m0 0-.009-1.798v-15.988c.785-.025 1.575-.041 2.367-.086v15.914C2.364 3.574 2.85 7.3-.561 10.313-2.669 12.09-5 12.954-9.701 13.952c3.139-.837 4.977-1.72 6.683-3.183C.086 7.963.058 4.638 0 0" style="fill:#b4921f;fill-opacity:1;fill-rule:nonzero;stroke:none" transform="translate(281.227 417.368)"/><path d="M0 0v-45.548c0-3.787-.014-8.054-6.128-10.371-.643-.213-1.524-.414-2.651-.56 2.525.185 4.175.452 5.197.814 5.771 2.184 5.939 6.036 5.939 10.148V.185c0 3.873-.183 7.595-5.939 9.102-.947.201-2.394.304-4.535.314.816-.05 1.468-.143 1.969-.264C-.014 7.688-.01 3.613 0 0" style="fill:#b4921f;fill-opacity:1;fill-rule:nonzero;stroke:none" transform="translate(332.02 420.224)"/><path d="M0 0v-46.553c.013-2.764.892-3.583 2.698-3.785.259.112.513.267.703.442-.681.587-1.026 1.636-1.037 3.343 0 13.157-.006 34.172 0 46.565.011 1.686.356 2.668 1.037 3.255a2.37 2.37 0 0 1-.681.394C.87 3.461.021 2.67 0 0" style="fill:#b4921f;fill-opacity:1;fill-rule:nonzero;stroke:none" transform="translate(307.354 420.124)"/><path d="M0 0v51.407c0 3.771.118 6.532.729 8.933-.788-.174-1.579-.363-2.37-.516l-.009-.072c-.586-2.327-.721-4.978-.721-8.76V-.053c.029-2.913.924-3.804 2.691-4.008.293.122.553.286.766.491C.396-2.946.012-1.862 0 0" style="fill:#b4921f;fill-opacity:1;fill-rule:nonzero;stroke:none" transform="translate(362.707 374.746)"/><path d="M0 0h2.335C1.019 2.781.533 7.429.518 10.784v56.275c.01 4.339.121 7.615.604 10.45-.792-.253-1.584-.517-2.366-.778v-.053c-.503-2.842-.616-6.15-.616-10.237V10.703c0-3.338.486-7.879 1.807-10.601z" style="fill:#b4921f;fill-opacity:1;fill-rule:nonzero;stroke:none" transform="translate(387.58 364.688)"/><path d="M0 0v-1.598c-1.092.121-3.992.191-6.467.252V-6.17c2-.041 5.082-.102 5.815-.063v-1.609c-.733.074-3.815.161-5.815.202v-8.213c0-.413.071-.868.257-1.403l-6.418.128c.258.496.369 1.004.369 1.399v14.403a3.49 3.49 0 0 1-.369 1.578z" style="fill:#b4921f;fill-opacity:1;fill-rule:nonzero;stroke:none" transform="translate(304.602 452.362)"/><path d="M0 0v-6.718l-4.959-.081v1.627c0 1.044.15 3.484-.981 3.805-.37.108-1.063.122-1.62-.06-.863-.313-.759-1.163-.759-1.882v-10.642c0-1.022-.104-1.851.623-2.051.327-.123 1.386-.145 1.821.018.846.286.734.943.734 2.134v3.49L0-10.278v-4.227c0-.9.069-1.77-.921-2.328-.985-.555-2.253-.688-5.724-.737l-1.552-.033c-3.873-.061-5.912.215-5.912 2.188v12.508c0 .249-.065 1.794 1.134 2.411 1.787.889 8.016.684 9.469.639z" style="fill:#b4921f;fill-opacity:1;fill-rule:nonzero;stroke:none" transform="translate(322.248 452.494)"/><path d="M0 0v-2.51c15.552-5.682 32.436-9.388 50.306-11.044v2.324C32.404-9.552 15.52-5.767 0 0" style="fill:#b4921f;fill-opacity:1;fill-rule:nonzero;stroke:none" transform="translate(235.37 460.253)"/><path d="M0 0v-2.317C21.916-.232 42.411 4.997 60.38 12.98v2.568C42.49 7.445 21.99 2.134 0 0" style="fill:#b4921f;fill-opacity:1;fill-rule:nonzero;stroke:none" transform="translate(328.295 449.065)"/><path d="M0 0h1.644v-10.577c0-.542 0-.877.125-1.282h-2.872c.162.433.212.74.212 1.282v7.875H-2.21v1.222C-1.189-1.338-.613-1.278 0 0" style="fill:#fff;fill-opacity:1;fill-rule:nonzero;stroke:none" transform="translate(201.072 355.224)"/><path d="M0 0v2.639c0 .776 0 1.043-.27 1.233-.2.132-.459.07-.589.02-.291-.117-.36-.454-.36-1.225V.738c0-.255 0-.962.019-1.054.086-.556.425-.665.764-.585C-.188-.841 0-.6 0 0m-3.684-2.973H-1.2v-1.259c0-.975-.029-1.688.309-1.855a.733.733 0 0 1 .607.018c.358.172.332.979.332 1.67v2.536c-.702-.252-2.496-.433-3.245.08-.435.296-.487.851-.487 1.318v3.104c0 .931.037 1.548.301 1.923.383.568 1.981.487 2.416.487h.851c.495 0 1.915.03 2.351-.469.304-.331.248-.855.248-1.809v-7.667c0-.454.065-1.378-.435-1.883-.543-.535-2-.42-2.569-.42h-.774c-.567 0-1.674.025-2.088.461-.334.358-.301.938-.301 1.902z" style="fill:#fff;fill-opacity:1;fill-rule:nonzero;stroke:none" transform="translate(228.477 350.406)"/><path d="M0 0v-3.237c0-.423-.019-.679.295-.868.114-.063.434-.063.559 0 .366.179.35.577.35.907V.02c0 .343 0 .596-.325.74C.685.871.368.81.248.72-.035.526 0 .266 0 0m0 5.017V2.792c0-.435-.019-.699.295-.879.114-.051.434-.051.559 0 .366.167.35.579.35.911v2.233c0 .325 0 .568-.325.72-.194.103-.511.058-.631-.048C-.035 5.537 0 5.28 0 5.017m2.682-3.559c.899-.355 1.051-.575 1.051-1.509v-2.804c0-.805.101-1.699-.657-2.113-.775-.414-4.153-.403-4.938.031-.661.425-.592 1.449-.592 2.147v2.52c0 .915-.069 1.282.961 1.685-.92.224-.974.665-.974 1.535v1.691c0 .612-.056 1.48.379 1.882.534.55 1.795.477 2.433.477h.384c.389 0 2.027.08 2.604-.505.425-.466.35-1.457.35-1.933V2.844c0-.817-.076-1.131-1.001-1.386" style="fill:#fff;fill-opacity:1;fill-rule:nonzero;stroke:none" transform="translate(253.845 348.463)"/><path d="M0 0c.911-.332 1.054-.627 1.054-1.596v-2.54c0-.428.048-1.661-.431-2.133-.384-.345-.877-.316-1.907-.316H-3.01c-.849 0-1.547.032-1.862.397-.311.375-.256 1.112-.256 1.873v2.545h2.488v-1.762c0-.9-.05-1.568.334-1.787.102-.068.299-.11.536 0 .32.178.279.839.279 1.689v1.378c0 .663.041 1.181-.325 1.505-.141.102-.455.12-1.053.12V.47c.457 0 .986-.036 1.222.2.197.2.156.665.156 1.448v1.437c0 .295-.057.535-.344.739-.122.066-.436.088-.628 0-.47-.244-.414-.576-.414-1.086v-1.83h-2.242v4.14s2.504.099 2.783.099c1.184 0 2.509.098 3.071-.557.373-.456.319-1.156.319-1.92V1.75c0-.698-.02-1.05-.419-1.447A1.09 1.09 0 0 0 0 0" style="fill:#fff;fill-opacity:1;fill-rule:nonzero;stroke:none" transform="translate(283.13 349.706)"/><path d="M0 0h2.168c.862 0 1.146 0 1.806.081v-2.206h-6.64v2.114l2.288 2.733c.982 1.134 1.464 1.675 1.616 2.609.075.506.13 2.156.006 2.642-.07.231-.152.432-.461.538a.644.644 0 0 1-.58-.084c-.406-.306-.355-1.213-.355-2.052V5.302h-2.295v4.195c.685.111 2.026.264 2.673.274 1.299.042 2.594.092 3.16-.495.454-.435.438-1.448.438-2.013v-.992c0-1.819-.109-1.819-1.76-3.824z" style="fill:#fff;fill-opacity:1;fill-rule:nonzero;stroke:none" transform="translate(330.666 345.49)"/><path d="M0 0c0 .556-.096.802-.606.802-.536 0-.66-.246-.66-.802v-8.325c0-.556.124-.797.66-.797.51 0 .606.241.606.797zm2.479-8.093c0-.977-.025-1.27-.358-1.67-.373-.433-.935-.506-2.744-.506-1.624 0-2.179.073-2.501.292-.632.48-.578 1.165-.578 1.884v7.881c0 .717-.054 1.415.578 1.882.322.243.877.293 2.501.293 1.809 0 2.371-.05 2.744-.497.333-.389.358-.718.358-1.678z" style="fill:#fff;fill-opacity:1;fill-rule:nonzero;stroke:none" transform="translate(358.503 353.39)"/><path d="M0 0c0 .556-.089.802-.602.802-.537 0-.639-.246-.639-.802v-8.325c0-.556.102-.797.639-.797.513 0 .602.241.602.797zm2.493-8.093c0-.977-.024-1.27-.378-1.67-.346-.433-.915-.506-2.717-.506-1.633 0-2.183.073-2.508.292-.639.48-.575 1.165-.575 1.884v7.881c0 .717-.064 1.415.575 1.882.325.243.875.293 2.508.293 1.802 0 2.371-.05 2.717-.497.354-.389.378-.718.378-1.678z" style="fill:#fff;fill-opacity:1;fill-rule:nonzero;stroke:none" transform="translate(385.086 353.39)"/><path d="M0 0h2.259v4.395Zm2.166 6.894h2.779c-.096-.344-.114-.599-.114-1.014V0h1.171v-1.879h-1.21v-2.114c0-.311-.016-.596.082-.973H2.123c.124.326.166.662.166 1.023v2.064h-3.572V0Z" style="fill:#fff;fill-opacity:1;fill-rule:nonzero;stroke:none" transform="translate(408.782 348.33)"/><path d="m0 0 3.543 3.005L7.055 0l-1.58 4.409 3.787 2.307-4.526-.02-1.193 4.157-1.199-4.157-4.515.02 3.769-2.307Z" style="fill:#fff;fill-opacity:1;fill-rule:nonzero;stroke:none" transform="translate(303.074 344.245)"/><path d="M0 0v-4.39h20.354v-.081c26.378-10.924 33.007-28.908 35.8-39.418h142.419c2.799 10.51 9.421 28.494 35.806 39.418v.081h20.301V0Z" style="fill:#b4921f;fill-opacity:1;fill-rule:nonzero;stroke:none" transform="translate(179.331 335.876)"/><path d="M0 0v9.933c-5.164-.646-8.169-.875-14.787-1.112v96.502c0 4.304.355 6.346 1.079 10.615-7.306-5.239-14.297-9.742-21.577-13.922.853-2.293 1.209-3.722 1.209-7.241V8.709c-.007-3.874-.356-5.664-1.209-8.88C-23.31-.132-11.887-.071 0 0" style="fill:#fff;fill-opacity:1;fill-rule:nonzero;stroke:none" transform="translate(428.612 364.911)"/><path d="M0 0c1.784-4.702 5.182-8.601 12.661-15.104.785-.699 1.535-1.355 2.292-2.013 6.333-5.089 10.259-7.354 11.556-14.779.226-1.405.369-4.476.369-7.721v-15.32c0-4.645 0-7.464-2.309-9.37-.255-.191-.604-.354-.985-.496a6.46 6.46 0 0 0-.748-.23c-1.466-.333-3.331-.313-4.581.153-1.608.719-2.672 1.747-2.934 4.26-.106.977-.115 3.152-.115 5.042v30.124a673.723 673.723 0 0 0-16.761 3.231V-72.8c5.575-.518 16.964-1.115 21.506-1.125 8.528-.013 17.261-.263 21.248 3.175 3.772 3.58 3.665 8.983 3.662 14.84v18.552c.009 6.936.464 14.83-4.864 21.355-5.808 6.424-17.682 11.661-21.383 19.14-.491.98-.848 2.986-.858 8.566v14.67c0 1.949.128 3.154.251 3.51.398 2.561 1.563 3.003 3.034 2.561 1.549-.508 2.968-1.488 3.924-2.431.239-.232.447-.463.636-.687.012-.019.046-.052.059-.081 2.411-3.279 2.43-7.234 2.43-10.988V1.437a344.914 344.914 0 0 1 15.673-4.776v31.027c-13.205 7.637-28.155 18.124-32.315 21.14-4.097 2.963-7.428 4.259-9.588 3.129-1.666-.669-2.761-3.027-3.136-6.68-.328-3.679-.279-7.536-.279-9.225V20.223C-1.559 9.921-1.681 4.733 0 0" style="fill:#fff;fill-opacity:1;fill-rule:nonzero;stroke:none" transform="translate(180.9 437.563)"/><path d="M0 0c1.301.242 3.758-.161 5.094-.816.181-.083.349-.181.475-.275V-1.1c1.72-1.42 1.705-2.399 1.705-5.362v-13.512c-3.098.271-6.025.566-9.102.9v13.755C-1.847-3.396-2.211-.756 0 0m-18.105-58.649c.377-1.163 2.042-4.41 4.972-5.411 3.591-1.041 9.55-1.236 13.971-1.244.629-.009 1.215-.009 1.831-.009 1.6 0 11.481-.061 15.187.978 3.572 1.143 4.492 2.907 5.106 3.958 1.087 1.696 1.087 3.977 1.087 11.992v14.974c-5.682.214-11.114.427-16.775.736 0-3.678.015-13.835.015-17.356 0-5.774.227-7.637-1.72-8.658a1.108 1.108 0 0 0-.227-.1.312.312 0 0 0-.132-.075c-.376-.095-1.564-.19-2.302-.178-5.311.092-4.755 1.156-4.736 9.293v23.075a653.927 653.927 0 0 1 25.877-1.606v16.092c.014 5.604.501 9.38-2.914 12.516-2.999 2.618-6.442 3.418-16.531 5.49-1.317.274-2.58.537-3.877.83-6.814 1.488-12.134 2.304-13.86 2.105-1.844-.445-2.785-1.093-3.767-2.164-1.707-2.276-1.693-4.715-1.693-11.706v-44.365c-.014-5.149-.127-7.202.488-9.167" style="fill:#fff;fill-opacity:1;fill-rule:nonzero;stroke:none" transform="translate(253.704 428.8)"/><path d="M0 0c.869 0 1.589-.072 2.188-.295.255-.102.491-.229.681-.394.662-.568 1.024-1.539 1.027-3.238v-46.582c-.015-1.729-.365-2.756-1.027-3.343a2.568 2.568 0 0 0-.703-.442c-.592-.241-1.305-.308-2.166-.308-2.705.017-3.978.741-3.998 4.093v46.572C-3.963-.642-2.688-.013 0 0m-20.781-49.346c-.004-2.105-.496-6.443 4.139-9.501 2.529-1.449 9.639-1.747 16.642-1.747 8.421 0 12.748.393 14.721 1.061 5.769 2.183 5.947 6.016 5.947 10.087v45.375c0 3.828-.193 7.477-5.947 9.075-1.991.507-6.35.517-14.721.507-7.044-.031-14.143.113-16.642-1.183-4.645-2.569-4.143-6.791-4.139-8.588Z" style="fill:#fff;fill-opacity:1;fill-rule:nonzero;stroke:none" transform="translate(307.887 424.08)"/><path d="M0 0c.009-3.237.22-5.877 4.368-8.752 4.695-2.828 18.066-3.315 22.246 1.236.225-.676.446-1.336.674-1.993.02-.067.045-.132.066-.203h1.43c5.376.022 10.546.04 15.932.05-1.332 2.747-1.81 7.326-1.836 10.627v55.047c.016 4.196.134 7.333.621 10.052-6.309-1.948-12.32-3.589-18.579-5.043.348-2.104.597-4.888.597-7.811V.475c-.013-1.856-.381-2.971-1.1-3.627a2.461 2.461 0 0 0-.766-.491c-.583-.25-1.304-.334-2.138-.341-2.482-.02-3.982.618-4.014 4.29v50.587c.009 3.654.125 6.341.727 8.66A244.526 244.526 0 0 0-.604 56.397c.378-1.873.594-4.363.604-6.993Z" style="fill:#fff;fill-opacity:1;fill-rule:nonzero;stroke:none" transform="translate(339.374 374.328)"/><path d="M293.04 303.285h27.388v28.201H293.04Z" style="fill:#d91920;fill-opacity:1;fill-rule:nonzero;stroke:none"/><path d="M0 0v-17.479c2.227-3.597 4-7.212 5.375-10.722h21.996V0Z" style="fill:#d91920;fill-opacity:1;fill-rule:nonzero;stroke:none" transform="translate(238.281 331.486)"/><path d="M0 0v-28.201h22.008c1.357 3.51 3.146 7.125 5.373 10.722V0Z" style="fill:#d91920;fill-opacity:1;fill-rule:nonzero;stroke:none" transform="translate(347.828 331.486)"/><path d="M0 0a148.858 148.858 0 0 1 4.458-3.733c2.946-2.359 6.017-4.583 9.157-6.705.114-.081.236-.163.351-.243a196.11 196.11 0 0 1 2.4-1.601c.301-.191.611-.383.914-.582 1.222-.76 2.438-1.531 3.687-2.268.111-.074.226-.144.341-.202a136.858 136.858 0 0 1 3.299-1.872c20.315-11.35 43.796-18.412 68.648-20.586a28.666 28.666 0 0 0-5.406 5.089 175.072 175.072 0 0 0-19.127 3.354c-9.5 2.217-18.671 5.201-27.371 8.915-9.771 4.179-18.937 9.267-27.385 15.224v34.22c12.867 6.416 21.646 15.397 27.385 24.605a65.575 65.575 0 0 1 5.376 10.71h21.97v.04c0 4.825-2.079 7.626-4.917 8.986 6.829-.01 9.817-5.495 10.077-8.832 2.429 3.926 6.409 7.201 7.839 11.086H38.555c-2.793-10.502-9.422-28.488-35.8-39.42V3.592c-7.994 7.008-14.82 14.665-20.354 22.84v-7.747C-12.542 12.067-6.67 5.807 0 0" style="fill:#b4921f;fill-opacity:1;fill-rule:nonzero;stroke:none" transform="translate(196.93 499.157)"/><path d="M0 0v32.603c-26.385 10.932-33.007 28.918-35.806 39.42h-43.165c1.408-3.885 5.396-7.16 7.829-11.086.263 3.337 3.271 8.822 10.084 8.832-2.84-1.36-4.923-4.161-4.923-8.986v-.04h22.107c1.357-3.511 3.146-7.131 5.373-10.71 5.736-9.208 14.511-18.189 27.378-24.605V-8.751c-8.442-5.948-17.626-11.056-27.378-15.237-8.71-3.711-17.873-6.703-27.381-8.93a177.633 177.633 0 0 0-18.816-3.318 28.275 28.275 0 0 0-5.426-5.119c24.022 2.136 46.761 8.862 66.578 19.604 7.761 4.199 15.095 9.015 21.863 14.436a121.3 121.3 0 0 1 4.337 3.621c6.691 5.809 12.585 12.07 17.647 18.693v7.742C14.775 14.596 7.968 6.957 0 0" style="fill:#b4921f;fill-opacity:1;fill-rule:nonzero;stroke:none" transform="translate(413.71 502.74)"/><path d="M0 0s-.709 1.303-1.835 2.733C1.718 5.25 4.83 10.4-.072 21.83 8.031 7.678 3.229 2.074 0 0m-48.66 39.39c-.93 0-2.883-.373-3.981-.859 1.352 1.891 3.25 5.35 3.981 7.73.713-2.38 2.625-5.839 3.967-7.73-1.09.486-3.047.859-3.967.859M-97.134 0c-3.217 2.074-8.032 7.678.076 21.83-4.908-11.43-1.779-16.58 1.756-19.097C-96.425 1.303-97.134 0-97.134 0M5.143 27.827c-2.364 4.998-.481 12.383.496 13.112-6.321-2.379-7.264-9.165-7.028-12.18-2.115 4.116-5.432 9.206-6.006 15.55a21.317 21.317 0 0 0-.099 1.838v.04c0 4.826 2.083 7.626 4.924 8.986-6.814-.01-9.822-5.494-10.084-8.832-2.434 3.926-6.421 7.201-7.829 11.087-.294.8-.487 1.619-.523 2.478-.063 1.294.219 5.005 3.314 6.929-4.204-.727-5.95-3.481-6.619-6.342-.125-.576-.238-1.163-.276-1.728-.058-.478-.067-.911-.077-1.337a7.426 7.426 0 0 1-.018-.842c.095-4.086 1.743-7.816 3.156-10.439.749-1.383 1.445-2.445 1.796-3.074a23.687 23.687 0 0 0-2.708 3.074c-2.435 3.319-3.912 7.223-4.035 11.148-.054.039-.09.092-.14.133-.463.404-.899.817-1.326 1.222a32.145 32.145 0 0 0-1.726 1.843c-5.19 5.979-5.323 11.236-3.303 15.012-.011-.034-.03-.05-.048-.072-1.709-1.64-2.798-3.875-3.374-6.059a14.163 14.163 0 0 1-.516-3.721c0-15.8 19.107-20.244 19.107-35.022 6.381-.039 7.699-4.784 7.648-6.391-.052-1.844-.923-4.29-3.558-5.637 4.857 0 6.699-3.207 6.699-5.707 0-2.699-2.128-4.703-4.719-4.703-3.789 0-5.125 3.29-4.441 4.794-.207-1.252 1.118-3.597 3.396-3.498 2.973.132 3.626 2.531 3.565 3.63-.219 4.129-3.494 4.959-6.023 4.854-2.373-.085-4.919.237-5.774 2.37 1.524-1.77 3.889-1.59 5.248-1.303 1.217.243 3.603 1.932 3.247 5.033-.477 4.209-4.745 5.402-6.952 5.031 0 16.834-22.699 21.425-22.699 31.166 0 2.519 2.355 4.917 2.902 5.464-4.912-2.479-5.627-6.144-5.627-8.469 0-13.887 15.895-18.248 15.895-27.82 0-3.941-2.375-5.176-3.589-5.765.427.599.599 1.759.589 2.693-.031 2.76-2.06 4.884-4.617 5.178-2.751.303-6.598-2.076-6.184-7.686.153-2.006 1.328-5.798 4.566-8.094a5.578 5.578 0 0 1-1.019-3.228c0-.483.072-.929.183-1.376a14.545 14.545 0 0 1-3.921 2.69c1.484 1.044 2.621 2.722 2.621 2.722-2.039 1.591-4.665 4.542-4.665 9.096 0 5.876 4.331 8.355 7.656 8.133 3.073-.212 5.663-2.419 6.032-5.33.795 4.933-4.828 9.022-9.056 13.835-4.632 5.272-7.795 12.657-4.153 19.352-1.325-1.205-3.441-4.37-4.007-6.26-.556 1.89-2.682 5.055-3.997 6.26 3.645-6.695.487-14.08-4.16-19.352-4.225-4.813-9.84-8.902-9.035-13.835.369 2.911 2.943 5.118 6.014 5.33 3.324.222 7.668-2.257 7.668-8.133 0-4.554-2.643-7.505-4.668-9.096 0 0 1.138-1.678 2.607-2.722a14.74 14.74 0 0 1-3.918-2.69c.118.447.193.893.193 1.376a5.538 5.538 0 0 1-1.033 3.228c3.248 2.296 4.424 6.088 4.57 8.094.411 5.61-3.43 7.989-6.177 7.686-2.561-.294-4.573-2.418-4.619-5.178-.011-.934.156-2.094.577-2.693-1.201.589-3.564 1.824-3.564 5.765 0 9.572 15.873 13.933 15.873 27.82 0 2.325-.707 5.99-5.616 8.469.541-.547 2.9-2.945 2.9-5.464 0-9.741-22.692-14.332-22.692-31.166-2.204.371-6.465-.822-6.949-5.031-.355-3.101 2.048-4.79 3.243-5.033 1.37-.287 3.727-.467 5.245 1.303-.845-2.133-3.4-2.455-5.785-2.37-2.499.105-5.79-.725-6.006-4.854-.056-1.099.606-3.498 3.566-3.63 2.275-.099 3.61 2.246 3.394 3.498.679-1.504-.655-4.794-4.432-4.794-2.595 0-4.725 2.004-4.725 4.703 0 2.5 1.848 5.707 6.694 5.707-2.621 1.347-3.497 3.793-3.556 5.637-.05 1.607 1.258 6.352 7.647 6.391 0 14.778 19.109 19.222 19.109 35.022 0 1.132-.162 2.417-.522 3.721-.572 2.166-1.665 4.369-3.322 6.017-.031.034-.062.074-.099.114 2.018-3.776 1.873-9.033-3.317-15.012a32.851 32.851 0 0 0-2.551-2.609c-.159-.153-.313-.296-.479-.456-.052-.041-.097-.094-.147-.133-.11-3.925-1.603-7.829-4.027-11.148a23.822 23.822 0 0 0-2.706-3.074c.344.629 1.036 1.691 1.801 3.074 1.411 2.623 3.055 6.353 3.147 10.439.004.265-.02.56-.02.842-.023.84-.081 1.699-.249 2.589-.035.163-.066.315-.106.476-.674 2.861-2.413 5.615-6.602 6.342 3.09-1.924 3.36-5.635 3.308-6.929-.048-.859-.243-1.678-.518-2.478-1.429-3.886-5.41-7.161-7.839-11.087-.26 3.338-3.247 8.822-10.077 8.832 2.838-1.36 4.918-4.16 4.918-8.986v-.04c-.01-7.211-3.795-12.886-6.111-17.388.248 3.015-.69 9.801-7.032 12.18.991-.729 2.868-8.114.509-13.112-4.658-9.854-10.301-13.564-9.75-22.761.369-6.006 4.085-12.624 12.336-14.94-.348-8.395 5.121-12.713 10.072-14.188 1.361-.41 2.681-.622 3.845-.622 5.474 0 8.665 2.955 10.047 4.484-.36-1.994-4.909-7.689-12.186-6.272 3.94-4.936 9.17-5.119 11.011-5.089-.013-.417-.03-.837-.03-1.275a28.36 28.36 0 0 1 6.441-18.045 28.636 28.636 0 0 1 5.406-5.089 28.402 28.402 0 0 1 16.689-5.39c6.24 0 12.008 2.012 16.711 5.409a28.277 28.277 0 0 1 5.426 5.119 28.368 28.368 0 0 1 6.394 17.996c0 .438-.012.851-.025 1.275 2.104.011 6.932.464 10.623 5.089-7.285-1.417-11.826 4.278-12.184 6.272 1.387-1.529 4.575-4.484 10.053-4.484 1.186 0 2.553.225 3.955.65 4.918 1.516 10.291 5.846 9.953 14.16C10.807-7.558 14.525-.94 14.892 5.066c.54 9.197-5.089 12.907-9.749 22.761" style="fill:#b4921f;fill-opacity:1;fill-rule:nonzero;stroke:none" transform="translate(355.223 517.335)"/><path d="M0 0c-8.251 2.316-11.968 8.934-12.336 14.94-.551 9.197 5.091 12.907 9.75 22.761 2.359 4.998.482 12.383-.51 13.112 6.343-2.379 7.281-9.165 7.033-12.18 2.315 4.502 6.101 10.177 6.11 17.388h-21.97a65.615 65.615 0 0 0-5.376-10.71v-74.049c8.7-3.714 17.871-6.698 27.371-8.914v23.464C5.12-12.713-.348-8.395 0 0" style="fill:#d91920;fill-opacity:1;fill-rule:nonzero;stroke:none" transform="translate(255.58 507.46)"/><path d="M0 0c-.236 3.015.707 9.8 7.027 12.18-.976-.729-2.859-8.115-.496-13.113 4.66-9.853 10.289-13.563 9.749-22.76-.366-6.006-4.085-12.624-12.334-14.94.339-8.314-5.034-12.644-9.952-14.16v-23.48c9.508 2.227 18.671 5.219 27.381 8.93V6.678c-2.227 3.579-4.016 7.199-5.373 10.71H-6.006v-1.839C-5.433 9.206-2.115 4.116 0 0" style="fill:#d91920;fill-opacity:1;fill-rule:nonzero;stroke:none" transform="translate(353.834 546.094)"/><path d="M0 0c.618 0 1.124.496 1.124 1.113 0 .611-.506 1.106-1.124 1.106a1.114 1.114 0 0 1-1.133-1.106C-1.133.496-.635 0 0 0" style="fill:#fff;fill-opacity:1;fill-rule:nonzero;stroke:none" transform="translate(292.71 528.997)"/><path d="M0 0c1.113.029 2.646.333 4.021 1.447a4.612 4.612 0 0 0-1.641-.315c-2.562 0-4.647 2.056-4.647 4.581 0 .438.076.853.198 1.245-1.183.162-2.576.738-3.629 1.62-.2-.432-.443-1.671-.433-2.68C-6.077 1.701-2.246-.041 0 0" style="fill:#fff;fill-opacity:1;fill-rule:nonzero;stroke:none" transform="translate(290.315 524.396)"/><path d="M0 0a1.11 1.11 0 1 1 0 2.219c-.629 0-1.13-.495-1.13-1.106C-1.13.496-.629 0 0 0" style="fill:#fff;fill-opacity:1;fill-rule:nonzero;stroke:none" transform="translate(320.644 528.997)"/><path d="M0 0c.025 1.009-.213 2.248-.422 2.68a7.246 7.246 0 0 0-3.617-1.62 4.37 4.37 0 0 0 .192-1.245c0-2.524-2.087-4.581-4.661-4.581-.583 0-1.13.124-1.638.315 1.38-1.113 2.918-1.418 4.017-1.447C-3.867-5.938-.043-4.197 0 0" style="fill:#fff;fill-opacity:1;fill-rule:nonzero;stroke:none" transform="translate(329.152 530.294)"/><path d="M0 0s1.848 3.47-.008 8.152c.823-8.59-6.743-13.9-14.241-10.158.107-.859.178-1.759.178-2.721 0-1.92-.744-5.533-4.49-5.533-1.137 0-2.439.57-3.308 1.273-.097 1.702.845 5.748 4.477 4.26-.502.991-1.543 1.407-2.627 1.407-1.182 0-2.457-1.123-3.089-3.026-.827-2.558-2.784-4.428-5.117-4.428-2.338 0-4.28 1.87-5.122 4.428-.626 1.903-1.902 3.026-3.082 3.026-1.078 0-2.131-.416-2.62-1.407 3.634 1.488 4.565-2.558 4.474-4.26-.878-.703-2.173-1.273-3.311-1.273-3.753 0-4.496 3.613-4.496 5.533 0 .962.075 1.862.179 2.721-7.48-3.742-15.053 1.568-14.223 10.158C-58.298 3.47-56.452 0-56.452 0c-8.768.79-12.649-5.575-12.649-9.662 0-4.087 3.363-6.715 6.113-6.929 3.411-.253 6.446 2.364 5.125 6.098.454-3.763-2.717-4.569-4.261-4.569-1.319 0-4.535 1.163-4.535 5.319 0 4.146 4.535 7.241 8.537 6.958 6.446-.443 9.993-6.392 9.297-11.976.416-.758 3.118-5.483 8.521-5.483 6.35 0 7.707 4.997 12.079 4.997 4.378 0 5.724-4.997 12.094-4.997 5.4 0 8.093 4.725 8.517 5.483-.703 5.584 2.849 11.533 9.296 11.976 3.987.283 8.544-2.812 8.544-6.958 0-4.156-3.225-5.319-4.544-5.319-1.538 0-4.712.806-4.255 4.569-1.323-3.734 1.716-6.351 5.127-6.098 2.748.214 6.103 2.842 6.103 6.929S8.771.79 0 0" style="fill:#fff;fill-opacity:1;fill-rule:nonzero;stroke:none" transform="translate(334.897 521.11)"/><path d="M0 0c-1.225 1.187-1.649 4.321.87 5.898 4.083 1.193 6.595 4.351 8.554 4.572 0-1.657-.006-7.474-.006-7.657C5.816.951 2.613-1.385-.365-4.339c-.214.079-7.558 2.436-7.805 2.51-.168.97-.249 1.898-.249 2.79 0 1.801.295 3.481.603 5.201 0 0 .046.272.082.554A10.828 10.828 0 0 1-5.711 6c0-.03-.026-.04-.026-.062C-6.16 3.995-4.478-.059 0 0" style="fill:#fff;fill-opacity:1;fill-rule:nonzero;stroke:none" transform="translate(297.031 492.622)"/><path d="M0 0c0 .022-.01.033-.014.063.954.231 1.769.576 2.474.958.064-.364.136-.836.136-.836.282-1.68.561-3.31.561-5.068 0-.934-.088-1.902-.279-2.945-.242-.071-7.449-2.387-7.66-2.468a38.473 38.473 0 0 1-9.839 7.171v7.536c1.883-.658 4.296-3.368 8.011-4.451 2.521-1.576 2.086-4.711.866-5.898C-1.336-5.996.431-1.942 0 0" style="fill:#fff;fill-opacity:1;fill-rule:nonzero;stroke:none" transform="translate(322.052 498.56)"/><path d="M0 0c-.123-.161-4.642-6.424-4.792-6.624-3.031.454-5.273 1.677-7.421 2.864l-1.271.696a23.186 23.186 0 0 0-2.929 9.094c.06.114.526 1.1.526 1.1 1.057 2.248 2.14 4.576 4.391 6.768.237-.081 7.614-2.445 7.822-2.519C-3.031 7.383-1.821 3.664 0 0" style="fill:#fff;fill-opacity:1;fill-rule:nonzero;stroke:none" transform="translate(300.1 475.951)"/><path d="M0 0c4.026-.649 7.988-.649 12.079.006.126-.166 4.186-5.794 4.186-5.794s.411-.558.577-.777c-1.373-2.784-3.216-4.532-4.992-6.214l-1.001-.968c-1.538-.283-3.203-.466-4.819-.466-1.629 0-3.3.183-4.936.516-.108.111-.933.91-.933.91l-2.488 2.507c-1.086 1.246-1.849 2.401-2.472 3.673C-4.646-6.393-.128-.183 0 0" style="fill:#fff;fill-opacity:1;fill-rule:nonzero;stroke:none" transform="translate(300.884 475.367)"/><path d="M0 0c1.837 3.549 3.071 7.273 3.771 11.379.211.074 7.418 2.378 7.665 2.46.8-.777 1.478-1.597 2.072-2.52.965-1.423 1.67-2.922 2.281-4.277l.598-1.267a23.281 23.281 0 0 0-3.002-8.92c-.03.008-1.203-.615-1.203-.615-2.166-1.166-4.403-2.383-7.403-2.836C4.65-6.424.35-.486 0 0" style="fill:#fff;fill-opacity:1;fill-rule:nonzero;stroke:none" transform="translate(313.746 475.951)"/><path d="M0 0s-.158-1.216-.263-1.943a26.931 26.931 0 0 0-3.409 6.474c-.956 2.689-1.443 5.531-1.492 8.457 1.253-1.406 2.331-2.176 2.645-2.381A23.81 23.81 0 0 1 .46 1.547L0 0" style="fill:#fff;fill-opacity:1;fill-rule:nonzero;stroke:none" transform="translate(285.27 470.997)"/><path d="M0 0c-2.695 0-5.363.437-7.928 1.225 1.795.791 2.871 1.588 3.091 1.771A24.448 24.448 0 0 1 0 2.51c1.66 0 3.28.175 4.834.486.218-.183 1.27-.98 3.078-1.759C5.355.437 2.703 0 0 0" style="fill:#fff;fill-opacity:1;fill-rule:nonzero;stroke:none" transform="translate(306.914 457.67)"/><path d="M0 0c-.197 1.933-.621 3.189-.719 3.449a24.144 24.144 0 0 1 2.967 9.045c.471.304 1.488 1.084 2.657 2.358A26.283 26.283 0 0 0 0 0" style="fill:#fff;fill-opacity:1;fill-rule:nonzero;stroke:none" transform="translate(328.807 469.071)"/><path d="M0 0c-1.842-.03-7.072.153-11.011 5.089C-3.735 3.672.815 9.367 1.174 11.361-.208 9.833-3.398 6.877-8.873 6.877c-1.163 0-2.483.212-3.844.622v-23.464A175.073 175.073 0 0 1 6.41-19.32 28.365 28.365 0 0 0-.03-1.275c0 .438.016.858.03 1.275" style="fill:#231f20;fill-opacity:1;fill-rule:nonzero;stroke:none" transform="translate(278.37 485.774)"/><path d="M0 0v-34.22c8.447-5.956 17.614-11.045 27.385-15.224v74.049C21.646 15.397 12.866 6.416 0 0" style="fill:#231f20;fill-opacity:1;fill-rule:nonzero;stroke:none" transform="translate(210.897 528.167)"/><path d="M0 0v34.179c-12.867 6.416-21.642 15.397-27.378 24.605v-74.02C-17.626-11.056-8.442-5.948 0 0" style="fill:#231f20;fill-opacity:1;fill-rule:nonzero;stroke:none" transform="translate(402.587 493.988)"/><path d="M0 0c-5.479 0-8.666 2.956-10.054 4.484.359-1.994 4.9-7.689 12.185-6.272-3.692-4.625-8.52-5.078-10.623-5.089.013-.424.024-.837.024-1.275 0-6.819-2.39-13.092-6.393-17.996A178.144 178.144 0 0 1 3.955-22.83V.65C2.553.225 1.186 0 0 0" style="fill:#231f20;fill-opacity:1;fill-rule:nonzero;stroke:none" transform="translate(343.873 492.65)"/><path d="M0 0c3.576-1.808 6.729-4.098 9.627-6.945-.712-4.098-1.924-7.793-3.725-11.26-3.987-.639-7.868-.661-11.824-.033A37.25 37.25 0 0 0-9.576-6.945C-6.703-4.085-3.566-1.808 0 0" style="fill:#231f20;fill-opacity:1;fill-rule:nonzero;stroke:none" transform="translate(306.953 494.563)"/><path d="M0 0c1.686.461 3.082.577 3.825.586.024-.009.055-.02.082-.043-.058-.322-.147-.87-.147-.87-.308-1.708-.622-3.448-.622-5.381 0-.949.09-1.964.288-3.035-2.348-2.296-3.446-4.603-4.591-7.038l-.397-.821a14.965 14.965 0 0 0-2.9 2.855A27.186 27.186 0 0 0 0 0" style="fill:#231f20;fill-opacity:1;fill-rule:nonzero;stroke:none" transform="translate(284.496 499.29)"/><path d="M0 0c.051 0 .334 2.61.334 2.61s.239.89.359 1.316c.283-.143.88-.477.88-.477C3.789 2.226 6.11.963 9.348.479c.568-1.176 1.257-2.248 2.187-3.382l2.61-2.762.377-.364s.468-.433.722-.685c-.515-.365-1.731-1.144-3.574-1.793C7.094-6.819 3.071-3.873 0 0" style="fill:#231f20;fill-opacity:1;fill-rule:nonzero;stroke:none" transform="translate(285.847 467.879)"/><path d="M0 0a16.669 16.669 0 0 0-3.519 1.833c.229.241.701.703.701.703C-.857 4.41.967 6.169 2.377 9.033c3.211.466 5.537 1.729 7.783 2.952l.891.488c.219-.69.597-2.117.642-4.079C8.635 4.634 4.59 1.678 0 0" style="fill:#231f20;fill-opacity:1;fill-rule:nonzero;stroke:none" transform="translate(316.232 459.343)"/><path d="m0 0-.378.824c-.86 1.869-1.62 3.418-2.753 5.005 0 0-1.584 1.861-1.782 2.084.21 1.12.295 2.164.295 3.166 0 1.82-.269 3.489-.564 5.228 0 0-.098.576-.166.912h.061c.561-.011 2.058-.092 3.973-.698A26.996 26.996 0 0 0 2.92 2.796 14.45 14.45 0 0 0 0 0" style="fill:#231f20;fill-opacity:1;fill-rule:nonzero;stroke:none" transform="translate(330.805 482.585)"/><path d="M265.652 303.285h27.388v28.201h-27.388z" style="fill:#231f20;fill-opacity:1;fill-rule:nonzero;stroke:none"/><path d="M0 0c6.874-5.28 12.082-11.316 15.93-17.479V0Z" style="fill:#231f20;fill-opacity:1;fill-rule:nonzero;stroke:none" transform="translate(222.352 331.486)"/><path d="M0 0c3.835 6.163 9.045 12.199 15.936 17.479H0Z" style="fill:#231f20;fill-opacity:1;fill-rule:nonzero;stroke:none" transform="translate(375.209 314.007)"/><path d="M320.428 303.285h27.4v28.201h-27.4z" style="fill:#231f20;fill-opacity:1;fill-rule:nonzero;stroke:none"/></g></svg>